<svg xmlns:xlink="http://www.w3.org/1999/xlink" xmlns:ed="https://www.edrawsoft.com/xml/2017/SVGExtensions/" ed:name="Page-1" ed:vSpacing="30" width="865" xmlns:ev="http://www.w3.org/2001/xml-events" id="page100" height="961" xmlns="http://www.w3.org/2000/svg" ed:hSpacing="30" viewBox="0 0 865 961"><style type="text/css"><![CDATA[
g[ed\:togtopicid],g[ed\:hyperlink],g[ed\:comment],g[ed\:note] {cursor:pointer;}
g[id] {-moz-user-select: none;-ms-user-select: none;user-select: none;}
svg text::selection,svg tspan::selection{background-color: #4285f4;color: #ffffff;fill: #ffffff;}
.st4 {fill:#454545;font-family:微软雅黑;font-size:10pt;font-weight:bold}
.st3 {fill:#454545;font-family:微软雅黑;font-size:12pt;font-weight:bold}
.st1 {fill:#454545;font-family:微软雅黑;font-size:14pt;font-weight:bold}
.st5 {fill:#c00000;font-family:微软雅黑;font-size:10pt;font-weight:bold}
.st2 {fill:#c00000;font-family:微软雅黑;font-size:12pt;font-weight:bold}
]]></style><defs><linearGradient x2="0%" y1="0%" id="lg1" y2="100%" x1="0%"><stop stop-color="#ffffff" offset="0"/><stop stop-color="#f0f5f0" offset="0.25"/><stop stop-color="#e1ebe1" offset="0.75"/><stop stop-color="#c8d7c8" offset="1"/></linearGradient></defs><rect y="0" width="865" x="0" fill="#fbfcfb" height="961"/><path stroke-linejoin="round" d="M0.1,0C6,0,5.9,3.6,5.9,3.6L5.9,25.2C5.9,25.2,6.9,28.2,12,28.2C6.9,28.3,5.9,31.2,5.9,31.2L5.9,52.8C5.9,52.8,5.8,56.4,0,56.4" transform="matrix(1,0,0,1,627,143)" ed:parentid="112,114" fill="none" id="198" stroke="#5fb7f1" ed:idlist="112,116,114,118" ed:type="summary"/><path d="M-34.9,169C-35.5,170.7,-34.9,172.2,-33.6,172.7C-32.3,173.1,-30.8,172.4,-30.2,170.7C-29.4,168.5,-28.6,166.2,-27.9,164C-27.2,161.7,-26.6,159.4,-26,157.1C-25.4,154.8,-24.8,152.5,-24.3,150.2C-23.8,147.9,-23.4,145.6,-22.9,143.3C-22.5,141,-22.1,138.7,-21.7,136.3C-21.3,134,-21,131.7,-20.6,129.4C-20.3,127.1,-20,124.7,-19.7,122.4C-19.4,120.1,-19.1,117.8,-18.8,115.4C-18.6,113.1,-18.3,110.8,-18.1,108.4C-17.9,106.1,-17.6,103.8,-17.4,101.4C-17.2,99.1,-17,96.8,-16.8,94.5C-16.6,92.1,-16.4,89.8,-16.3,87.5C-16.1,85.1,-15.9,82.8,-15.8,80.5C-15.6,78.1,-15.5,75.8,-15.3,73.5C-15.2,71.1,-15,68.8,-14.9,66.5C-14.7,64.1,-14.6,61.8,-14.5,59.5C-14.4,57.1,-14.2,54.8,-14.1,52.5C-14,50.2,-13.9,47.8,-13.7,45.5C-13.6,43.2,-13.5,40.8,-13.4,38.5C-13.3,36.2,-13.2,33.8,-13.1,31.5C-12.9,29.2,-12.8,26.8,-12.7,24.5C-12.6,22.2,-12.5,19.8,-12.4,17.5C-12.3,15.2,-12.2,12.9,-12,10.5C-11.9,8.2,-11.8,5.9,-11.7,3.5C-11.6,1.2,-11.5,-1.1,-11.3,-3.4C-11.2,-5.8,-11.1,-8.1,-11,-10.4C-10.8,-12.8,-10.7,-15.1,-10.6,-17.4C-10.4,-19.7,-10.3,-22.1,-10.1,-24.4C-10,-26.7,-9.8,-29.1,-9.7,-31.4C-9.5,-33.7,-9.4,-36,-9.2,-38.4C-9,-40.7,-8.9,-43,-8.7,-45.3C-8.5,-47.6,-8.3,-50,-8.1,-52.3C-7.9,-54.6,-7.7,-56.9,-7.5,-59.3C-7.3,-61.6,-7.1,-63.9,-6.8,-66.2C-6.6,-68.5,-6.3,-70.8,-6.1,-73.2C-5.8,-75.5,-5.6,-77.8,-5.3,-80.1C-5,-82.4,-4.7,-84.7,-4.4,-87C-4.1,-89.3,-3.8,-91.6,-3.4,-93.9C-3.1,-96.2,-2.7,-98.6,-2.4,-100.8C-2,-103.1,-1.6,-105.4,-1.2,-107.7C-0.8,-110,-0.4,-112.3,0.1,-114.6C0.6,-116.9,1,-119.1,1.5,-121.4C2,-123.7,2.6,-126,3.1,-128.2C3.7,-130.5,4.3,-132.7,4.9,-135C5.5,-137.2,6.2,-139.4,6.9,-141.6C7.6,-143.9,8.3,-146.1,9.1,-148.2C9.8,-150.4,10.7,-152.6,11.5,-154.8C12.4,-156.9,13.3,-159,14.3,-161.1C15.3,-163.2,16.3,-165.3,17.5,-167.3C18.6,-169.3,19.8,-171.3,21,-173.3C22.3,-175.2,23.6,-177.1,25.1,-178.9C26.5,-180.7,28,-182.4,29.7,-184.1C31.3,-185.7,33,-187.2,34.8,-188.7C36.7,-190.1,38.6,-191.3,40.6,-192.5C42.6,-193.6,44.7,-194.6,46.8,-195.4C49,-196.2,51.1,-196.8,53.5,-197.3C55.9,-197.7,58.7,-198,60.3,-198.2C62,-198.3,62.6,-198.3,63.2,-198.3C63.6,-198.2,63.8,-198.5,63.8,-198.8C63.8,-199,63.6,-199.2,63.2,-199.3C62.6,-199.3,62,-199.3,60.3,-199.2C58.6,-199.1,55.8,-198.8,53.3,-198.3C50.8,-197.9,48.6,-197.3,46.4,-196.5C44.3,-195.7,42.1,-194.7,40,-193.6C37.9,-192.4,35.9,-191.1,34,-189.7C32.2,-188.3,30.4,-186.7,28.7,-185C27,-183.4,25.4,-181.6,23.9,-179.8C22.5,-178,21.1,-176.1,19.8,-174.1C18.5,-172.1,17.2,-170.1,16.1,-168.1C14.9,-166,13.8,-164,12.8,-161.8C11.8,-159.7,10.8,-157.6,9.9,-155.4C9,-153.2,8.2,-151.1,7.4,-148.9C6.6,-146.7,5.8,-144.4,5.1,-142.2C4.4,-140,3.7,-137.7,3,-135.5C2.4,-133.2,1.8,-131,1.2,-128.7C0.6,-126.4,0,-124.2,-0.5,-121.9C-1,-119.6,-1.5,-117.3,-2,-115C-2.5,-112.7,-2.9,-110.4,-3.4,-108.1C-3.8,-105.8,-4.2,-103.5,-4.6,-101.2C-5,-98.9,-5.4,-96.6,-5.8,-94.3C-6.1,-92,-6.5,-89.7,-6.8,-87.4C-7.1,-85,-7.4,-82.7,-7.8,-80.4C-8.1,-78.1,-8.3,-75.8,-8.6,-73.5C-8.9,-71.1,-9.2,-68.8,-9.4,-66.5C-9.7,-64.2,-9.9,-61.8,-10.2,-59.5C-10.4,-57.2,-10.6,-54.9,-10.9,-52.5C-11.1,-50.2,-11.3,-47.9,-11.5,-45.6C-11.7,-43.2,-11.9,-40.9,-12.1,-38.6C-12.3,-36.2,-12.5,-33.9,-12.7,-31.6C-12.8,-29.3,-13,-26.9,-13.2,-24.6C-13.3,-22.3,-13.5,-19.9,-13.7,-17.6C-13.8,-15.3,-14,-13,-14.1,-10.6C-14.3,-8.3,-14.4,-6,-14.6,-3.6C-14.7,-1.3,-14.9,1,-15,3.4C-15.2,5.7,-15.3,8,-15.4,10.3C-15.6,12.7,-15.7,15,-15.8,17.3C-16,19.7,-16.1,22,-16.3,24.3C-16.4,26.7,-16.5,29,-16.7,31.3C-16.8,33.6,-16.9,36,-17.1,38.3C-17.2,40.6,-17.3,43,-17.5,45.3C-17.6,47.6,-17.8,49.9,-17.9,52.3C-18.1,54.6,-18.2,56.9,-18.4,59.2C-18.5,61.6,-18.7,63.9,-18.8,66.2C-19,68.5,-19.2,70.9,-19.3,73.2C-19.5,75.5,-19.7,77.8,-19.8,80.2C-20,82.5,-20.2,84.8,-20.4,87.1C-20.6,89.5,-20.8,91.8,-21,94.1C-21.2,96.4,-21.5,98.7,-21.7,101C-21.9,103.4,-22.2,105.7,-22.4,108C-22.7,110.3,-23,112.6,-23.3,114.9C-23.5,117.2,-23.8,119.5,-24.2,121.8C-24.5,124.1,-24.8,126.4,-25.2,128.7C-25.5,131,-25.9,133.3,-26.3,135.6C-26.7,137.8,-27.1,140.1,-27.6,142.4C-28,144.7,-28.5,146.9,-29,149.2C-29.5,151.4,-30.1,153.7,-30.7,155.9C-31.3,158.1,-31.9,160.3,-32.6,162.5C-33.3,164.7,-34.1,166.8,-34.9,169z" stroke-linejoin="round" transform="matrix(1,0,0,1,151,282)" ed:parentid="101" fill="#ff7575" id="103" stroke="#ff7575" ed:tosuperid="102" stroke-linecap="round"/><path d="M-32.4,116.4C-33.1,118,-32.5,119.6,-31.2,120.1C-30,120.6,-28.4,119.9,-27.8,118.2C-27,116,-26.1,113.8,-25.4,111.5C-24.6,109.2,-23.9,107,-23.3,104.7C-22.7,102.4,-22.1,100.1,-21.6,97.8C-21,95.5,-20.5,93.2,-20,90.9C-19.5,88.6,-19.1,86.3,-18.7,84C-18.2,81.7,-17.8,79.4,-17.5,77.1C-17.1,74.8,-16.7,72.4,-16.4,70.1C-16,67.8,-15.7,65.5,-15.4,63.2C-15.1,60.8,-14.8,58.5,-14.5,56.2C-14.2,53.9,-13.9,51.6,-13.6,49.2C-13.4,46.9,-13.1,44.6,-12.9,42.3C-12.6,39.9,-12.3,37.6,-12.1,35.3C-11.9,33,-11.6,30.6,-11.4,28.3C-11.1,26,-10.9,23.7,-10.7,21.4C-10.4,19,-10.2,16.7,-10,14.4C-9.7,12.1,-9.5,9.7,-9.3,7.4C-9,5.1,-8.8,2.8,-8.6,0.5C-8.3,-1.9,-8.1,-4.2,-7.8,-6.5C-7.6,-8.8,-7.3,-11.1,-7.1,-13.4C-6.8,-15.8,-6.5,-18.1,-6.3,-20.4C-6,-22.7,-5.7,-25,-5.4,-27.3C-5.1,-29.6,-4.8,-31.9,-4.5,-34.2C-4.2,-36.6,-3.9,-38.9,-3.5,-41.2C-3.2,-43.5,-2.8,-45.8,-2.5,-48.1C-2.1,-50.4,-1.7,-52.7,-1.3,-55C-0.9,-57.2,-0.5,-59.5,-0.1,-61.8C0.4,-64.1,0.8,-66.4,1.3,-68.6C1.8,-70.9,2.3,-73.2,2.9,-75.4C3.4,-77.7,4,-80,4.6,-82.2C5.2,-84.4,5.8,-86.7,6.5,-88.9C7.2,-91.1,7.9,-93.3,8.6,-95.5C9.4,-97.7,10.2,-99.9,11,-102C11.9,-104.2,12.8,-106.3,13.8,-108.4C14.7,-110.5,15.8,-112.6,16.9,-114.6C18,-116.7,19.1,-118.7,20.4,-120.6C21.6,-122.6,23,-124.4,24.4,-126.2C25.8,-128.1,27.3,-129.8,29,-131.4C30.6,-133.1,32.3,-134.6,34.1,-136C36,-137.4,37.9,-138.7,39.9,-139.8C41.9,-140.9,44,-141.9,46.1,-142.7C48.3,-143.5,50.4,-144.1,52.8,-144.6C55.2,-145.1,57.8,-145.4,59.6,-145.5C61.4,-145.7,62.3,-145.7,63.2,-145.7C63.6,-145.7,63.8,-145.9,63.8,-146.2C63.8,-146.5,63.6,-146.7,63.2,-146.7C62.3,-146.7,61.4,-146.7,59.6,-146.6C57.7,-146.5,55,-146.2,52.6,-145.7C50.1,-145.3,47.9,-144.6,45.7,-143.9C43.5,-143.1,41.3,-142.1,39.2,-141C37.2,-139.8,35.2,-138.5,33.3,-137.1C31.4,-135.7,29.6,-134.2,27.9,-132.5C26.2,-130.8,24.6,-129.1,23.1,-127.3C21.6,-125.4,20.3,-123.5,18.9,-121.6C17.6,-119.6,16.4,-117.6,15.3,-115.5C14.1,-113.5,13.1,-111.4,12,-109.2C11,-107.1,10.1,-105,9.2,-102.8C8.3,-100.6,7.5,-98.4,6.7,-96.2C5.9,-94,5.1,-91.8,4.4,-89.5C3.7,-87.3,3,-85.1,2.4,-82.8C1.8,-80.5,1.1,-78.3,0.6,-76C-0,-73.7,-0.5,-71.5,-1.1,-69.2C-1.6,-66.9,-2.1,-64.6,-2.6,-62.3C-3,-60,-3.5,-57.7,-3.9,-55.4C-4.4,-53.1,-4.8,-50.8,-5.2,-48.5C-5.6,-46.2,-6,-43.9,-6.3,-41.6C-6.7,-39.3,-7.1,-37,-7.4,-34.7C-7.7,-32.3,-8.1,-30,-8.4,-27.7C-8.7,-25.4,-9,-23.1,-9.3,-20.8C-9.7,-18.5,-10,-16.1,-10.2,-13.8C-10.5,-11.5,-10.8,-9.2,-11.1,-6.9C-11.4,-4.5,-11.7,-2.2,-11.9,0.1C-12.2,2.4,-12.5,4.7,-12.7,7.1C-13,9.4,-13.3,11.7,-13.5,14C-13.8,16.3,-14.1,18.6,-14.3,21C-14.6,23.3,-14.9,25.6,-15.1,27.9C-15.4,30.2,-15.7,32.5,-15.9,34.9C-16.2,37.2,-16.5,39.5,-16.8,41.8C-17.1,44.1,-17.4,46.4,-17.7,48.7C-18,51,-18.3,53.3,-18.6,55.7C-18.9,58,-19.3,60.3,-19.6,62.6C-19.9,64.9,-20.3,67.2,-20.7,69.5C-21,71.7,-21.4,74,-21.8,76.3C-22.2,78.6,-22.7,80.9,-23.1,83.2C-23.6,85.4,-24,87.7,-24.5,90C-25,92.2,-25.6,94.5,-26.1,96.7C-26.7,98.9,-27.3,101.2,-27.9,103.4C-28.6,105.6,-29.3,107.8,-30,109.9C-30.8,112.1,-31.6,114.2,-32.4,116.4z" stroke-linejoin="round" transform="matrix(1,0,0,1,151,334)" ed:parentid="101" fill="#5fb7f1" id="105" stroke="#5fb7f1" ed:tosuperid="104" stroke-linecap="round"/><path d="M-28.9,71.6C-29.7,73.2,-29.2,74.8,-27.9,75.4C-26.7,76,-25.1,75.4,-24.4,73.7C-23.5,71.5,-22.5,69.3,-21.6,67.1C-20.8,64.9,-20,62.7,-19.2,60.4C-18.5,58.2,-17.8,55.9,-17.1,53.7C-16.4,51.4,-15.8,49.2,-15.2,46.9C-14.6,44.6,-14,42.4,-13.4,40.1C-12.8,37.8,-12.3,35.5,-11.8,33.2C-11.2,31,-10.7,28.7,-10.2,26.4C-9.7,24.1,-9.2,21.8,-8.7,19.5C-8.2,17.2,-7.8,15,-7.3,12.7C-6.8,10.4,-6.3,8.1,-5.8,5.8C-5.4,3.5,-4.9,1.3,-4.4,-1C-3.9,-3.3,-3.4,-5.6,-2.9,-7.9C-2.4,-10.1,-1.9,-12.4,-1.4,-14.7C-0.9,-16.9,-0.4,-19.2,0.2,-21.5C0.7,-23.7,1.3,-26,1.9,-28.2C2.4,-30.5,3,-32.7,3.7,-35C4.3,-37.2,4.9,-39.4,5.6,-41.7C6.3,-43.9,7,-46.1,7.8,-48.3C8.5,-50.5,9.3,-52.6,10.1,-54.8C11,-57,11.9,-59.1,12.8,-61.2C13.7,-63.3,14.7,-65.4,15.7,-67.5C16.8,-69.6,17.9,-71.6,19.1,-73.6C20.3,-75.5,21.6,-77.5,22.9,-79.3C24.3,-81.2,25.7,-83,27.2,-84.7C28.8,-86.4,30.4,-88,32.1,-89.5C33.9,-91,35.7,-92.4,37.6,-93.7C39.6,-94.9,41.6,-96,43.7,-96.9C45.8,-97.9,47.9,-98.6,50.2,-99.3C52.4,-99.9,54.8,-100.3,57,-100.6C59.2,-100.8,61.2,-100.9,63.2,-101C63.6,-101,63.8,-101.2,63.8,-101.5C63.8,-101.8,63.6,-102,63.2,-102C61.2,-102,59.1,-101.9,56.8,-101.7C54.6,-101.5,52.2,-101,49.9,-100.5C47.6,-99.9,45.3,-99.1,43.1,-98.2C41,-97.3,38.9,-96.2,36.8,-95C34.8,-93.7,32.9,-92.3,31.1,-90.8C29.2,-89.3,27.5,-87.6,25.9,-85.9C24.3,-84.2,22.8,-82.4,21.4,-80.5C19.9,-78.6,18.6,-76.6,17.3,-74.6C16.1,-72.6,14.9,-70.6,13.8,-68.5C12.7,-66.4,11.7,-64.3,10.7,-62.2C9.7,-60.1,8.7,-57.9,7.9,-55.7C7,-53.5,6.1,-51.3,5.3,-49.1C4.5,-46.9,3.8,-44.7,3,-42.5C2.3,-40.3,1.6,-38,0.9,-35.8C0.2,-33.5,-0.4,-31.3,-1,-29C-1.7,-26.8,-2.3,-24.5,-2.9,-22.2C-3.4,-20,-4,-17.7,-4.6,-15.4C-5.2,-13.2,-5.7,-10.9,-6.2,-8.6C-6.8,-6.3,-7.3,-4.1,-7.8,-1.8C-8.4,0.5,-8.9,2.8,-9.4,5C-9.9,7.3,-10.5,9.6,-11,11.9C-11.5,14.1,-12,16.4,-12.6,18.7C-13.1,20.9,-13.6,23.2,-14.2,25.5C-14.7,27.7,-15.3,30,-15.8,32.2C-16.4,34.5,-17,36.8,-17.6,39C-18.2,41.2,-18.8,43.5,-19.5,45.7C-20.1,47.9,-20.8,50.1,-21.5,52.3C-22.2,54.5,-22.9,56.7,-23.7,58.9C-24.5,61.1,-25.3,63.2,-26.2,65.3C-27,67.4,-28,69.5,-28.9,71.6z" stroke-linejoin="round" transform="matrix(1,0,0,1,151,379)" ed:parentid="101" fill="#ffcd55" id="107" stroke="#ffcd55" ed:tosuperid="106" stroke-linecap="round"/><path d="M-12.2,8.8C-13.6,9.9,-13.7,11.6,-12.8,12.6C-11.9,13.7,-10.2,13.8,-8.9,12.5C-7.2,10.9,-5.5,9.3,-3.8,7.7C-2.1,6,-0.5,4.4,1.2,2.7C2.8,1.1,4.5,-0.6,6.1,-2.2C7.8,-3.9,9.4,-5.5,11.1,-7.1C12.8,-8.7,14.5,-10.3,16.2,-11.8C17.9,-13.4,19.7,-14.9,21.5,-16.3C23.2,-17.8,25.1,-19.2,27,-20.5C28.9,-21.8,30.8,-23,32.8,-24.2C34.8,-25.3,36.8,-26.4,38.9,-27.3C41,-28.2,43.2,-29.1,45.3,-29.8C47.5,-30.5,49.7,-31,52,-31.5C54.4,-31.9,57,-32.3,58.9,-32.5C60.8,-32.6,62,-32.7,63.2,-32.7C63.6,-32.7,63.8,-32.9,63.8,-33.2C63.8,-33.5,63.6,-33.7,63.2,-33.7C62,-33.7,60.8,-33.8,58.8,-33.7C56.9,-33.6,54.2,-33.3,51.8,-33C49.3,-32.6,47.1,-32.1,44.8,-31.5C42.6,-30.9,40.3,-30.2,38.1,-29.3C35.9,-28.4,33.7,-27.4,31.6,-26.3C29.5,-25.3,27.4,-24.1,25.4,-22.8C23.4,-21.5,21.5,-20.2,19.6,-18.8C17.7,-17.4,15.8,-15.9,14,-14.4C12.1,-13,10.4,-11.4,8.6,-9.9C6.8,-8.3,5.1,-6.8,3.3,-5.2C1.6,-3.6,-0.1,-2,-1.8,-0.4C-3.5,1.1,-5.3,2.7,-7,4.2C-8.7,5.8,-10.5,7.3,-12.2,8.8z" stroke-linejoin="round" transform="matrix(1,0,0,1,151,447)" ed:parentid="101" fill="#f1a3dc" id="109" stroke="#f1a3dc" ed:tosuperid="108" stroke-linecap="round"/><path d="M-26.8,-101.5C-27.4,-103.2,-29,-103.8,-30.2,-103.3C-31.5,-102.8,-32.1,-101.2,-31.4,-99.6C-30.5,-97.5,-29.7,-95.3,-28.9,-93.2C-28.1,-91,-27.4,-88.9,-26.7,-86.7C-26,-84.5,-25.4,-82.2,-24.8,-80C-24.2,-77.8,-23.6,-75.5,-23.1,-73.3C-22.5,-71,-22,-68.8,-21.5,-66.5C-21.1,-64.3,-20.6,-62,-20.1,-59.7C-19.7,-57.4,-19.3,-55.1,-18.9,-52.9C-18.4,-50.6,-18,-48.3,-17.6,-46C-17.3,-43.7,-16.9,-41.4,-16.5,-39.1C-16.1,-36.8,-15.8,-34.5,-15.4,-32.2C-15.1,-29.9,-14.7,-27.6,-14.4,-25.3C-14,-23,-13.7,-20.7,-13.4,-18.4C-13,-16,-12.7,-13.7,-12.3,-11.4C-12,-9.1,-11.7,-6.8,-11.3,-4.5C-11,-2.2,-10.6,0.1,-10.3,2.4C-9.9,4.7,-9.6,7,-9.2,9.4C-8.9,11.7,-8.5,14,-8.1,16.3C-7.8,18.6,-7.4,20.9,-7,23.2C-6.6,25.5,-6.2,27.8,-5.8,30.1C-5.4,32.4,-4.9,34.7,-4.5,37C-4,39.3,-3.6,41.6,-3.1,43.9C-2.6,46.2,-2.1,48.5,-1.6,50.8C-1.1,53,-0.5,55.3,0,57.6C0.6,59.9,1.2,62.1,1.8,64.4C2.5,66.6,3.1,68.9,3.8,71.1C4.5,73.4,5.3,75.6,6,77.8C6.8,80,7.6,82.2,8.5,84.4C9.4,86.6,10.3,88.8,11.3,90.9C12.3,93,13.3,95.2,14.4,97.2C15.5,99.3,16.7,101.4,18,103.3C19.2,105.3,20.6,107.3,22,109.1C23.5,111,25,112.8,26.6,114.5C28.3,116.2,30,117.8,31.8,119.3C33.7,120.8,35.6,122.2,37.7,123.4C39.7,124.6,41.9,125.6,44.1,126.5C46.2,127.4,48.4,128.1,50.8,128.6C53.2,129.2,55.7,129.5,57.8,129.7C59.9,129.9,61.6,129.9,63.2,129.9C63.6,129.9,63.8,129.7,63.8,129.4C63.8,129.2,63.6,128.9,63.2,128.9C61.6,128.9,60,128.9,57.9,128.6C55.9,128.4,53.4,128,51.1,127.5C48.8,126.9,46.6,126.2,44.5,125.3C42.4,124.4,40.4,123.4,38.4,122.2C36.4,121,34.6,119.6,32.8,118.2C31,116.7,29.4,115.1,27.8,113.4C26.2,111.7,24.8,110,23.4,108.1C22,106.3,20.7,104.3,19.5,102.4C18.3,100.4,17.2,98.4,16.1,96.3C15.1,94.3,14.1,92.2,13.1,90.1C12.2,88,11.3,85.8,10.5,83.6C9.7,81.5,8.9,79.3,8.2,77.1C7.4,74.9,6.7,72.7,6.1,70.5C5.4,68.2,4.8,66,4.2,63.7C3.6,61.5,3.1,59.2,2.5,57C2,54.7,1.5,52.4,1,50.2C0.5,47.9,0.1,45.6,-0.4,43.3C-0.8,41.1,-1.2,38.8,-1.6,36.5C-2.1,34.2,-2.5,31.9,-2.8,29.6C-3.2,27.3,-3.6,25,-3.9,22.7C-4.3,20.4,-4.6,18.1,-5,15.8C-5.3,13.5,-5.6,11.2,-6,8.9C-6.3,6.6,-6.6,4.3,-6.9,1.9C-7.2,-0.4,-7.5,-2.7,-7.8,-5C-8.1,-7.3,-8.5,-9.6,-8.8,-11.9C-9.1,-14.2,-9.4,-16.6,-9.7,-18.9C-10,-21.2,-10.3,-23.5,-10.6,-25.8C-10.9,-28.1,-11.2,-30.4,-11.5,-32.8C-11.9,-35.1,-12.2,-37.4,-12.5,-39.7C-12.8,-42,-13.2,-44.3,-13.5,-46.6C-13.9,-49,-14.3,-51.3,-14.7,-53.6C-15,-55.9,-15.4,-58.2,-15.9,-60.5C-16.3,-62.8,-16.7,-65.1,-17.2,-67.4C-17.6,-69.7,-18.1,-72,-18.6,-74.3C-19.1,-76.6,-19.7,-78.9,-20.3,-81.2C-20.8,-83.5,-21.5,-85.8,-22.1,-88C-22.8,-90.3,-23.5,-92.6,-24.3,-94.8C-25,-97.1,-25.9,-99.3,-26.8,-101.5z" stroke-linejoin="round" transform="matrix(1,0,0,1,151,610)" ed:parentid="101" fill="#6cc9e5" id="111" stroke="#6cc9e5" ed:tosuperid="110" stroke-linecap="round"/><path stroke-width="2" stroke-linejoin="round" d="M-13.5,10.2C-0.3,10.2,-0.1,-10.2,13.5,-10.2" transform="matrix(1,0,0,1,327,178)" ed:parentid="104" fill="none" id="113" stroke="#5fb7f1" ed:tosuperid="112" stroke-linecap="round"/><path stroke-width="2" stroke-linejoin="round" d="M-13.5,-5.5C-1.4,-5.5,2.4,5.5,13.5,5.5" transform="matrix(1,0,0,1,327,194)" ed:parentid="104" fill="none" id="115" stroke="#5fb7f1" ed:tosuperid="114" stroke-linecap="round"/><path stroke-width="2" stroke-linejoin="round" d="M-13.5,0C-2.7,0,5.4,0,13.5,0" transform="matrix(1,0,0,1,454,168)" ed:parentid="112" fill="none" id="117" stroke="#5fb7f1" ed:tosuperid="116" stroke-linecap="round"/><path stroke-width="2" stroke-linejoin="round" d="M-13.5,0C-2.7,0,5.4,0,13.5,0" transform="matrix(1,0,0,1,454,199)" ed:parentid="114" fill="none" id="119" stroke="#5fb7f1" ed:tosuperid="118" stroke-linecap="round"/><path stroke-width="2" stroke-linejoin="round" d="M-13.5,10.2C-0.3,10.2,-0.1,-10.2,13.5,-10.2" transform="matrix(1,0,0,1,327,73)" ed:parentid="102" fill="none" id="121" stroke="#ff7575" ed:tosuperid="120" stroke-linecap="round"/><path stroke-width="2" stroke-linejoin="round" d="M-13.5,-13.4C0.4,-13.4,-1.8,13.4,13.5,13.4" transform="matrix(1,0,0,1,327,96)" ed:parentid="102" fill="none" id="123" stroke="#ff7575" ed:tosuperid="122" stroke-linecap="round"/><path stroke-width="2" stroke-linejoin="round" d="M-13.5,10.2C-0.3,10.2,-0.1,-10.2,13.5,-10.2" transform="matrix(1,0,0,1,327,267)" ed:parentid="106" fill="none" id="125" stroke="#ffcd55" ed:tosuperid="124" stroke-linecap="round"/><path stroke-width="2" stroke-linejoin="round" d="M-13.5,-5.5C-1.4,-5.5,2.4,5.5,13.5,5.5" transform="matrix(1,0,0,1,327,283)" ed:parentid="106" fill="none" id="127" stroke="#ffcd55" ed:tosuperid="126" stroke-linecap="round"/><path stroke-width="2" stroke-linejoin="round" d="M-13.5,0C-2.7,0,5.4,0,13.5,0" transform="matrix(1,0,0,1,427,257)" ed:parentid="124" fill="none" id="129" stroke="#ffcd55" ed:tosuperid="128" stroke-linecap="round"/><path stroke-width="2" stroke-linejoin="round" d="M-13.5,25.9C2.8,25.9,-7.5,-25.9,13.5,-25.9" transform="matrix(1,0,0,1,327,388)" ed:parentid="108" fill="none" id="135" stroke="#f1a3dc" ed:tosuperid="134" stroke-linecap="round"/><path stroke-width="2" stroke-linejoin="round" d="M-13.5,-29.1C3.4,-29.1,-8.8,29.1,13.5,29.1" transform="matrix(1,0,0,1,327,443)" ed:parentid="108" fill="none" id="139" stroke="#f1a3dc" ed:tosuperid="138" stroke-linecap="round"/><path stroke-width="2" stroke-linejoin="round" d="M-13.5,7.9C-0.9,7.9,1.1,-7.9,13.5,-7.9" transform="matrix(1,0,0,1,427,354)" ed:parentid="134" fill="none" id="141" stroke="#f1a3dc" ed:tosuperid="140" stroke-linecap="round"/><path stroke-width="2" stroke-linejoin="round" d="M-13.5,-7.9C-0.9,-7.9,1.1,7.9,13.5,7.9" transform="matrix(1,0,0,1,427,370)" ed:parentid="134" fill="none" id="143" stroke="#f1a3dc" ed:tosuperid="142" stroke-linecap="round"/><path stroke-width="2" stroke-linejoin="round" d="M-13.5,0C-2.7,0,5.4,0,13.5,0" transform="matrix(1,0,0,1,472,593)" ed:parentid="150" fill="none" id="153" stroke="#6cc9e5" ed:tosuperid="152" stroke-linecap="round"/><path stroke-width="2" stroke-linejoin="round" d="M-13.5,2.4C-2.1,2.4,4.1,-2.4,13.5,-2.4" transform="matrix(1,0,0,1,327,412)" ed:parentid="108" fill="none" id="157" stroke="#f1a3dc" ed:tosuperid="156" stroke-linecap="round"/><path stroke-width="2" stroke-linejoin="round" d="M-13.5,96.7C5.4,96.7,-13.5,-96.7,13.5,-96.7" transform="matrix(1,0,0,1,359,643)" ed:parentid="110" fill="none" id="158" stroke="#6cc9e5" ed:tosuperid="148" stroke-linecap="round"/><path stroke-width="2" stroke-linejoin="round" d="M-13.5,73.1C5.4,73.1,-13.5,-73.1,13.5,-73.1" transform="matrix(1,0,0,1,359,666)" ed:parentid="110" fill="none" id="159" stroke="#6cc9e5" ed:tosuperid="150" stroke-linecap="round"/><path stroke-width="2" stroke-linejoin="round" d="M-13.5,57.4C5.4,57.4,-13.5,-57.4,13.5,-57.4" transform="matrix(1,0,0,1,359,682)" ed:parentid="110" fill="none" id="160" stroke="#6cc9e5" ed:tosuperid="154" stroke-linecap="round"/><path stroke-width="2" stroke-linejoin="round" d="M-13.5,-5.5C-1.4,-5.5,2.4,5.5,13.5,5.5" transform="matrix(1,0,0,1,359,745)" ed:parentid="110" fill="none" id="162" stroke="#6cc9e5" ed:tosuperid="161" stroke-linecap="round"/><path stroke-width="2" stroke-linejoin="round" d="M-13.5,-21.2C2,-21.2,-5.5,21.2,13.5,21.2" transform="matrix(1,0,0,1,359,761)" ed:parentid="110" fill="none" id="164" stroke="#6cc9e5" ed:tosuperid="163" stroke-linecap="round"/><path stroke-width="2" stroke-linejoin="round" d="M-13.5,-37C4.4,-37,-11.2,37,13.5,37" transform="matrix(1,0,0,1,359,776)" ed:parentid="110" fill="none" id="167" stroke="#6cc9e5" ed:tosuperid="166" stroke-linecap="round"/><path stroke-width="2" stroke-linejoin="round" d="M-13.5,10.2C-0.3,10.2,-0.1,-10.2,13.5,-10.2" transform="matrix(1,0,0,1,359,729)" ed:parentid="110" fill="none" id="169" stroke="#6cc9e5" ed:tosuperid="168" stroke-linecap="round"/><path stroke-width="2" stroke-linejoin="round" d="M-13.5,-52.7C5.4,-52.7,-13.5,52.7,13.5,52.7" transform="matrix(1,0,0,1,359,792)" ed:parentid="110" fill="none" id="171" stroke="#6cc9e5" ed:tosuperid="170" stroke-linecap="round"/><path stroke-width="2" stroke-linejoin="round" d="M-13.5,-68.4C5.4,-68.4,-13.5,68.4,13.5,68.4" transform="matrix(1,0,0,1,359,808)" ed:parentid="110" fill="none" id="173" stroke="#6cc9e5" ed:tosuperid="172" stroke-linecap="round"/><path stroke-width="2" stroke-linejoin="round" d="M-13.5,0C-2.7,0,5.4,0,13.5,0" transform="matrix(1,0,0,1,486,845)" ed:parentid="170" fill="none" id="175" stroke="#6cc9e5" ed:tosuperid="174" stroke-linecap="round"/><path stroke-width="2" stroke-linejoin="round" d="M-13.5,7.9C-0.9,7.9,1.1,-7.9,13.5,-7.9" transform="matrix(1,0,0,1,459,538)" ed:parentid="148" fill="none" id="177" stroke="#6cc9e5" ed:tosuperid="176" stroke-linecap="round"/><path stroke-width="2" stroke-linejoin="round" d="M-13.5,-7.9C-0.9,-7.9,1.1,7.9,13.5,7.9" transform="matrix(1,0,0,1,459,554)" ed:parentid="148" fill="none" id="179" stroke="#6cc9e5" ed:tosuperid="178" stroke-linecap="round"/><path stroke-width="2" stroke-linejoin="round" d="M-13.5,41.7C4.9,41.7,-12.3,-41.7,13.5,-41.7" transform="matrix(1,0,0,1,359,698)" ed:parentid="110" fill="none" id="181" stroke="#6cc9e5" ed:tosuperid="180" stroke-linecap="round"/><path stroke-width="2" stroke-linejoin="round" d="M-13.5,0C-2.7,0,5.4,0,13.5,0" transform="matrix(1,0,0,1,440,472)" ed:parentid="138" fill="none" id="183" stroke="#f1a3dc" ed:tosuperid="182" stroke-linecap="round"/><path stroke-width="2" stroke-linejoin="round" d="M-13.5,-13.4C0.4,-13.4,-1.8,13.4,13.5,13.4" transform="matrix(1,0,0,1,327,428)" ed:parentid="108" fill="none" id="185" stroke="#f1a3dc" ed:tosuperid="184" stroke-linecap="round"/><path stroke-width="2" stroke-linejoin="round" d="M-13.5,25.9C2.8,25.9,-7.5,-25.9,13.5,-25.9" transform="matrix(1,0,0,1,359,714)" ed:parentid="110" fill="none" id="187" stroke="#6cc9e5" ed:tosuperid="186" stroke-linecap="round"/><path stroke-width="2" stroke-linejoin="round" d="M-13.5,-99.9C5.4,-99.9,-13.5,99.9,13.5,99.9" transform="matrix(1,0,0,1,359,839)" ed:parentid="110" fill="none" id="189" stroke="#6cc9e5" ed:tosuperid="188" stroke-linecap="round"/><path stroke-width="2" stroke-linejoin="round" d="M-13.5,-84.1C5.4,-84.1,-13.5,84.1,13.5,84.1" transform="matrix(1,0,0,1,359,824)" ed:parentid="110" fill="none" id="191" stroke="#6cc9e5" ed:tosuperid="190" stroke-linecap="round"/><path stroke-width="2" stroke-linejoin="round" d="M-13.5,0C-2.7,0,5.4,0,13.5,0" transform="matrix(1,0,0,1,486,908)" ed:parentid="190" fill="none" id="193" stroke="#6cc9e5" ed:tosuperid="192" stroke-linecap="round"/><path stroke-width="2" stroke-linejoin="round" d="M-13.5,1.6C-2.3,1.6,4.5,-1.6,13.5,-1.6" transform="matrix(1,0,0,1,757,169)" ed:parentid="199" fill="none" id="201" stroke="#5fb7f1" ed:tosuperid="200" stroke-linecap="round"/><path stroke-width="2" stroke-linejoin="round" d="M-13.5,-14.1C0.5,-14.1,-2.1,14.1,13.5,14.1" transform="matrix(1,0,0,1,757,185)" ed:parentid="199" fill="none" id="203" stroke="#5fb7f1" ed:tosuperid="202" stroke-linecap="round"/><path stroke-width="2" stroke-linejoin="round" d="M-13.5,7.9C-0.9,7.9,1.1,-7.9,13.5,-7.9" transform="matrix(1,0,0,1,470,55)" ed:parentid="120" fill="none" id="205" stroke="#ff7575" ed:tosuperid="204" stroke-linecap="round"/><path stroke-width="2" stroke-linejoin="round" d="M-13.5,-7.9C-0.9,-7.9,1.1,7.9,13.5,7.9" transform="matrix(1,0,0,1,470,71)" ed:parentid="120" fill="none" id="207" stroke="#ff7575" ed:tosuperid="206" stroke-linecap="round"/><g ed:layout="rightmap" transform="matrix(1,0,0,1,24,452)" id="101" ed:topictype="mainidea" ed:width="126.976" ed:height="57.8"><path stroke-width="4" d="M28.9,0L98.1,0C114,0,127,12.9,127,28.9C127,44.9,114,57.8,98.1,57.8L28.9,57.8C12.9,57.8,0,44.9,0,28.9C0,12.9,12.9,0,28.9,0z" stroke-linejoin="round" fill="#ffffff" stroke="#ffffff"/><text class="st1"><tspan y="35.6" style="white-space:pre" x="25">图像分割</tspan></text></g><g transform="matrix(1,0,0,1,214,49)" ed:parentid="101" id="102" ed:width="100" ed:height="34.35"><path stroke-width="2" stroke-linejoin="round" d="M0,34.4L100,34.4" fill="none" stroke="#ff7575"/><text class="st2"><tspan y="22" style="white-space:pre" x="17">阈值分割</tspan></text></g><g transform="matrix(1,0,0,1,214,154)" ed:parentid="101" id="104" ed:width="100" ed:height="34.35"><path stroke-width="2" stroke-linejoin="round" d="M0,34.4L100,34.4" fill="none" stroke="#5fb7f1"/><text class="st3"><tspan y="22" style="white-space:pre" x="17">边缘分割</tspan></text></g><g transform="matrix(1,0,0,1,214,243)" ed:parentid="101" id="106" ed:width="100" ed:height="34.35"><path stroke-width="2" stroke-linejoin="round" d="M0,34.4L100,34.4" fill="none" stroke="#ffcd55"/><text class="st3"><tspan y="22" style="white-space:pre" x="17">区域分割</tspan></text></g><g transform="matrix(1,0,0,1,214,380)" ed:parentid="101" id="108" ed:width="100" ed:height="34.35"><path stroke-width="2" stroke-linejoin="round" d="M0,34.4L100,34.4" fill="none" stroke="#f1a3dc"/><text class="st3"><tspan y="22" style="white-space:pre" x="17">聚类分割</tspan></text></g><g transform="matrix(1,0,0,1,214,705)" ed:parentid="101" id="110" ed:width="132" ed:height="34.35"><path stroke-width="2" stroke-linejoin="round" d="M0,34.4L132,34.4" fill="none" stroke="#6cc9e5"/><text class="st3"><tspan y="22" style="white-space:pre" x="17">特定理论分割</tspan></text></g><g transform="matrix(1,0,0,1,341,143)" ed:parentid="104" id="112" ed:width="99.59999999999999" ed:height="24.95"><path stroke-width="2" stroke-linejoin="round" d="M0,24.9L99.6,24.9" fill="none" stroke="#5fb7f1"/><text class="st4"><tspan y="16" style="white-space:pre" x="8">串行边缘检测</tspan></text></g><g transform="matrix(1,0,0,1,341,174)" ed:parentid="104" id="114" ed:width="99.59999999999999" ed:height="24.95"><path stroke-width="2" stroke-linejoin="round" d="M0,24.9L99.6,24.9" fill="none" stroke="#5fb7f1"/><text class="st5"><tspan y="16" style="white-space:pre" x="8">并行边缘检测</tspan></text></g><g transform="matrix(1,0,0,1,468,143)" ed:parentid="112" id="116" ed:width="154" ed:height="24.95"><path stroke-width="2" stroke-linejoin="round" d="M0,24.9L154,24.9" fill="none" stroke="#5fb7f1"/><text class="st4"><tspan y="16" style="white-space:pre" x="8">指定种子点按规则搜索</tspan></text></g><g transform="matrix(1,0,0,1,468,174)" ed:parentid="114" id="118" ed:width="140.4" ed:height="24.95"><path stroke-width="2" stroke-linejoin="round" d="M0,24.9L140.4,24.9" fill="none" stroke="#5fb7f1"/><text class="st4"><tspan y="16" style="white-space:pre" x="8">与微分算子进行卷积</tspan></text></g><g transform="matrix(1,0,0,1,341,38)" ed:parentid="102" id="120" ed:width="115.6" ed:height="24.95"><path stroke-width="2" stroke-linejoin="round" d="M0,24.9L115.6,24.9" fill="none" stroke="#ff7575"/><text class="st4"><tspan y="16" style="white-space:pre" x="8">全局阈值(Ostu)</tspan></text></g><g transform="matrix(1,0,0,1,341,85)" ed:parentid="102" id="122" ed:width="72.40000000000001" ed:height="24.95"><path stroke-width="2" stroke-linejoin="round" d="M0,24.9L72.4,24.9" fill="none" stroke="#ff7575"/><text class="st4"><tspan y="16" style="white-space:pre" x="8">可变阈值</tspan></text></g><g transform="matrix(1,0,0,1,341,232)" ed:parentid="106" id="124" ed:width="72.40000000000001" ed:height="24.95"><path stroke-width="2" stroke-linejoin="round" d="M0,24.9L72.4,24.9" fill="none" stroke="#ffcd55"/><text class="st5"><tspan y="16" style="white-space:pre" x="8">区域生长</tspan></text></g><g transform="matrix(1,0,0,1,341,264)" ed:parentid="106" id="126" ed:width="113.2" ed:height="24.95"><path stroke-width="2" stroke-linejoin="round" d="M0,24.9L113.2,24.9" fill="none" stroke="#ffcd55"/><text class="st5"><tspan y="16" style="white-space:pre" x="8">区域分离与聚合</tspan></text></g><g transform="matrix(1,0,0,1,440,232)" ed:parentid="124" id="128" ed:width="72.40000000000001" ed:height="24.95"><path stroke-width="2" stroke-linejoin="round" d="M0,24.9L72.4,24.9" fill="none" stroke="#ffcd55"/><text class="st4"><tspan y="16" style="white-space:pre" x="8">漫水填充</tspan></text></g><g transform="matrix(1,0,0,1,341,337)" ed:parentid="108" id="134" ed:width="72.40000000000001" ed:height="24.95"><path stroke-width="2" stroke-linejoin="round" d="M0,24.9L72.4,24.9" fill="none" stroke="#f1a3dc"/><text class="st4"><tspan y="16" style="white-space:pre" x="8">划分聚类</tspan></text></g><g transform="matrix(1,0,0,1,341,447)" ed:parentid="108" id="138" ed:width="86" ed:height="24.95"><path stroke-width="2" stroke-linejoin="round" d="M0,24.9L86,24.9" fill="none" stroke="#f1a3dc"/><text class="st4"><tspan y="16" style="white-space:pre" x="8">超像素分割</tspan></text></g><g transform="matrix(1,0,0,1,440,322)" ed:parentid="134" id="140" ed:width="78" ed:height="24.95"><path stroke-width="2" stroke-linejoin="round" d="M0,24.9L78,24.9" fill="none" stroke="#f1a3dc"/><text class="st5"><tspan y="16" style="white-space:pre" x="8">K-means</tspan></text></g><g transform="matrix(1,0,0,1,440,353)" ed:parentid="134" id="142" ed:width="104.4" ed:height="24.95"><path stroke-width="2" stroke-linejoin="round" d="M0,24.9L104.4,24.9" fill="none" stroke="#f1a3dc"/><text class="st4"><tspan y="16" style="white-space:pre" x="8">模糊C-means</tspan></text></g><g transform="matrix(1,0,0,1,373,521)" ed:parentid="110" id="148" ed:width="72.40000000000001" ed:height="24.95"><path stroke-width="2" stroke-linejoin="round" d="M0,24.9L72.4,24.9" fill="none" stroke="#6cc9e5"/><text class="st5"><tspan y="16" style="white-space:pre" x="8">图论分割</tspan></text></g><g transform="matrix(1,0,0,1,373,568)" ed:parentid="110" id="150" ed:width="86" ed:height="24.95"><path stroke-width="2" stroke-linejoin="round" d="M0,24.9L86,24.9" fill="none" stroke="#6cc9e5"/><text class="st4"><tspan y="16" style="white-space:pre" x="8">形态学分割</tspan></text></g><g transform="matrix(1,0,0,1,486,568)" ed:parentid="150" id="152" ed:width="58.8" ed:height="24.95"><path stroke-width="2" stroke-linejoin="round" d="M0,24.9L58.8,24.9" fill="none" stroke="#6cc9e5"/><text class="st5"><tspan y="16" style="white-space:pre" x="8">分水岭</tspan></text></g><g transform="matrix(1,0,0,1,373,600)" ed:parentid="110" id="154" ed:width="72.40000000000001" ed:height="24.95"><path stroke-width="2" stroke-linejoin="round" d="M0,24.9L72.4,24.9" fill="none" stroke="#6cc9e5"/><text class="st4"><tspan y="16" style="white-space:pre" x="8">小波分割</tspan></text></g><g transform="matrix(1,0,0,1,341,385)" ed:parentid="108" id="156" ed:width="119.6" ed:height="24.95"><path stroke-width="2" stroke-linejoin="round" d="M0,24.9L119.6,24.9" fill="none" stroke="#f1a3dc"/><text class="st4"><tspan y="16" style="white-space:pre" x="8">Mean-shift聚类</tspan></text></g><g transform="matrix(1,0,0,1,373,726)" ed:parentid="110" id="161" ed:width="86" ed:height="24.95"><path stroke-width="2" stroke-linejoin="round" d="M0,24.9L86,24.9" fill="none" stroke="#6cc9e5"/><text class="st4"><tspan y="16" style="white-space:pre" x="8">水平集分割</tspan></text></g><g transform="matrix(1,0,0,1,373,757)" ed:parentid="110" id="163" ed:width="86" ed:height="24.95"><path stroke-width="2" stroke-linejoin="round" d="M0,24.9L86,24.9" fill="none" stroke="#6cc9e5"/><text class="st4"><tspan y="16" style="white-space:pre" x="8">粗糙集分割</tspan></text></g><g transform="matrix(1,0,0,1,373,788)" ed:parentid="110" id="166" ed:width="113.2" ed:height="24.95"><path stroke-width="2" stroke-linejoin="round" d="M0,24.9L113.2,24.9" fill="none" stroke="#6cc9e5"/><text class="st4"><tspan y="16" style="white-space:pre" x="8">偏微分方程分割</tspan></text></g><g transform="matrix(1,0,0,1,373,694)" ed:parentid="110" id="168" ed:width="99.59999999999999" ed:height="24.95"><path stroke-width="2" stroke-linejoin="round" d="M0,24.9L99.6,24.9" fill="none" stroke="#6cc9e5"/><text class="st4"><tspan y="16" style="white-space:pre" x="8">分形理论分割</tspan></text></g><g transform="matrix(1,0,0,1,373,820)" ed:parentid="110" id="170" ed:width="99.59999999999999" ed:height="24.95"><path stroke-width="2" stroke-linejoin="round" d="M0,24.9L99.6,24.9" fill="none" stroke="#6cc9e5"/><text class="st4"><tspan y="16" style="white-space:pre" x="8">能量泛函分割</tspan></text></g><g transform="matrix(1,0,0,1,373,851)" ed:parentid="110" id="172" ed:width="99.59999999999999" ed:height="24.95"><path stroke-width="2" stroke-linejoin="round" d="M0,24.9L99.6,24.9" fill="none" stroke="#6cc9e5"/><text class="st4"><tspan y="16" style="white-space:pre" x="8">遗传算法分割</tspan></text></g><g transform="matrix(1,0,0,1,500,820)" ed:parentid="170" id="174" ed:width="58.8" ed:height="24.95"><path stroke-width="2" stroke-linejoin="round" d="M0,24.9L58.8,24.9" fill="none" stroke="#6cc9e5"/><text class="st4"><tspan y="16" style="white-space:pre" x="8">Snake</tspan></text></g><g transform="matrix(1,0,0,1,472,505)" ed:parentid="148" id="176" ed:width="86.8" ed:height="24.95"><path stroke-width="2" stroke-linejoin="round" d="M0,24.9L86.8,24.9" fill="none" stroke="#6cc9e5"/><text class="st4"><tspan y="16" style="white-space:pre" x="8">Graph Cut</tspan></text></g><g transform="matrix(1,0,0,1,472,537)" ed:parentid="148" id="178" ed:width="78" ed:height="24.95"><path stroke-width="2" stroke-linejoin="round" d="M0,24.9L78,24.9" fill="none" stroke="#6cc9e5"/><text class="st4"><tspan y="16" style="white-space:pre" x="8">Grab Cut</tspan></text></g><g transform="matrix(1,0,0,1,373,631)" ed:parentid="110" id="180" ed:width="99.59999999999999" ed:height="24.95"><path stroke-width="2" stroke-linejoin="round" d="M0,24.9L99.6,24.9" fill="none" stroke="#6cc9e5"/><text class="st4"><tspan y="16" style="white-space:pre" x="8">模糊理论分割</tspan></text></g><g transform="matrix(1,0,0,1,454,447)" ed:parentid="138" id="182" ed:width="46.8" ed:height="24.95"><path stroke-width="2" stroke-linejoin="round" d="M0,24.9L46.8,24.9" fill="none" stroke="#f1a3dc"/><text class="st5"><tspan y="16" style="white-space:pre" x="8">SLIC</tspan></text></g><g transform="matrix(1,0,0,1,341,416)" ed:parentid="108" id="184" ed:width="58.8" ed:height="24.95"><path stroke-width="2" stroke-linejoin="round" d="M0,24.9L58.8,24.9" fill="none" stroke="#f1a3dc"/><text class="st4"><tspan y="16" style="white-space:pre" x="8">谱聚类</tspan></text></g><g transform="matrix(1,0,0,1,373,663)" ed:parentid="110" id="186" ed:width="99.59999999999999" ed:height="24.95"><path stroke-width="2" stroke-linejoin="round" d="M0,24.9L99.6,24.9" fill="none" stroke="#6cc9e5"/><text class="st4"><tspan y="16" style="white-space:pre" x="8">统计理论分割</tspan></text></g><g transform="matrix(1,0,0,1,373,914)" ed:parentid="110" id="188" ed:width="99.59999999999999" ed:height="24.95"><path stroke-width="2" stroke-linejoin="round" d="M0,24.9L99.6,24.9" fill="none" stroke="#6cc9e5"/><text class="st4"><tspan y="16" style="white-space:pre" x="8">深度学习分割</tspan></text></g><g transform="matrix(1,0,0,1,373,883)" ed:parentid="110" id="190" ed:width="99.59999999999999" ed:height="24.95"><path stroke-width="2" stroke-linejoin="round" d="M0,24.9L99.6,24.9" fill="none" stroke="#6cc9e5"/><text class="st4"><tspan y="16" style="white-space:pre" x="8">机器学习分割</tspan></text></g><g transform="matrix(1,0,0,1,500,883)" ed:parentid="190" id="192" ed:width="49.2" ed:height="24.95"><path stroke-width="2" stroke-linejoin="round" d="M0,24.9L49.2,24.9" fill="none" stroke="#6cc9e5"/><text class="st4"><tspan y="16" style="white-space:pre" x="8">SVM</tspan></text></g><g ed:layout="rightmap" transform="matrix(1,0,0,1,648,156)" ed:parentid="198" id="199" ed:width="96.184" ed:height="29.2"><path d="M14.6,0L81.6,0C89.6,0,96.2,6.5,96.2,14.6C96.2,22.7,89.6,29.2,81.6,29.2L14.6,29.2C6.5,29.2,0,22.7,0,14.6C0,6.5,6.5,0,14.6,0z" stroke-linejoin="round" fill="#ffffff" stroke="#5fb7f1"/><text class="st4"><tspan y="18.5" style="white-space:pre" x="12">边缘后处理</tspan></text></g><g transform="matrix(1,0,0,1,771,143)" ed:parentid="199" id="200" ed:width="72.40000000000001" ed:height="24.95"><path stroke-width="2" stroke-linejoin="round" d="M0,24.9L72.4,24.9" fill="none" stroke="#5fb7f1"/><text class="st4"><tspan y="16" style="white-space:pre" x="8">连接断裂</tspan></text></g><g transform="matrix(1,0,0,1,771,174)" ed:parentid="199" id="202" ed:width="72.40000000000001" ed:height="24.95"><path stroke-width="2" stroke-linejoin="round" d="M0,24.9L72.4,24.9" fill="none" stroke="#5fb7f1"/><text class="st4"><tspan y="16" style="white-space:pre" x="8">剔除伪边</tspan></text></g><g transform="matrix(1,0,0,1,484,22)" ed:parentid="120" id="204" ed:width="58.8" ed:height="24.95"><path stroke-width="2" stroke-linejoin="round" d="M0,24.9L58.8,24.9" fill="none" stroke="#ff7575"/><text class="st4"><tspan y="16" style="white-space:pre" x="8">单阈值</tspan></text></g><g transform="matrix(1,0,0,1,484,53)" ed:parentid="120" id="206" ed:width="58.8" ed:height="24.95"><path stroke-width="2" stroke-linejoin="round" d="M0,24.9L58.8,24.9" fill="none" stroke="#ff7575"/><text class="st4"><tspan y="16" style="white-space:pre" x="8">多阈值</tspan></text></g><symbol id="plus"><path d="M11,6C11,8.8,8.8,11,6,11C3.2,11,1,8.8,1,6C1,3.2,3.2,1,6,1C8.8,1,11,3.2,11,6z" fill="url(#lg1)"/><path stroke-width="0.7" d="M11,6C11,8.8,8.8,11,6,11C3.2,11,1,8.8,1,6C1,3.2,3.2,1,6,1C8.8,1,11,3.2,11,6zM3,6L9,6M6,3L6,9" fill="none" stroke="#46a000"/></symbol><symbol id="minus"><path d="M11,6C11,8.8,8.8,11,6,11C3.2,11,1,8.8,1,6C1,3.2,3.2,1,6,1C8.8,1,11,3.2,11,6z" fill="url(#lg1)"/><path stroke-width="0.7" d="M11,6C11,8.8,8.8,11,6,11C3.2,11,1,8.8,1,6C1,3.2,3.2,1,6,1C8.8,1,11,3.2,11,6zM3,6L9,6" fill="none" stroke="#46a000"/></symbol><g transform="translate(152,475)" ed:togtopicid="101"><use xlink:href="#minus"/></g><g transform="translate(315,60)" ed:togtopicid="102"><use xlink:href="#minus"/></g><g transform="translate(315,165)" ed:togtopicid="104"><use xlink:href="#minus"/></g><g transform="translate(315,254)" ed:togtopicid="106"><use xlink:href="#minus"/></g><g transform="translate(315,391)" ed:togtopicid="108"><use xlink:href="#minus"/></g><g transform="translate(347,716)" ed:togtopicid="110"><use xlink:href="#minus"/></g><g transform="translate(442,149)" ed:togtopicid="112"><use xlink:href="#minus"/></g><g transform="translate(442,181)" ed:togtopicid="114"><use xlink:href="#minus"/></g><g transform="translate(458,44)" ed:togtopicid="120"><use xlink:href="#minus"/></g><g transform="translate(414,239)" ed:togtopicid="124"><use xlink:href="#minus"/></g><g transform="translate(414,344)" ed:togtopicid="134"><use xlink:href="#minus"/></g><g transform="translate(428,454)" ed:togtopicid="138"><use xlink:href="#minus"/></g><g transform="translate(446,528)" ed:togtopicid="148"><use xlink:href="#minus"/></g><g transform="translate(460,575)" ed:togtopicid="150"><use xlink:href="#minus"/></g><g transform="translate(474,826)" ed:togtopicid="170"><use xlink:href="#minus"/></g><g transform="translate(474,889)" ed:togtopicid="190"><use xlink:href="#minus"/></g><g transform="translate(745,165)" ed:togtopicid="199"><use xlink:href="#minus"/></g></svg>