<svg ed:hSpacing="30" xmlns:ev="http://www.w3.org/2001/xml-events" xmlns:xlink="http://www.w3.org/1999/xlink" width="577" ed:name="Page-1" id="page100" viewBox="0 0 577 254" xmlns="http://www.w3.org/2000/svg" height="254" ed:vSpacing="30" xmlns:ed="https://www.edrawsoft.com/xml/2017/SVGExtensions/"><style type="text/css"><![CDATA[
g[ed\:togtopicid],g[ed\:hyperlink],g[ed\:comment],g[ed\:note] {cursor:pointer;}
g[id] {-moz-user-select: none;-ms-user-select: none;user-select: none;}
svg text::selection,svg tspan::selection{background-color: #4285f4;color: #ffffff;fill: #ffffff;}
.st2 {fill:#454545;font-family:微软雅黑;font-size:10pt;font-weight:bold}
.st1 {fill:#454545;font-family:微软雅黑;font-size:14pt;font-weight:bold}
.st3 {fill:#ff0000;font-family:微软雅黑;font-size:10pt;font-weight:bold}
]]></style><defs><linearGradient x1="0%" y2="100%" y1="0%" id="lg1" x2="0%"><stop stop-color="#ffffff" offset="0"/><stop stop-color="#f0f5f0" offset="0.25"/><stop stop-color="#e1ebe1" offset="0.75"/><stop stop-color="#c8d7c8" offset="1"/></linearGradient></defs><rect width="577" fill="#fbfcfb" x="0" y="0" height="254"/><path stroke="#ff7575" stroke-linejoin="round" fill="none" id="216" transform="matrix(1,0,0,1,398,53)" ed:type="summary" ed:idlist="200,202,208" ed:parentid="200,202,208" d="M0.1,0C6,0,5.9,5.5,5.9,5.5L5.9,39.2C5.9,39.2,6.9,43.9,12,43.9C6.9,44.1,5.9,48.7,5.9,48.7L5.9,82.3C5.9,82.3,5.8,87.9,0,87.9"/><path ed:tosuperid="102" stroke-linecap="round" stroke="#ff7575" fill="#ff7575" stroke-linejoin="round" id="103" transform="matrix(1,0,0,1,151,112)" ed:parentid="101" d="M-3.4,-0.3C-5.1,0.3,-5.8,1.8,-5.3,3.1C-4.8,4.4,-3.3,5.1,-1.6,4.4C0.5,3.5,2.7,2.7,4.9,1.8C7,0.9,9.2,-0,11.3,-0.9C13.5,-1.8,15.7,-2.6,17.8,-3.5C20,-4.3,22.2,-5.1,24.3,-5.9C26.5,-6.7,28.7,-7.4,30.9,-8.1C33.1,-8.8,35.3,-9.5,37.6,-10.1C39.8,-10.6,42.1,-11.2,44.3,-11.6C46.6,-12.1,48.8,-12.5,51.2,-12.8C53.5,-13.2,56,-13.4,58.1,-13.6C60.1,-13.7,61.7,-13.8,63.2,-13.9C63.6,-13.9,63.8,-14.1,63.8,-14.4C63.8,-14.6,63.6,-14.9,63.2,-14.9C61.7,-14.9,60.1,-14.9,58,-14.9C56,-14.8,53.4,-14.7,51,-14.5C48.6,-14.3,46.3,-14.1,44,-13.7C41.7,-13.4,39.3,-13,37,-12.5C34.7,-12.1,32.4,-11.5,30.1,-11C27.8,-10.4,25.6,-9.7,23.3,-9.1C21,-8.4,18.8,-7.7,16.6,-7C14.3,-6.3,12.1,-5.5,9.9,-4.8C7.7,-4,5.5,-3.3,3.3,-2.5C1.1,-1.8,-1.2,-1,-3.4,-0.3z"/><path ed:tosuperid="160" stroke-linecap="round" stroke="#5fb7f1" fill="#5fb7f1" stroke-linejoin="round" id="161" transform="matrix(1,0,0,1,151,172)" ed:parentid="101" d="M-13.7,-21.9C-14.8,-23.3,-16.4,-23.5,-17.5,-22.6C-18.6,-21.7,-18.7,-20.1,-17.5,-18.7C-16,-16.9,-14.6,-15.2,-13.1,-13.4C-11.7,-11.6,-10.3,-9.7,-8.9,-7.9C-7.5,-6,-6.1,-4.1,-4.8,-2.2C-3.4,-0.4,-2,1.5,-0.6,3.4C0.7,5.3,2.1,7.2,3.5,9.1C4.9,11,6.4,12.8,7.8,14.7C9.3,16.5,10.8,18.3,12.3,20.1C13.8,21.9,15.4,23.7,17,25.4C18.7,27.1,20.4,28.8,22.1,30.4C23.9,31.9,25.7,33.5,27.6,34.9C29.5,36.3,31.5,37.6,33.5,38.9C35.6,40.1,37.7,41.2,39.9,42.1C42,43,44.3,43.8,46.6,44.5C48.8,45.1,51,45.6,53.5,46C56,46.3,58.9,46.5,60.5,46.6C62.2,46.6,62.7,46.6,63.2,46.6C63.6,46.5,63.8,46.3,63.8,46.1C63.8,45.8,63.6,45.6,63.2,45.6C62.7,45.6,62.2,45.6,60.6,45.5C58.9,45.3,56.2,45,53.7,44.6C51.3,44.2,49.2,43.6,47,42.9C44.9,42.2,42.7,41.4,40.6,40.4C38.6,39.4,36.6,38.3,34.6,37C32.7,35.8,30.9,34.4,29.1,33C27.3,31.6,25.6,30,23.9,28.4C22.3,26.8,20.7,25.1,19.2,23.4C17.7,21.7,16.2,19.9,14.7,18.1C13.3,16.3,11.9,14.5,10.6,12.6C9.2,10.7,7.9,8.8,6.5,6.9C5.2,5,3.9,3.1,2.6,1.1C1.3,-0.8,0,-2.7,-1.3,-4.7C-2.6,-6.6,-3.9,-8.5,-5.3,-10.5C-6.6,-12.4,-7.9,-14.3,-9.4,-16.2C-10.8,-18.1,-12.2,-20,-13.7,-21.9z"/><path ed:tosuperid="198" stroke-linecap="round" stroke="#ff7575" stroke-linejoin="round" fill="none" id="199" transform="matrix(1,0,0,1,331,72)" stroke-width="2" ed:parentid="102" d="M-13.5,25.3C2.7,25.3,-7.3,-25.3,13.5,-25.3"/><path ed:tosuperid="200" stroke-linecap="round" stroke="#ff7575" stroke-linejoin="round" fill="none" id="201" transform="matrix(1,0,0,1,331,88)" stroke-width="2" ed:parentid="102" d="M-13.5,9.6C-0.5,9.6,0.2,-9.6,13.5,-9.6"/><path ed:tosuperid="202" stroke-linecap="round" stroke="#ff7575" stroke-linejoin="round" fill="none" id="203" transform="matrix(1,0,0,1,331,104)" stroke-width="2" ed:parentid="102" d="M-13.5,-6.1C-1.3,-6.1,2.1,6.1,13.5,6.1"/><path ed:tosuperid="204" stroke-linecap="round" stroke="#5fb7f1" stroke-linejoin="round" fill="none" id="205" transform="matrix(1,0,0,1,345,209)" stroke-width="2" ed:parentid="160" d="M-13.5,9.6C-0.5,9.6,0.2,-9.6,13.5,-9.6"/><path ed:tosuperid="206" stroke-linecap="round" stroke="#5fb7f1" stroke-linejoin="round" fill="none" id="207" transform="matrix(1,0,0,1,345,225)" stroke-width="2" ed:parentid="160" d="M-13.5,-6.1C-1.3,-6.1,2.1,6.1,13.5,6.1"/><path ed:tosuperid="208" stroke-linecap="round" stroke="#ff7575" stroke-linejoin="round" fill="none" id="209" transform="matrix(1,0,0,1,331,119)" stroke-width="2" ed:parentid="102" d="M-13.5,-21.8C2.1,-21.8,-5.8,21.8,13.5,21.8"/><path ed:tosuperid="212" stroke-linecap="round" stroke="#5fb7f1" stroke-linejoin="round" fill="none" id="213" transform="matrix(1,0,0,1,444,199)" stroke-width="2" ed:parentid="204" d="M-13.5,0C-2.7,0,5.4,0,13.5,0"/><path ed:tosuperid="214" stroke-linecap="round" stroke="#5fb7f1" stroke-linejoin="round" fill="none" id="215" transform="matrix(1,0,0,1,431,231)" stroke-width="2" ed:parentid="206" d="M-13.5,0C-2.7,0,5.4,0,13.5,0"/><g ed:layout="rightmap" id="101" transform="matrix(1,0,0,1,24,97)" ed:width="126.976" ed:topictype="mainidea" ed:height="57.8"><path stroke="#ffffff" fill="#ffffff" stroke-linejoin="round" stroke-width="4" d="M28.9,0L98.1,0C114,0,127,12.9,127,28.9C127,44.9,114,57.8,98.1,57.8L28.9,57.8C12.9,57.8,0,44.9,0,28.9C0,12.9,12.9,0,28.9,0z"/><text class="st1"><tspan style="white-space:pre" x="25" y="35.6">图像变换</tspan></text></g><g id="102" transform="matrix(1,0,0,1,214,66)" ed:parentid="101" ed:width="104" ed:height="31.95"><path stroke="#ff7575" stroke-linejoin="round" fill="none" stroke-width="2" d="M0,32L104,32"/><text class="st2"><tspan style="white-space:pre" x="17" y="19.6">正弦基变换</tspan></text></g><g id="160" transform="matrix(1,0,0,1,214,187)" ed:parentid="101" ed:width="117.6" ed:height="31.95"><path stroke="#5fb7f1" stroke-linejoin="round" fill="none" stroke-width="2" d="M0,32L117.6,32"/><text class="st2"><tspan style="white-space:pre" x="17" y="19.6">非正弦基变换</tspan></text></g><g id="198" transform="matrix(1,0,0,1,345,22)" ed:parentid="102" ed:width="44.4" ed:height="24.95"><path stroke="#ff7575" stroke-linejoin="round" fill="none" stroke-width="2" d="M0,24.9L44.4,24.9"/><text class="st3"><tspan style="white-space:pre" x="8" y="16">DFT</tspan></text></g><g id="200" transform="matrix(1,0,0,1,345,53)" ed:parentid="102" ed:width="48.4" ed:height="24.95"><path stroke="#ff7575" stroke-linejoin="round" fill="none" stroke-width="2" d="M0,24.9L48.4,24.9"/><text class="st2"><tspan style="white-space:pre" x="8" y="16">DHT</tspan></text></g><g id="202" transform="matrix(1,0,0,1,345,85)" ed:parentid="102" ed:width="46" ed:height="24.95"><path stroke="#ff7575" stroke-linejoin="round" fill="none" stroke-width="2" d="M0,24.9L46,24.9"/><text class="st3"><tspan style="white-space:pre" x="8" y="16">DCT</tspan></text></g><g id="204" transform="matrix(1,0,0,1,359,174)" ed:parentid="160" ed:width="72.40000000000001" ed:height="24.95"><path stroke="#5fb7f1" stroke-linejoin="round" fill="none" stroke-width="2" d="M0,24.9L72.4,24.9"/><text class="st2"><tspan style="white-space:pre" x="8" y="16">沃尔什基</tspan></text></g><g id="206" transform="matrix(1,0,0,1,359,206)" ed:parentid="160" ed:width="58.8" ed:height="24.95"><path stroke="#5fb7f1" stroke-linejoin="round" fill="none" stroke-width="2" d="M0,24.9L58.8,24.9"/><text class="st2"><tspan style="white-space:pre" x="8" y="16">小波基</tspan></text></g><g id="208" transform="matrix(1,0,0,1,345,116)" ed:parentid="102" ed:width="45.2" ed:height="24.95"><path stroke="#ff7575" stroke-linejoin="round" fill="none" stroke-width="2" d="M0,24.9L45.2,24.9"/><text class="st2"><tspan style="white-space:pre" x="8" y="16">DST</tspan></text></g><g id="212" transform="matrix(1,0,0,1,458,174)" ed:parentid="204" ed:width="52.4" ed:height="24.95"><path stroke="#5fb7f1" stroke-linejoin="round" fill="none" stroke-width="2" d="M0,24.9L52.4,24.9"/><text class="st2"><tspan style="white-space:pre" x="8" y="16">WHT</tspan></text></g><g id="214" transform="matrix(1,0,0,1,444,206)" ed:parentid="206" ed:width="50.8" ed:height="24.95"><path stroke="#5fb7f1" stroke-linejoin="round" fill="none" stroke-width="2" d="M0,24.9L50.8,24.9"/><text class="st3"><tspan style="white-space:pre" x="8" y="16">Haar</tspan></text></g><g ed:layout="rightmap" id="217" transform="matrix(1,0,0,1,419,83)" ed:parentid="216" ed:width="136.184" ed:height="29.2"><path stroke="#ff7575" fill="#ffffff" stroke-linejoin="round" d="M14.6,0L121.6,0C129.6,0,136.2,6.5,136.2,14.6C136.2,22.7,129.6,29.2,121.6,29.2L14.6,29.2C6.5,29.2,0,22.7,0,14.6C0,6.5,6.5,0,14.6,0z"/><text class="st2"><tspan style="white-space:pre" x="12" y="18.4">输出是实值的DFT</tspan></text></g><symbol id="plus"><path fill="url(#lg1)" d="M11,6C11,8.8,8.8,11,6,11C3.2,11,1,8.8,1,6C1,3.2,3.2,1,6,1C8.8,1,11,3.2,11,6z"/><path stroke="#46a000" fill="none" stroke-width="0.7" d="M11,6C11,8.8,8.8,11,6,11C3.2,11,1,8.8,1,6C1,3.2,3.2,1,6,1C8.8,1,11,3.2,11,6zM3,6L9,6M6,3L6,9"/></symbol><symbol id="minus"><path fill="url(#lg1)" d="M11,6C11,8.8,8.8,11,6,11C3.2,11,1,8.8,1,6C1,3.2,3.2,1,6,1C8.8,1,11,3.2,11,6z"/><path stroke="#46a000" fill="none" stroke-width="0.7" d="M11,6C11,8.8,8.8,11,6,11C3.2,11,1,8.8,1,6C1,3.2,3.2,1,6,1C8.8,1,11,3.2,11,6zM3,6L9,6"/></symbol><g ed:togtopicid="101" transform="translate(152,120)"><use xlink:href="#minus"/></g><g ed:togtopicid="102" transform="translate(319,76)"><use xlink:href="#minus"/></g><g ed:togtopicid="160" transform="translate(333,197)"><use xlink:href="#minus"/></g><g ed:togtopicid="204" transform="translate(432,181)"><use xlink:href="#minus"/></g><g ed:togtopicid="206" transform="translate(418,212)"><use xlink:href="#minus"/></g></svg>