<svg xmlns="http://www.w3.org/2000/svg" xmlns:ev="http://www.w3.org/2001/xml-events" ed:name="Page-1" id="page100" height="693" width="844" xmlns:ed="https://www.edrawsoft.com/xml/2017/SVGExtensions/" ed:hSpacing="30" xmlns:xlink="http://www.w3.org/1999/xlink" viewBox="0 0 844 693" ed:vSpacing="30"><style type="text/css"><![CDATA[
g[ed\:togtopicid],g[ed\:hyperlink],g[ed\:comment],g[ed\:note] {cursor:pointer;}
g[id] {-moz-user-select: none;-ms-user-select: none;user-select: none;}
svg text::selection,svg tspan::selection{background-color: #4285f4;color: #ffffff;fill: #ffffff;}
.st5 {fill:#0070c0;font-family:微软雅黑;font-size:10pt;font-weight:bold}
.st6 {fill:#454545;font-family:微软雅黑;font-size:10pt;font-weight:bold}
.st3 {fill:#454545;font-family:微软雅黑;font-size:12pt;font-weight:bold}
.st2 {fill:#454545;font-family:微软雅黑;font-size:14pt;font-weight:bold}
.st1 {fill:#c00000;font-family:微软雅黑;font-size:10pt;font-weight:bold}
.st4 {text-decoration:line-through}
]]></style><defs><linearGradient y2="100%" id="lg1" x2="0%" x1="0%" y1="0%"><stop stop-color="#ffffff" offset="0"/><stop stop-color="#f0f5f0" offset="0.25"/><stop stop-color="#e1ebe1" offset="0.75"/><stop stop-color="#c8d7c8" offset="1"/></linearGradient></defs><rect fill="#fbfcfb" x="0" height="693" width="844" y="0"/><path transform="matrix(1,0,0,1,319,634)" stroke="#ffcd55" fill="none" id="156" stroke-linejoin="round" ed:idlist="106" ed:parentid="106" d="M0.1,0C6,0,5.9,2.2,5.9,2.2L5.9,15.3C5.9,15.3,6.9,17.2,12,17.2C6.9,17.3,5.9,19,5.9,19L5.9,32.2C5.9,32.2,5.8,34.4,0,34.4" ed:type="summary"/><path transform="matrix(1,0,0,1,486,25)" stroke="#ff7575" fill="none" id="142" stroke-linejoin="round" ed:idlist="108,110,112,114,116,134" ed:parentid="108,110,112,114,116,134" d="M0.1,0C6,0,5.9,11.5,5.9,11.5L5.9,81.3C5.9,81.3,6.9,91.1,12,91.1C6.9,91.5,5.9,100.9,5.9,100.9L5.9,170.7C5.9,170.7,5.8,182.2,0,182.2" ed:type="summary"/><path transform="matrix(1,0,0,1,412,249)" stroke="#ff7575" fill="none" id="144" stroke-linejoin="round" ed:idlist="136,187" ed:parentid="136,187" d="M0.1,0C6,0,5.9,3.6,5.9,3.6L5.9,25.2C5.9,25.2,6.9,28.2,12,28.2C6.9,28.3,5.9,31.2,5.9,31.2L5.9,52.8C5.9,52.8,5.8,56.4,0,56.4" ed:type="summary"/><path transform="matrix(1,0,0,1,418,314)" stroke="#ff7575" fill="none" id="146" stroke-linejoin="round" ed:idlist="140" ed:parentid="140" d="M0.1,0C6,0,5.9,1.6,5.9,1.6L5.9,11.1C5.9,11.1,6.9,12.5,12,12.5C6.9,12.5,5.9,13.8,5.9,13.8L5.9,23.4C5.9,23.4,5.8,24.9,0,24.9" ed:type="summary"/><path transform="matrix(1,0,0,1,392,216)" stroke="#ff7575" fill="none" id="189" stroke-linejoin="round" ed:idlist="138" ed:parentid="138" d="M0.1,0C6,0,5.9,1.6,5.9,1.6L5.9,11.1C5.9,11.1,6.9,12.5,12,12.5C6.9,12.5,5.9,13.8,5.9,13.8L5.9,23.4C5.9,23.4,5.8,24.9,0,24.9" ed:type="summary"/><path transform="matrix(1,0,0,1,572,377)" stroke="#5fb7f1" fill="none" id="148" stroke-linejoin="round" ed:idlist="130" ed:parentid="130" d="M0.1,0C6,0,5.9,1.6,5.9,1.6L5.9,11.1C5.9,11.1,6.9,12.5,12,12.5C6.9,12.5,5.9,13.8,5.9,13.8L5.9,23.4C5.9,23.4,5.8,24.9,0,24.9" ed:type="summary"/><path transform="matrix(1,0,0,1,559,412)" stroke="#5fb7f1" fill="none" id="150" stroke-linejoin="round" ed:idlist="132" ed:parentid="132" d="M0.1,0C6,0,5.9,1.6,5.9,1.6L5.9,11.1C5.9,11.1,6.9,12.5,12,12.5C6.9,12.5,5.9,13.8,5.9,13.8L5.9,23.4C5.9,23.4,5.8,24.9,0,24.9" ed:type="summary"/><path transform="matrix(1,0,0,1,681,446)" stroke="#5fb7f1" fill="none" id="152" stroke-linejoin="round" ed:idlist="124,126" ed:parentid="124,126" d="M0.1,0C6,0,5.9,3.6,5.9,3.6L5.9,25.2C5.9,25.2,6.9,28.2,12,28.2C6.9,28.3,5.9,31.2,5.9,31.2L5.9,52.8C5.9,52.8,5.8,56.4,0,56.4" ed:type="summary"/><path transform="matrix(1,0,0,1,654,511)" stroke="#5fb7f1" fill="none" id="154" stroke-linejoin="round" ed:idlist="128" ed:parentid="128" d="M0.1,0C6,0,5.9,1.6,5.9,1.6L5.9,11.1C5.9,11.1,6.9,12.5,12,12.5C6.9,12.5,5.9,13.8,5.9,13.8L5.9,23.4C5.9,23.4,5.8,24.9,0,24.9" ed:type="summary"/><path transform="matrix(1,0,0,1,638,545)" stroke="#5fb7f1" fill="none" id="183" stroke-linejoin="round" ed:idlist="178,180" ed:parentid="178,180" d="M0.1,0C6,0,5.9,3.6,5.9,3.6L5.9,25.2C5.9,25.2,6.9,28.2,12,28.2C6.9,28.3,5.9,31.2,5.9,31.2L5.9,52.8C5.9,52.8,5.8,56.4,0,56.4" ed:type="summary"/><g transform="matrix(1,0,0,1,421,209)" id="193" ed:fromid="138" ed:type="relation" ed:toid="134"><path fill="none" d="M-33.6,10.4C283.8,-106.4,271.8,8.1,33.6,-10.4"/><path stroke="#a98ae7" fill="none" stroke-linejoin="round" d="M-33.6,10.4C281.3,-105.5,272,6.3,39.4,-9.9" stroke-linecap="round"/><path fill="#a98ae7" stroke="#a98ae7" stroke-width="1" d="M33.6,-10.4L40.2,-5.9C39.6,-7.1,39.3,-8.5,39.4,-9.9C39.5,-11.4,40,-12.7,40.8,-13.8L33.6,-10.4" stroke-linecap="round"/><rect fill="#ffffff" x="84.4" height="19.2" width="205.2" y="-46.1"/><text class="st1"><tspan style="white-space:pre" x="104" y="-32.5">传统PCA融合属于加权平均灰度法</tspan></text></g><path transform="matrix(1,0,0,1,151,274)" fill="#ff7575" stroke="#ff7575" id="103" stroke-linejoin="round" ed:parentid="101" d="M-24.8,43.6C-25.7,45.2,-25.3,46.8,-24.1,47.4C-22.9,48.1,-21.3,47.7,-20.4,46.1C-19.3,44,-18.2,41.9,-17.2,39.7C-16.1,37.6,-15.1,35.5,-14.2,33.3C-13.3,31.1,-12.3,28.9,-11.5,26.8C-10.6,24.6,-9.7,22.4,-8.9,20.2C-8.1,18,-7.3,15.8,-6.5,13.6C-5.7,11.4,-4.9,9.2,-4.1,7C-3.3,4.8,-2.5,2.6,-1.7,0.4C-1,-1.8,-0.2,-4,0.6,-6.1C1.4,-8.3,2.2,-10.5,3.1,-12.7C3.9,-14.9,4.7,-17,5.6,-19.2C6.5,-21.3,7.4,-23.5,8.3,-25.6C9.2,-27.7,10.2,-29.8,11.2,-31.9C12.2,-34,13.2,-36.1,14.3,-38.1C15.4,-40.1,16.6,-42.1,17.8,-44.1C19,-46,20.3,-48,21.7,-49.8C23,-51.7,24.4,-53.5,26,-55.2C27.5,-56.9,29.1,-58.6,30.8,-60.1C32.5,-61.6,34.3,-63.1,36.2,-64.4C38.1,-65.6,40.1,-66.8,42.1,-67.8C44.2,-68.8,46.4,-69.7,48.5,-70.4C50.7,-71,52.7,-71.6,55.3,-71.9C57.8,-72.3,60.7,-72.5,62.1,-72.6C63.6,-72.7,63.4,-72.6,63.2,-72.6C62.9,-72.5,63.8,-72.8,63.8,-73.1C63.8,-73.4,62.9,-73.5,63.2,-73.6C63.4,-73.6,63.6,-73.7,62.1,-73.6C60.7,-73.6,57.7,-73.4,55.1,-73.1C52.5,-72.8,50.3,-72.3,48.1,-71.7C45.9,-71,43.6,-70.2,41.5,-69.2C39.3,-68.2,37.2,-67.1,35.2,-65.8C33.2,-64.5,31.3,-63.1,29.5,-61.5C27.7,-60,26,-58.4,24.4,-56.6C22.8,-54.9,21.3,-53.1,19.8,-51.2C18.4,-49.3,17,-47.4,15.7,-45.4C14.4,-43.4,13.2,-41.4,12,-39.4C10.8,-37.3,9.7,-35.3,8.7,-33.2C7.6,-31.1,6.5,-29,5.6,-26.8C4.6,-24.7,3.6,-22.6,2.7,-20.4C1.7,-18.3,0.8,-16.1,-0.1,-13.9C-1,-11.8,-1.8,-9.6,-2.7,-7.4C-3.5,-5.2,-4.4,-3.1,-5.2,-0.9C-6.1,1.3,-6.9,3.5,-7.8,5.7C-8.6,7.8,-9.5,10,-10.3,12.2C-11.2,14.3,-12,16.5,-12.9,18.6C-13.8,20.8,-14.7,22.9,-15.6,25.1C-16.5,27.2,-17.4,29.3,-18.4,31.4C-19.4,33.5,-20.4,35.5,-21.5,37.6C-22.5,39.6,-23.7,41.6,-24.8,43.6z" ed:tosuperid="102" stroke-linecap="round"/><path transform="matrix(1,0,0,1,151,426)" fill="#5fb7f1" stroke="#5fb7f1" id="105" stroke-linejoin="round" ed:parentid="101" d="M-21.5,-51.8C-22.3,-53.4,-23.9,-53.9,-25.1,-53.3C-26.3,-52.6,-26.7,-51.1,-25.9,-49.5C-24.8,-47.4,-23.7,-45.4,-22.7,-43.4C-21.7,-41.3,-20.8,-39.2,-19.8,-37.1C-18.9,-35,-18,-32.9,-17.2,-30.7C-16.3,-28.6,-15.5,-26.4,-14.7,-24.2C-13.9,-22,-13.1,-19.9,-12.3,-17.7C-11.5,-15.5,-10.7,-13.3,-10,-11.1C-9.2,-8.9,-8.5,-6.7,-7.7,-4.5C-6.9,-2.3,-6.2,-0.1,-5.4,2.2C-4.7,4.4,-3.9,6.6,-3.1,8.8C-2.3,11,-1.5,13.2,-0.7,15.4C0.1,17.6,0.9,19.8,1.8,22C2.6,24.1,3.5,26.3,4.4,28.5C5.3,30.7,6.3,32.8,7.2,34.9C8.2,37.1,9.2,39.2,10.3,41.3C11.4,43.4,12.5,45.5,13.7,47.5C14.9,49.5,16.2,51.5,17.5,53.5C18.8,55.4,20.2,57.4,21.7,59.2C23.2,61,24.8,62.8,26.4,64.5C28.1,66.2,29.9,67.8,31.7,69.2C33.6,70.7,35.6,72,37.6,73.2C39.7,74.4,41.8,75.4,44,76.3C46.2,77.2,48.4,77.8,50.8,78.4C53.2,78.9,55.7,79.3,57.8,79.4C59.9,79.6,61.6,79.6,63.2,79.6C63.6,79.6,63.8,79.4,63.8,79.1C63.8,78.9,63.6,78.6,63.2,78.6C61.6,78.6,60,78.5,57.9,78.3C55.9,78.1,53.4,77.7,51.1,77.1C48.8,76.5,46.7,75.8,44.6,74.9C42.5,74.1,40.4,73,38.5,71.8C36.5,70.6,34.6,69.3,32.9,67.8C31.1,66.4,29.4,64.8,27.8,63.1C26.3,61.5,24.8,59.7,23.4,57.9C22,56,20.6,54.2,19.4,52.2C18.2,50.3,17,48.3,15.9,46.3C14.8,44.3,13.7,42.2,12.7,40.1C11.7,38,10.7,35.9,9.8,33.8C8.9,31.7,8,29.5,7.2,27.4C6.3,25.2,5.5,23,4.7,20.9C3.9,18.7,3.2,16.5,2.4,14.3C1.7,12.1,0.9,9.9,0.2,7.7C-0.5,5.4,-1.2,3.2,-1.9,1C-2.7,-1.2,-3.4,-3.4,-4.1,-5.7C-4.8,-7.9,-5.5,-10.1,-6.2,-12.3C-6.9,-14.6,-7.6,-16.8,-8.4,-19C-9.1,-21.2,-9.8,-23.5,-10.6,-25.7C-11.4,-27.9,-12.2,-30.1,-13,-32.3C-13.8,-34.5,-14.6,-36.7,-15.5,-38.9C-16.4,-41.1,-17.3,-43.3,-18.3,-45.4C-19.3,-47.6,-20.4,-49.7,-21.5,-51.8z" ed:tosuperid="104" stroke-linecap="round"/><path transform="matrix(1,0,0,1,151,507)" fill="#ffcd55" stroke="#ffcd55" id="107" stroke-linejoin="round" ed:parentid="101" d="M-28.5,-132.8C-29.2,-134.5,-30.7,-135.2,-32,-134.7C-33.2,-134.2,-33.8,-132.7,-33.2,-131C-32.4,-128.9,-31.6,-126.7,-30.9,-124.6C-30.1,-122.4,-29.5,-120.2,-28.8,-118C-28.2,-115.8,-27.6,-113.5,-27.1,-111.3C-26.5,-109,-26,-106.8,-25.6,-104.5C-25.1,-102.3,-24.6,-100,-24.2,-97.7C-23.8,-95.4,-23.4,-93.2,-23,-90.9C-22.6,-88.6,-22.2,-86.3,-21.9,-84C-21.5,-81.7,-21.2,-79.4,-20.9,-77.1C-20.6,-74.8,-20.3,-72.5,-20,-70.2C-19.7,-67.9,-19.4,-65.6,-19.1,-63.2C-18.9,-60.9,-18.6,-58.6,-18.4,-56.3C-18.1,-54,-17.9,-51.7,-17.6,-49.4C-17.4,-47,-17.1,-44.7,-16.9,-42.4C-16.7,-40.1,-16.5,-37.8,-16.2,-35.4C-16,-33.1,-15.8,-30.8,-15.6,-28.5C-15.3,-26.1,-15.1,-23.8,-14.9,-21.5C-14.7,-19.2,-14.5,-16.9,-14.3,-14.5C-14.1,-12.2,-13.8,-9.9,-13.6,-7.6C-13.4,-5.2,-13.2,-2.9,-13,-0.6C-12.7,1.7,-12.5,4.1,-12.3,6.4C-12,8.7,-11.8,11,-11.6,13.4C-11.3,15.7,-11.1,18,-10.8,20.3C-10.6,22.6,-10.3,25,-10,27.3C-9.8,29.6,-9.5,31.9,-9.2,34.3C-8.9,36.6,-8.6,38.9,-8.3,41.2C-8,43.5,-7.7,45.8,-7.4,48.2C-7.1,50.5,-6.7,52.8,-6.4,55.1C-6,57.4,-5.6,59.7,-5.3,62C-4.9,64.3,-4.5,66.6,-4,68.9C-3.6,71.2,-3.2,73.5,-2.7,75.8C-2.3,78.1,-1.8,80.4,-1.3,82.7C-0.7,85,-0.2,87.3,0.4,89.5C0.9,91.8,1.5,94.1,2.1,96.3C2.8,98.6,3.4,100.9,4.1,103.1C4.8,105.3,5.6,107.6,6.3,109.8C7.1,112,7.9,114.2,8.8,116.4C9.7,118.5,10.6,120.7,11.6,122.8C12.6,125,13.7,127.1,14.8,129.1C15.9,131.2,17.1,133.2,18.4,135.2C19.7,137.2,21.1,139.1,22.5,141C24,142.8,25.5,144.6,27.2,146.3C28.8,148,30.6,149.6,32.4,151C34.3,152.5,36.3,153.8,38.3,155C40.4,156.2,42.5,157.2,44.7,158.1C46.9,158.9,49.1,159.6,51.5,160.1C53.9,160.6,56.5,161,58.5,161.1C60.5,161.3,61.9,161.3,63.2,161.3C63.6,161.3,63.8,161.1,63.8,160.8C63.8,160.5,63.6,160.3,63.2,160.3C61.9,160.3,60.5,160.3,58.6,160.1C56.6,159.9,54.1,159.5,51.8,159C49.4,158.5,47.3,157.8,45.2,156.9C43.1,156.1,41,155,39,153.9C37,152.7,35.1,151.4,33.3,149.9C31.5,148.5,29.8,146.9,28.2,145.3C26.7,143.6,25.2,141.8,23.8,140C22.3,138.2,21,136.3,19.8,134.3C18.6,132.4,17.4,130.4,16.3,128.3C15.3,126.3,14.2,124.2,13.3,122.1C12.3,120,11.4,117.8,10.6,115.7C9.8,113.5,9,111.3,8.2,109.1C7.5,106.9,6.8,104.7,6.1,102.5C5.5,100.3,4.8,98,4.2,95.8C3.6,93.5,3.1,91.3,2.5,89C2,86.8,1.5,84.5,1,82.2C0.6,79.9,0.1,77.7,-0.3,75.4C-0.8,73.1,-1.2,70.8,-1.6,68.5C-2,66.2,-2.3,63.9,-2.7,61.6C-3,59.3,-3.4,57,-3.7,54.7C-4,52.4,-4.3,50.1,-4.6,47.8C-4.9,45.5,-5.2,43.2,-5.5,40.9C-5.8,38.5,-6,36.2,-6.3,33.9C-6.6,31.6,-6.8,29.3,-7,27C-7.3,24.6,-7.5,22.3,-7.7,20C-8,17.7,-8.2,15.4,-8.4,13C-8.6,10.7,-8.8,8.4,-9,6.1C-9.2,3.8,-9.4,1.4,-9.6,-0.9C-9.8,-3.2,-10,-5.5,-10.2,-7.9C-10.4,-10.2,-10.6,-12.5,-10.7,-14.8C-10.9,-17.2,-11.1,-19.5,-11.3,-21.8C-11.5,-24.1,-11.7,-26.5,-11.9,-28.8C-12.1,-31.1,-12.2,-33.5,-12.4,-35.8C-12.6,-38.1,-12.8,-40.4,-13,-42.8C-13.2,-45.1,-13.4,-47.4,-13.7,-49.7C-13.9,-52.1,-14.1,-54.4,-14.3,-56.7C-14.5,-59,-14.8,-61.4,-15,-63.7C-15.3,-66,-15.5,-68.4,-15.8,-70.7C-16,-73,-16.3,-75.3,-16.6,-77.7C-16.9,-80,-17.2,-82.3,-17.5,-84.6C-17.9,-86.9,-18.2,-89.3,-18.5,-91.6C-18.9,-93.9,-19.3,-96.2,-19.7,-98.5C-20.1,-100.8,-20.5,-103.2,-21,-105.5C-21.4,-107.8,-21.9,-110.1,-22.5,-112.4C-23,-114.7,-23.6,-117,-24.2,-119.3C-24.8,-121.5,-25.4,-123.8,-26.2,-126.1C-26.9,-128.3,-27.7,-130.6,-28.5,-132.8z" ed:tosuperid="106" stroke-linecap="round"/><path transform="matrix(1,0,0,1,327,125)" stroke="#ff7575" fill="none" id="109" stroke-width="2" stroke-linejoin="round" ed:parentid="102" d="M-13.5,75.2C5.4,75.2,-13.5,-75.2,13.5,-75.2" ed:tosuperid="108" stroke-linecap="round"/><path transform="matrix(1,0,0,1,327,141)" stroke="#ff7575" fill="none" id="111" stroke-width="2" stroke-linejoin="round" ed:parentid="102" d="M-13.5,59.5C5.4,59.5,-13.5,-59.5,13.5,-59.5" ed:tosuperid="110" stroke-linecap="round"/><path transform="matrix(1,0,0,1,327,157)" stroke="#ff7575" fill="none" id="113" stroke-width="2" stroke-linejoin="round" ed:parentid="102" d="M-13.5,43.8C5,43.8,-12.7,-43.8,13.5,-43.8" ed:tosuperid="112" stroke-linecap="round"/><path transform="matrix(1,0,0,1,327,172)" stroke="#ff7575" fill="none" id="115" stroke-width="2" stroke-linejoin="round" ed:parentid="102" d="M-13.5,28.1C3.2,28.1,-8.4,-28.1,13.5,-28.1" ed:tosuperid="114" stroke-linecap="round"/><path transform="matrix(1,0,0,1,327,188)" stroke="#ff7575" fill="none" id="117" stroke-width="2" stroke-linejoin="round" ed:parentid="102" d="M-13.5,12.3C0.1,12.3,-1.2,-12.3,13.5,-12.3" ed:tosuperid="116" stroke-linecap="round"/><path transform="matrix(1,0,0,1,327,462)" stroke="#5fb7f1" fill="none" id="119" stroke-width="2" stroke-linejoin="round" ed:parentid="104" d="M-13.5,42.7C5,42.7,-12.5,-42.7,13.5,-42.7" ed:tosuperid="118" stroke-linecap="round"/><path transform="matrix(1,0,0,1,327,505)" stroke="#5fb7f1" fill="none" id="121" stroke-width="2" stroke-linejoin="round" ed:parentid="104" d="M-13.5,0.2C-2.7,0.2,5.4,-0.2,13.5,-0.2" ed:tosuperid="120" stroke-linecap="round"/><path transform="matrix(1,0,0,1,427,488)" stroke="#5fb7f1" fill="none" id="125" stroke-width="2" stroke-linejoin="round" ed:parentid="120" d="M-13.5,16.8C1.1,16.8,-3.5,-16.8,13.5,-16.8" ed:tosuperid="124" stroke-linecap="round"/><path transform="matrix(1,0,0,1,427,503)" stroke="#5fb7f1" fill="none" id="127" stroke-width="2" stroke-linejoin="round" ed:parentid="120" d="M-13.5,1.1C-2.7,1.1,5.4,-1.1,13.5,-1.1" ed:tosuperid="126" stroke-linecap="round"/><path transform="matrix(1,0,0,1,427,520)" stroke="#5fb7f1" fill="none" id="129" stroke-width="2" stroke-linejoin="round" ed:parentid="120" d="M-13.5,-15.7C0.9,-15.7,-2.9,15.7,13.5,15.7" ed:tosuperid="128" stroke-linecap="round"/><path transform="matrix(1,0,0,1,440,411)" stroke="#5fb7f1" fill="none" id="131" stroke-width="2" stroke-linejoin="round" ed:parentid="118" d="M-13.5,8.9C-0.6,8.9,0.5,-8.9,13.5,-8.9" ed:tosuperid="130" stroke-linecap="round"/><path transform="matrix(1,0,0,1,440,428)" stroke="#5fb7f1" fill="none" id="133" stroke-width="2" stroke-linejoin="round" ed:parentid="118" d="M-13.5,-8.9C-0.6,-8.9,0.5,8.9,13.5,8.9" ed:tosuperid="132" stroke-linecap="round"/><path transform="matrix(1,0,0,1,327,204)" stroke="#ff7575" fill="none" id="135" stroke-width="2" stroke-linejoin="round" ed:parentid="102" d="M-13.5,-3.4C-1.9,-3.4,3.5,3.4,13.5,3.4" ed:tosuperid="134" stroke-linecap="round"/><path transform="matrix(1,0,0,1,327,237)" stroke="#ff7575" fill="none" id="137" stroke-width="2" stroke-linejoin="round" ed:parentid="102" d="M-13.5,-37C4.4,-37,-11.2,37,13.5,37" ed:tosuperid="136" stroke-linecap="round"/><path transform="matrix(1,0,0,1,327,221)" stroke="#ff7575" fill="none" id="139" stroke-width="2" stroke-linejoin="round" ed:parentid="102" d="M-13.5,-20.2C1.8,-20.2,-5.1,20.2,13.5,20.2" ed:tosuperid="138" stroke-linecap="round"/><path transform="matrix(1,0,0,1,327,270)" stroke="#ff7575" fill="none" id="141" stroke-width="2" stroke-linejoin="round" ed:parentid="102" d="M-13.5,-69.5C5.4,-69.5,-13.5,69.5,13.5,69.5" ed:tosuperid="140" stroke-linecap="round"/><path transform="matrix(1,0,0,1,327,545)" stroke="#5fb7f1" fill="none" id="177" stroke-width="2" stroke-linejoin="round" ed:parentid="104" d="M-13.5,-40.1C4.8,-40.1,-12,40.1,13.5,40.1" ed:tosuperid="176" stroke-linecap="round"/><path transform="matrix(1,0,0,1,468,577)" stroke="#5fb7f1" fill="none" id="179" stroke-width="2" stroke-linejoin="round" ed:parentid="176" d="M-13.5,7.9C-0.9,7.9,1.1,-7.9,13.5,-7.9" ed:tosuperid="178" stroke-linecap="round"/><path transform="matrix(1,0,0,1,468,593)" stroke="#5fb7f1" fill="none" id="181" stroke-width="2" stroke-linejoin="round" ed:parentid="176" d="M-13.5,-7.9C-0.9,-7.9,1.1,7.9,13.5,7.9" ed:tosuperid="180" stroke-linecap="round"/><path transform="matrix(1,0,0,1,327,253)" stroke="#ff7575" fill="none" id="188" stroke-width="2" stroke-linejoin="round" ed:parentid="102" d="M-13.5,-52.7C5.4,-52.7,-13.5,52.7,13.5,52.7" ed:tosuperid="187" stroke-linecap="round"/><g transform="matrix(1,0,0,1,24,318)" ed:height="57.8" id="101" ed:layout="map" ed:topictype="mainidea" ed:width="126.976"><path fill="#ffffff" stroke="#ffffff" stroke-width="4" stroke-linejoin="round" d="M28.9,0L98.1,0C114,0,127,12.9,127,28.9C127,44.9,114,57.8,98.1,57.8L28.9,57.8C12.9,57.8,0,44.9,0,28.9C0,12.9,12.9,0,28.9,0z"/><text class="st2"><tspan style="white-space:pre" x="25" y="35.6">图像融合</tspan></text></g><g transform="matrix(1,0,0,1,214,166)" ed:height="34.35" id="102" ed:parentid="101" ed:layout="rightmap" ed:width="100"><path stroke="#ff7575" fill="none" stroke-width="2" stroke-linejoin="round" d="M0,34.4L100,34.4"/><text class="st3"><tspan style="white-space:pre" x="17" y="22">空间域法</tspan></text></g><g transform="matrix(1,0,0,1,214,471)" ed:height="34.35" id="104" ed:parentid="101" ed:layout="rightmap" ed:width="100"><path stroke="#5fb7f1" fill="none" stroke-width="2" stroke-linejoin="round" d="M0,34.4L100,34.4"/><text class="st3"><tspan style="white-space:pre" x="17" y="22">变换域法</tspan></text></g><g transform="matrix(1,0,0,1,214,634)" ed:height="34.35" id="106" ed:parentid="101" ed:layout="rightmap" ed:width="100"><path stroke="#ffcd55" fill="none" stroke-width="2" stroke-linejoin="round" d="M0,34.4L100,34.4"/><text class="st3"><tspan style="white-space:pre" x="17" class="st4" y="22">深度学习</tspan></text></g><g transform="matrix(1,0,0,1,341,25)" ed:height="24.95" id="108" ed:parentid="102" ed:layout="rightmap" ed:width="86"><path stroke="#ff7575" fill="none" stroke-width="2" stroke-linejoin="round" d="M0,24.9L86,24.9"/><text class="st5"><tspan style="white-space:pre" x="8" y="16">平均灰度法</tspan></text></g><g transform="matrix(1,0,0,1,341,56)" ed:height="24.95" id="110" ed:parentid="102" ed:layout="rightmap" ed:width="86"><path stroke="#ff7575" fill="none" stroke-width="2" stroke-linejoin="round" d="M0,24.9L86,24.9"/><text class="st5"><tspan style="white-space:pre" x="8" y="16">最大灰度法</tspan></text></g><g transform="matrix(1,0,0,1,341,88)" ed:height="24.95" id="112" ed:parentid="102" ed:layout="rightmap" ed:width="86"><path stroke="#ff7575" fill="none" stroke-width="2" stroke-linejoin="round" d="M0,24.9L86,24.9"/><text class="st5"><tspan style="white-space:pre" x="8" y="16">最小灰度法</tspan></text></g><g transform="matrix(1,0,0,1,341,119)" ed:height="24.95" id="114" ed:parentid="102" ed:layout="rightmap" ed:width="140.4"><path stroke="#ff7575" fill="none" stroke-width="2" stroke-linejoin="round" d="M0,24.9L140.4,24.9"/><text class="st5"><tspan style="white-space:pre" x="8" y="16">最大最小平均灰度法</tspan></text></g><g transform="matrix(1,0,0,1,341,151)" ed:height="24.95" id="116" ed:parentid="102" ed:layout="rightmap" ed:width="140.4"><path stroke="#ff7575" fill="none" stroke-width="2" stroke-linejoin="round" d="M0,24.9L140.4,24.9"/><text class="st5"><tspan style="white-space:pre" x="8" y="16">简单邻域平均灰度法</tspan></text></g><g transform="matrix(1,0,0,1,341,394)" ed:height="24.95" id="118" ed:parentid="104" ed:layout="rightmap" ed:width="86"><path stroke="#5fb7f1" fill="none" stroke-width="2" stroke-linejoin="round" d="M0,24.9L86,24.9"/><text class="st6"><tspan style="white-space:pre" x="8" y="16">金字塔分解</tspan></text></g><g transform="matrix(1,0,0,1,341,479)" ed:height="24.95" id="120" ed:parentid="104" ed:layout="rightmap" ed:width="72.40000000000001"><path stroke="#5fb7f1" fill="none" stroke-width="2" stroke-linejoin="round" d="M0,24.9L72.4,24.9"/><text class="st6"><tspan style="white-space:pre" x="8" y="16">离散变换</tspan></text></g><g transform="matrix(1,0,0,1,440,446)" ed:height="24.95" id="124" ed:parentid="120" ed:layout="rightmap" ed:width="235.6"><path stroke="#5fb7f1" fill="none" stroke-width="2" stroke-linejoin="round" d="M0,24.9L235.6,24.9"/><text class="st5"><tspan style="white-space:pre" x="8" y="16">离散余弦变换（非多尺度分块融合）</tspan></text></g><g transform="matrix(1,0,0,1,440,477)" ed:height="24.95" id="126" ed:parentid="120" ed:layout="rightmap" ed:width="194.8"><path stroke="#5fb7f1" fill="none" stroke-width="2" stroke-linejoin="round" d="M0,24.9L194.8,24.9"/><text class="st5"><tspan style="white-space:pre" x="8" y="16">离散小波变换（多尺度融合）</tspan></text></g><g transform="matrix(1,0,0,1,440,511)" ed:height="24.95" id="128" ed:parentid="120" ed:layout="rightmap" ed:width="208.4"><path stroke="#5fb7f1" fill="none" stroke-width="2" stroke-linejoin="round" d="M0,24.9L208.4,24.9"/><text class="st6"><tspan style="white-space:pre" x="8" class="st4" y="16">平稳小波、曲小波、混合小波等</tspan></text></g><g transform="matrix(1,0,0,1,454,377)" ed:height="24.95" id="130" ed:parentid="118" ed:layout="rightmap" ed:width="113.2"><path stroke="#5fb7f1" fill="none" stroke-width="2" stroke-linejoin="round" d="M0,24.9L113.2,24.9"/><text class="st5"><tspan style="white-space:pre" x="8" y="16">拉普拉斯金字塔</tspan></text></g><g transform="matrix(1,0,0,1,454,412)" ed:height="24.95" id="132" ed:parentid="118" ed:layout="rightmap" ed:width="99.59999999999999"><path stroke="#5fb7f1" fill="none" stroke-width="2" stroke-linejoin="round" d="M0,24.9L99.6,24.9"/><text class="st6"><tspan style="white-space:pre" x="8" class="st4" y="16">梯度金字塔等</tspan></text></g><g transform="matrix(1,0,0,1,341,182)" ed:height="24.95" id="134" ed:parentid="102" ed:layout="rightmap" ed:width="113.2"><path stroke="#ff7575" fill="none" stroke-width="2" stroke-linejoin="round" d="M0,24.9L113.2,24.9"/><text class="st5"><tspan style="white-space:pre" x="8" y="16">加权平均灰度法</tspan></text></g><g transform="matrix(1,0,0,1,341,249)" ed:height="24.95" id="136" ed:parentid="102" ed:layout="rightmap" ed:width="42"><path stroke="#ff7575" fill="none" stroke-width="2" stroke-linejoin="round" d="M0,24.9L42,24.9"/><text class="st5"><tspan style="white-space:pre" x="8" y="16">IHS</tspan></text></g><g transform="matrix(1,0,0,1,341,216)" ed:height="24.95" id="138" ed:parentid="102" ed:layout="rightmap" ed:width="46"><path stroke="#ff7575" fill="none" stroke-width="2" stroke-linejoin="round" d="M0,24.9L46,24.9"/><text class="st5"><tspan style="white-space:pre" x="8" y="16">PCA</tspan></text></g><g transform="matrix(1,0,0,1,341,314)" ed:height="24.95" id="140" ed:parentid="102" ed:layout="rightmap" ed:width="72.40000000000001"><path stroke="#ff7575" fill="none" stroke-width="2" stroke-linejoin="round" d="M0,24.9L72.4,24.9"/><text class="st6"><tspan style="white-space:pre" x="8" class="st4" y="16">导向滤波</tspan></text></g><g transform="matrix(1,0,0,1,507,101)" ed:height="29.2" id="143" ed:parentid="142" ed:layout="rightmap" ed:width="123.384"><path fill="#ffffff" stroke="#ff7575" stroke-linejoin="round" d="M14.6,0L108.8,0C116.8,0,123.4,6.5,123.4,14.6C123.4,22.7,116.8,29.2,108.8,29.2L14.6,29.2C6.5,29.2,0,22.7,0,14.6C0,6.5,6.5,0,14.6,0z"/><text class="st6"><tspan style="white-space:pre" x="12" y="18.5">最为基本、简单</tspan></text></g><g transform="matrix(1,0,0,1,433,263)" ed:height="29.2" id="145" ed:parentid="144" ed:layout="rightmap" ed:width="256.184"><path fill="#ffffff" stroke="#ff7575" stroke-linejoin="round" d="M14.6,0L241.6,0C249.6,0,256.2,6.5,256.2,14.6C256.2,22.7,249.6,29.2,241.6,29.2L14.6,29.2C6.5,29.2,0,22.7,0,14.6C0,6.5,6.5,0,14.6,0z"/><text class="st6"><tspan style="white-space:pre" x="12" y="18.5">处理遥感图像：多光谱图像+全色图像</tspan></text></g><g transform="matrix(1,0,0,1,439,312)" ed:height="29.2" id="147" ed:parentid="146" ed:layout="rightmap" ed:width="272.984"><path fill="#ffffff" stroke="#ff7575" stroke-linejoin="round" d="M14.6,0L258.4,0C266.4,0,273,6.5,273,14.6C273,22.7,266.4,29.2,258.4,29.2L14.6,29.2C6.5,29.2,0,22.7,0,14.6C0,6.5,6.5,0,14.6,0z"/><text class="st6"><tspan style="white-space:pre" x="12" y="18.5">一种边缘保持的滤波方法，暂时不作了解</tspan></text></g><g transform="matrix(1,0,0,1,593,375)" ed:height="29.2" id="149" ed:parentid="148" ed:layout="rightmap" ed:width="82.584"><path fill="#ffffff" stroke="#5fb7f1" stroke-linejoin="round" d="M14.6,0L68,0C76,0,82.6,6.5,82.6,14.6C82.6,22.7,76,29.2,68,29.2L14.6,29.2C6.5,29.2,0,22.7,0,14.6C0,6.5,6.5,0,14.6,0z"/><text class="st6"><tspan style="white-space:pre" x="12" y="18.5">最为经典</tspan></text></g><g transform="matrix(1,0,0,1,580,410)" ed:height="29.2" id="151" ed:parentid="150" ed:layout="rightmap" ed:width="191.384"><path fill="#ffffff" stroke="#5fb7f1" stroke-linejoin="round" d="M14.6,0L176.8,0C184.8,0,191.4,6.5,191.4,14.6C191.4,22.7,184.8,29.2,176.8,29.2L14.6,29.2C6.5,29.2,0,22.7,0,14.6C0,6.5,6.5,0,14.6,0z"/><text class="st6"><tspan style="white-space:pre" x="12" y="18.5">原理与拉普拉斯金字塔类似</tspan></text></g><g transform="matrix(1,0,0,1,702,460)" ed:height="29.2" id="153" ed:parentid="152" ed:layout="rightmap" ed:width="82.584"><path fill="#ffffff" stroke="#5fb7f1" stroke-linejoin="round" d="M14.6,0L68,0C76,0,82.6,6.5,82.6,14.6C82.6,22.7,76,29.2,68,29.2L14.6,29.2C6.5,29.2,0,22.7,0,14.6C0,6.5,6.5,0,14.6,0z"/><text class="st6"><tspan style="white-space:pre" x="12" y="18.5">最为常见</tspan></text></g><g transform="matrix(1,0,0,1,675,509)" ed:height="29.2" id="155" ed:parentid="154" ed:layout="rightmap" ed:width="109.784"><path fill="#ffffff" stroke="#5fb7f1" stroke-linejoin="round" d="M14.6,0L95.2,0C103.2,0,109.8,6.5,109.8,14.6C109.8,22.7,103.2,29.2,95.2,29.2L14.6,29.2C6.5,29.2,0,22.7,0,14.6C0,6.5,6.5,0,14.6,0z"/><text class="st6"><tspan style="white-space:pre" x="12" y="18.5">暂时不作了解</tspan></text></g><g transform="matrix(1,0,0,1,340,636)" ed:height="29.2" id="157" ed:parentid="156" ed:layout="rightmap" ed:width="244.984"><path fill="#ffffff" stroke="#ffcd55" stroke-linejoin="round" d="M14.6,0L230.4,0C238.4,0,245,6.5,245,14.6C245,22.7,238.4,29.2,230.4,29.2L14.6,29.2C6.5,29.2,0,22.7,0,14.6C0,6.5,6.5,0,14.6,0z"/><text class="st6"><tspan style="white-space:pre" x="12" y="18.5">暂时不作了解，但可以看一看PCNN</tspan></text></g><g transform="matrix(1,0,0,1,341,560)" ed:height="24.95" id="176" ed:parentid="104" ed:layout="rightmap" ed:width="113.2"><path stroke="#5fb7f1" fill="none" stroke-width="2" stroke-linejoin="round" d="M0,24.9L113.2,24.9"/><text class="st6"><tspan style="white-space:pre" x="8" class="st4" y="16">多尺度几何分析</tspan></text></g><g transform="matrix(1,0,0,1,481,545)" ed:height="24.95" id="178" ed:parentid="176" ed:layout="rightmap" ed:width="151.6"><path stroke="#5fb7f1" fill="none" stroke-width="2" stroke-linejoin="round" d="M0,24.9L151.6,24.9"/><text class="st6"><tspan style="white-space:pre" x="8" y="16">(非下采样)轮廓波变换</tspan></text></g><g transform="matrix(1,0,0,1,481,576)" ed:height="24.95" id="180" ed:parentid="176" ed:layout="rightmap" ed:width="151.6"><path stroke="#5fb7f1" fill="none" stroke-width="2" stroke-linejoin="round" d="M0,24.9L151.6,24.9"/><text class="st6"><tspan style="white-space:pre" x="8" y="16">(非下采样)剪切波变换</tspan></text></g><g transform="matrix(1,0,0,1,659,558)" ed:height="29.2" id="184" ed:parentid="183" ed:layout="rightmap" ed:width="164.184"><path fill="#ffffff" stroke="#5fb7f1" stroke-linejoin="round" d="M14.6,0L149.6,0C157.6,0,164.2,6.5,164.2,14.6C164.2,22.7,157.6,29.2,149.6,29.2L14.6,29.2C6.5,29.2,0,22.7,0,14.6C0,6.5,6.5,0,14.6,0z"/><text class="st6"><tspan style="white-space:pre" x="12" y="18.5">暂时先知道有这个东西</tspan></text></g><g transform="matrix(1,0,0,1,341,281)" ed:height="24.95" id="187" ed:parentid="102" ed:layout="rightmap" ed:width="66"><path stroke="#ff7575" fill="none" stroke-width="2" stroke-linejoin="round" d="M0,24.9L66,24.9"/><text class="st5"><tspan style="white-space:pre" x="8" y="16">Brovey</tspan></text></g><g transform="matrix(1,0,0,1,413,214)" ed:height="29.2" id="190" ed:parentid="189" ed:layout="rightmap" ed:width="286.584"><path fill="#ffffff" stroke="#ff7575" stroke-linejoin="round" d="M14.6,0L272,0C280,0,286.6,6.5,286.6,14.6C286.6,22.7,280,29.2,272,29.2L14.6,29.2C6.5,29.2,0,22.7,0,14.6C0,6.5,6.5,0,14.6,0z"/><text class="st6"><tspan style="white-space:pre" x="12" y="18.5">既能确定加权融合系数、又能处理遥感图像</tspan></text></g><symbol id="plus"><path fill="url(#lg1)" d="M11,6C11,8.8,8.8,11,6,11C3.2,11,1,8.8,1,6C1,3.2,3.2,1,6,1C8.8,1,11,3.2,11,6z"/><path fill="none" stroke="#46a000" stroke-width="0.7" d="M11,6C11,8.8,8.8,11,6,11C3.2,11,1,8.8,1,6C1,3.2,3.2,1,6,1C8.8,1,11,3.2,11,6zM3,6L9,6M6,3L6,9"/></symbol><symbol id="minus"><path fill="url(#lg1)" d="M11,6C11,8.8,8.8,11,6,11C3.2,11,1,8.8,1,6C1,3.2,3.2,1,6,1C8.8,1,11,3.2,11,6z"/><path fill="none" stroke="#46a000" stroke-width="0.7" d="M11,6C11,8.8,8.8,11,6,11C3.2,11,1,8.8,1,6C1,3.2,3.2,1,6,1C8.8,1,11,3.2,11,6zM3,6L9,6"/></symbol><g transform="translate(152,341)" ed:togtopicid="101"><use xlink:href="#minus"/></g><g transform="translate(315,177)" ed:togtopicid="102"><use xlink:href="#minus"/></g><g transform="translate(315,482)" ed:togtopicid="104"><use xlink:href="#minus"/></g><g transform="translate(428,401)" ed:togtopicid="118"><use xlink:href="#minus"/></g><g transform="translate(414,486)" ed:togtopicid="120"><use xlink:href="#minus"/></g><g transform="translate(455,567)" ed:togtopicid="176"><use xlink:href="#minus"/></g></svg>