<svg ed:vSpacing="30" xmlns="http://www.w3.org/2000/svg" xmlns:ed="https://www.edrawsoft.com/xml/2017/SVGExtensions/" ed:name="Page-1" xmlns:ev="http://www.w3.org/2001/xml-events" ed:hSpacing="30" xmlns:xlink="http://www.w3.org/1999/xlink" viewBox="0 0 881 693" width="881" height="693" id="page100"><style type="text/css"><![CDATA[
g[ed\:togtopicid],g[ed\:hyperlink],g[ed\:comment],g[ed\:note] {cursor:pointer;}
g[id] {-moz-user-select: none;-ms-user-select: none;user-select: none;}
svg text::selection,svg tspan::selection{background-color: #4285f4;color: #ffffff;fill: #ffffff;}
.st5 {fill:#0070c0;font-family:微软雅黑;font-size:10pt;font-weight:bold}
.st6 {fill:#454545;font-family:微软雅黑;font-size:10pt;font-weight:bold}
.st3 {fill:#454545;font-family:微软雅黑;font-size:12pt;font-weight:bold}
.st2 {fill:#454545;font-family:微软雅黑;font-size:14pt;font-weight:bold}
.st1 {fill:#c00000;font-family:微软雅黑;font-size:10pt;font-weight:bold}
.st4 {text-decoration:line-through}
]]></style><defs><linearGradient y2="100%" x1="0%" y1="0%" x2="0%" id="lg1"><stop offset="0" stop-color="#ffffff"/><stop offset="0.25" stop-color="#f0f5f0"/><stop offset="0.75" stop-color="#e1ebe1"/><stop offset="1" stop-color="#c8d7c8"/></linearGradient></defs><rect y="0" fill="#fbfcfb" x="0" width="881" height="693"/><path transform="matrix(1,0,0,1,356,634)" stroke-linejoin="round" ed:idlist="106" fill="none" ed:parentid="106" d="M0.1,0C6,0,5.9,2.2,5.9,2.2L5.9,15.3C5.9,15.3,6.9,17.2,12,17.2C6.9,17.3,5.9,19,5.9,19L5.9,32.2C5.9,32.2,5.8,34.4,0,34.4" stroke="#ffcd55" ed:type="summary" id="156"/><path transform="matrix(1,0,0,1,523,25)" stroke-linejoin="round" ed:idlist="108,110,112,114,116,134" fill="none" ed:parentid="108,110,112,114,116,134" d="M0.1,0C6,0,5.9,11.5,5.9,11.5L5.9,81.3C5.9,81.3,6.9,91.1,12,91.1C6.9,91.5,5.9,100.9,5.9,100.9L5.9,170.7C5.9,170.7,5.8,182.2,0,182.2" stroke="#ff7575" ed:type="summary" id="142"/><path transform="matrix(1,0,0,1,449,249)" stroke-linejoin="round" ed:idlist="136,187" fill="none" ed:parentid="136,187" d="M0.1,0C6,0,5.9,3.6,5.9,3.6L5.9,25.2C5.9,25.2,6.9,28.2,12,28.2C6.9,28.3,5.9,31.2,5.9,31.2L5.9,52.8C5.9,52.8,5.8,56.4,0,56.4" stroke="#ff7575" ed:type="summary" id="144"/><path transform="matrix(1,0,0,1,455,314)" stroke-linejoin="round" ed:idlist="140" fill="none" ed:parentid="140" d="M0.1,0C6,0,5.9,1.6,5.9,1.6L5.9,11.1C5.9,11.1,6.9,12.5,12,12.5C6.9,12.5,5.9,13.8,5.9,13.8L5.9,23.4C5.9,23.4,5.8,24.9,0,24.9" stroke="#ff7575" ed:type="summary" id="146"/><path transform="matrix(1,0,0,1,429,216)" stroke-linejoin="round" ed:idlist="138" fill="none" ed:parentid="138" d="M0.1,0C6,0,5.9,1.6,5.9,1.6L5.9,11.1C5.9,11.1,6.9,12.5,12,12.5C6.9,12.5,5.9,13.8,5.9,13.8L5.9,23.4C5.9,23.4,5.8,24.9,0,24.9" stroke="#ff7575" ed:type="summary" id="189"/><path transform="matrix(1,0,0,1,609,377)" stroke-linejoin="round" ed:idlist="130" fill="none" ed:parentid="130" d="M0.1,0C6,0,5.9,1.6,5.9,1.6L5.9,11.1C5.9,11.1,6.9,12.5,12,12.5C6.9,12.5,5.9,13.8,5.9,13.8L5.9,23.4C5.9,23.4,5.8,24.9,0,24.9" stroke="#5fb7f1" ed:type="summary" id="148"/><path transform="matrix(1,0,0,1,595,412)" stroke-linejoin="round" ed:idlist="132" fill="none" ed:parentid="132" d="M0.1,0C6,0,5.9,1.6,5.9,1.6L5.9,11.1C5.9,11.1,6.9,12.5,12,12.5C6.9,12.5,5.9,13.8,5.9,13.8L5.9,23.4C5.9,23.4,5.8,24.9,0,24.9" stroke="#5fb7f1" ed:type="summary" id="150"/><path transform="matrix(1,0,0,1,718,446)" stroke-linejoin="round" ed:idlist="124,126" fill="none" ed:parentid="124,126" d="M0.1,0C6,0,5.9,3.6,5.9,3.6L5.9,25.2C5.9,25.2,6.9,28.2,12,28.2C6.9,28.3,5.9,31.2,5.9,31.2L5.9,52.8C5.9,52.8,5.8,56.4,0,56.4" stroke="#5fb7f1" ed:type="summary" id="152"/><path transform="matrix(1,0,0,1,691,511)" stroke-linejoin="round" ed:idlist="128" fill="none" ed:parentid="128" d="M0.1,0C6,0,5.9,1.6,5.9,1.6L5.9,11.1C5.9,11.1,6.9,12.5,12,12.5C6.9,12.5,5.9,13.8,5.9,13.8L5.9,23.4C5.9,23.4,5.8,24.9,0,24.9" stroke="#5fb7f1" ed:type="summary" id="154"/><path transform="matrix(1,0,0,1,675,545)" stroke-linejoin="round" ed:idlist="178,180" fill="none" ed:parentid="178,180" d="M0.1,0C6,0,5.9,3.6,5.9,3.6L5.9,25.2C5.9,25.2,6.9,28.2,12,28.2C6.9,28.3,5.9,31.2,5.9,31.2L5.9,52.8C5.9,52.8,5.8,56.4,0,56.4" stroke="#5fb7f1" ed:type="summary" id="183"/><g transform="matrix(1,0,0,1,457,209)" ed:fromid="138" ed:toid="134" ed:type="relation" id="193"><path fill="none" d="M-33.6,10.4C283.8,-106.4,271.8,8.1,33.6,-10.4"/><path stroke-linejoin="round" fill="none" stroke-linecap="round" d="M-33.6,10.4C281.3,-105.5,272,6.3,39.4,-9.9" stroke="#a98ae7"/><path stroke-width="1" fill="#a98ae7" stroke-linecap="round" d="M33.6,-10.4L40.2,-5.9C39.6,-7.1,39.3,-8.5,39.4,-9.9C39.5,-11.4,40,-12.7,40.8,-13.8L33.6,-10.4" stroke="#a98ae7"/><rect y="-46.1" fill="#ffffff" x="84.4" width="205.2" height="19.2"/><text class="st1"><tspan style="white-space:pre" y="-32.5" x="104">传统PCA融合属于加权平均灰度法</tspan></text></g><path transform="matrix(1,0,0,1,178,274)" stroke-linejoin="round" fill="#ff7575" stroke-linecap="round" ed:parentid="101" ed:tosuperid="102" d="M-27.6,42.8C-28.6,44.3,-28.4,45.9,-27.2,46.7C-26.1,47.5,-24.4,47.1,-23.5,45.6C-22.2,43.6,-20.9,41.6,-19.7,39.5C-18.5,37.5,-17.4,35.4,-16.3,33.3C-15.2,31.2,-14.1,29.1,-13.1,27C-12.1,24.9,-11.1,22.8,-10.1,20.6C-9.1,18.5,-8.1,16.4,-7.2,14.2C-6.2,12.1,-5.3,10,-4.3,7.8C-3.4,5.7,-2.5,3.6,-1.5,1.4C-0.6,-0.7,0.4,-2.9,1.3,-5C2.2,-7.1,3.2,-9.2,4.2,-11.4C5.1,-13.5,6.1,-15.6,7.1,-17.7C8.1,-19.8,9.1,-21.8,10.2,-23.9C11.2,-26,12.3,-28,13.4,-30.1C14.6,-32.1,15.7,-34.1,16.9,-36.1C18.1,-38,19.4,-40,20.7,-41.9C22,-43.8,23.3,-45.7,24.7,-47.5C26.2,-49.3,27.6,-51.1,29.2,-52.8C30.7,-54.5,32.4,-56.1,34.1,-57.6C35.8,-59.2,37.6,-60.6,39.4,-62C41.3,-63.3,43.2,-64.6,45.2,-65.7C47.2,-66.8,49.3,-67.8,51.5,-68.6C53.6,-69.5,55.8,-70.2,58,-70.8C60.2,-71.3,62.4,-71.8,64.8,-72.1C67.2,-72.3,69.8,-72.5,72.4,-72.6C72.8,-72.6,73,-72.8,73,-73.1C73,-73.4,72.8,-73.6,72.4,-73.6C69.8,-73.5,67.1,-73.5,64.7,-73.2C62.2,-73,60,-72.6,57.7,-72.1C55.4,-71.5,53.1,-70.9,50.9,-70.1C48.7,-69.2,46.5,-68.3,44.4,-67.2C42.3,-66.1,40.3,-64.9,38.3,-63.5C36.4,-62.2,34.5,-60.7,32.7,-59.2C30.9,-57.6,29.2,-56,27.6,-54.3C25.9,-52.6,24.4,-50.8,22.9,-49C21.4,-47.2,19.9,-45.3,18.6,-43.4C17.2,-41.5,15.9,-39.5,14.6,-37.5C13.3,-35.5,12.1,-33.5,10.9,-31.5C9.7,-29.5,8.6,-27.4,7.5,-25.3C6.3,-23.3,5.2,-21.2,4.2,-19.1C3.1,-17,2.1,-14.9,1.1,-12.8C0,-10.7,-1,-8.6,-2,-6.5C-3,-4.4,-4,-2.3,-5,-0.1C-6,2,-6.9,4.1,-7.9,6.2C-8.9,8.3,-9.9,10.4,-10.9,12.5C-11.9,14.6,-12.9,16.7,-14,18.8C-15,20.9,-16,22.9,-17.1,25C-18.2,27,-19.3,29.1,-20.4,31.1C-21.5,33.1,-22.7,35.1,-23.9,37C-25.1,39,-26.4,40.9,-27.6,42.8z" stroke="#ff7575" id="103"/><path transform="matrix(1,0,0,1,178,426)" stroke-linejoin="round" fill="#5fb7f1" stroke-linecap="round" ed:parentid="101" ed:tosuperid="104" d="M-24.9,-51.6C-25.8,-53.1,-27.4,-53.5,-28.6,-52.8C-29.8,-52,-30,-50.4,-29.1,-48.9C-27.9,-46.9,-26.7,-45,-25.5,-43C-24.3,-41,-23.2,-39,-22.2,-37C-21.1,-34.9,-20.1,-32.9,-19.1,-30.8C-18.1,-28.7,-17.1,-26.6,-16.1,-24.5C-15.2,-22.4,-14.2,-20.3,-13.3,-18.1C-12.4,-16,-11.4,-13.9,-10.5,-11.7C-9.6,-9.6,-8.7,-7.4,-7.8,-5.3C-6.9,-3.1,-6,-1,-5.1,1.2C-4.2,3.3,-3.3,5.5,-2.4,7.6C-1.5,9.8,-0.6,11.9,0.4,14.1C1.3,16.2,2.3,18.4,3.3,20.5C4.2,22.6,5.2,24.8,6.3,26.9C7.3,29,8.3,31.1,9.4,33.1C10.5,35.2,11.7,37.3,12.8,39.3C14,41.4,15.2,43.4,16.5,45.4C17.8,47.4,19.1,49.3,20.5,51.2C21.9,53.1,23.3,55,24.8,56.8C26.4,58.6,28,60.3,29.6,62C31.3,63.7,33.1,65.3,34.9,66.8C36.8,68.3,38.7,69.7,40.7,70.9C42.7,72.2,44.8,73.3,46.9,74.3C49.1,75.3,51.3,76.2,53.5,76.9C55.7,77.6,58,78.2,60.4,78.6C62.8,79.1,65.4,79.4,67.4,79.5C69.4,79.6,70.9,79.6,72.4,79.6C72.8,79.6,73,79.4,73,79.1C73,78.9,72.8,78.6,72.4,78.6C71,78.6,69.5,78.6,67.5,78.4C65.5,78.2,63,77.9,60.6,77.4C58.3,76.9,56.1,76.3,54,75.6C51.8,74.8,49.7,73.9,47.6,72.9C45.5,71.9,43.6,70.7,41.6,69.4C39.7,68.2,37.9,66.8,36.2,65.3C34.4,63.8,32.7,62.2,31.1,60.6C29.5,58.9,28,57.2,26.6,55.4C25.1,53.6,23.8,51.7,22.4,49.8C21.1,47.9,19.9,46,18.7,44C17.5,42,16.3,40,15.2,38C14.1,36,13,33.9,12,31.8C11,29.8,10,27.7,9,25.6C8.1,23.4,7.1,21.3,6.2,19.2C5.3,17.1,4.4,14.9,3.5,12.8C2.6,10.6,1.7,8.5,0.9,6.3C0,4.1,-0.8,2,-1.7,-0.2C-2.5,-2.4,-3.4,-4.6,-4.2,-6.7C-5.1,-8.9,-5.9,-11.1,-6.8,-13.3C-7.7,-15.4,-8.5,-17.6,-9.4,-19.8C-10.3,-21.9,-11.2,-24.1,-12.1,-26.3C-13.1,-28.4,-14,-30.6,-15,-32.7C-16,-34.9,-17,-37,-18,-39.1C-19.1,-41.2,-20.1,-43.3,-21.3,-45.4C-22.4,-47.5,-23.7,-49.5,-24.9,-51.6z" stroke="#5fb7f1" id="105"/><path transform="matrix(1,0,0,1,178,507)" stroke-linejoin="round" fill="#ffcd55" stroke-linecap="round" ed:parentid="101" ed:tosuperid="106" d="M-33.7,-133C-34.4,-134.6,-35.9,-135.2,-37.2,-134.6C-38.4,-134.1,-38.9,-132.5,-38.2,-130.9C-37.3,-128.8,-36.4,-126.7,-35.5,-124.6C-34.7,-122.5,-33.9,-120.3,-33.2,-118.1C-32.4,-115.9,-31.7,-113.7,-31.1,-111.5C-30.4,-109.3,-29.8,-107.1,-29.2,-104.8C-28.7,-102.6,-28.1,-100.4,-27.6,-98.1C-27.1,-95.9,-26.6,-93.6,-26.1,-91.3C-25.6,-89,-25.2,-86.8,-24.7,-84.5C-24.3,-82.2,-23.9,-79.9,-23.5,-77.6C-23.1,-75.4,-22.7,-73.1,-22.3,-70.8C-21.9,-68.5,-21.6,-66.2,-21.2,-63.9C-20.9,-61.6,-20.5,-59.3,-20.2,-57C-19.9,-54.7,-19.6,-52.4,-19.2,-50C-18.9,-47.7,-18.6,-45.4,-18.3,-43.1C-18,-40.8,-17.7,-38.5,-17.4,-36.2C-17.1,-33.9,-16.8,-31.6,-16.5,-29.2C-16.2,-26.9,-16,-24.6,-15.7,-22.3C-15.4,-20,-15.1,-17.7,-14.8,-15.3C-14.5,-13,-14.2,-10.7,-14,-8.4C-13.7,-6.1,-13.4,-3.8,-13.1,-1.5C-12.8,0.9,-12.5,3.2,-12.2,5.5C-11.9,7.8,-11.6,10.1,-11.3,12.4C-11,14.8,-10.7,17.1,-10.4,19.4C-10,21.7,-9.7,24,-9.4,26.3C-9,28.6,-8.7,31,-8.3,33.3C-8,35.6,-7.6,37.9,-7.3,40.2C-6.9,42.5,-6.5,44.8,-6.1,47.1C-5.7,49.4,-5.3,51.7,-4.9,54C-4.4,56.3,-4,58.6,-3.6,60.9C-3.1,63.2,-2.6,65.5,-2.1,67.8C-1.6,70.1,-1.1,72.4,-0.6,74.6C-0.1,76.9,0.5,79.2,1.1,81.5C1.7,83.7,2.3,86,2.9,88.3C3.6,90.5,4.2,92.8,4.9,95C5.6,97.2,6.3,99.5,7.1,101.7C7.9,103.9,8.7,106.1,9.5,108.3C10.4,110.5,11.3,112.6,12.2,114.8C13.2,116.9,14.2,119.1,15.2,121.2C16.3,123.3,17.4,125.3,18.6,127.4C19.8,129.4,21,131.4,22.3,133.3C23.7,135.3,25.1,137.2,26.6,139C28,140.9,29.6,142.6,31.3,144.3C32.9,146,34.7,147.6,36.5,149.1C38.3,150.6,40.3,151.9,42.3,153.2C44.3,154.4,46.4,155.5,48.5,156.5C50.7,157.5,52.9,158.3,55.2,159C57.4,159.6,59.6,160.2,62.1,160.5C64.5,160.9,67.3,161.1,69.1,161.2C70.9,161.4,71.7,161.3,72.4,161.3C72.8,161.3,73,161.1,73,160.8C73,160.5,72.8,160.3,72.4,160.3C71.7,160.3,70.9,160.3,69.1,160.2C67.4,160.1,64.7,159.8,62.2,159.4C59.8,159,57.7,158.5,55.5,157.8C53.4,157.1,51.2,156.3,49.1,155.3C47,154.4,44.9,153.3,43,152C41.1,150.8,39.2,149.4,37.4,147.9C35.7,146.5,34,144.9,32.4,143.2C30.8,141.6,29.3,139.8,27.8,138C26.4,136.2,25,134.3,23.8,132.4C22.5,130.5,21.3,128.5,20.2,126.5C19,124.5,17.9,122.4,16.9,120.3C15.9,118.2,15,116.1,14,114C13.1,111.9,12.3,109.7,11.5,107.5C10.6,105.4,9.9,103.2,9.1,101C8.4,98.8,7.7,96.6,7,94.3C6.4,92.1,5.7,89.9,5.1,87.6C4.5,85.4,4,83.1,3.4,80.9C2.9,78.6,2.3,76.4,1.8,74.1C1.3,71.8,0.8,69.5,0.4,67.3C-0.1,65,-0.5,62.7,-1,60.4C-1.4,58.1,-1.8,55.8,-2.2,53.5C-2.6,51.2,-3,49,-3.3,46.7C-3.7,44.4,-4.1,42.1,-4.4,39.8C-4.7,37.4,-5.1,35.1,-5.4,32.8C-5.7,30.5,-6,28.2,-6.3,25.9C-6.6,23.6,-6.9,21.3,-7.2,19C-7.5,16.7,-7.8,14.4,-8.1,12C-8.4,9.7,-8.6,7.4,-8.9,5.1C-9.2,2.8,-9.4,0.5,-9.7,-1.9C-10,-4.2,-10.2,-6.5,-10.5,-8.8C-10.8,-11.1,-11,-13.4,-11.3,-15.8C-11.5,-18.1,-11.8,-20.4,-12,-22.7C-12.3,-25,-12.6,-27.4,-12.8,-29.7C-13.1,-32,-13.3,-34.3,-13.6,-36.6C-13.9,-39,-14.2,-41.3,-14.4,-43.6C-14.7,-45.9,-15,-48.2,-15.3,-50.6C-15.6,-52.9,-15.9,-55.2,-16.2,-57.5C-16.5,-59.8,-16.8,-62.2,-17.1,-64.5C-17.4,-66.8,-17.8,-69.1,-18.1,-71.4C-18.5,-73.7,-18.8,-76,-19.2,-78.4C-19.6,-80.7,-20,-83,-20.4,-85.3C-20.8,-87.6,-21.2,-89.9,-21.7,-92.2C-22.1,-94.5,-22.6,-96.8,-23.1,-99.1C-23.6,-101.4,-24.2,-103.7,-24.7,-106C-25.3,-108.3,-25.9,-110.6,-26.5,-112.8C-27.2,-115.1,-27.8,-117.4,-28.6,-119.6C-29.3,-121.9,-30.1,-124.1,-30.9,-126.3C-31.8,-128.6,-32.7,-130.8,-33.7,-133z" stroke="#ffcd55" id="107"/><path transform="matrix(1,0,0,1,364,125)" stroke-linejoin="round" stroke-width="2" fill="none" stroke-linecap="round" ed:parentid="102" ed:tosuperid="108" d="M-13.5,75.2C5.4,75.2,-13.5,-75.2,13.5,-75.2" stroke="#ff7575" id="109"/><path transform="matrix(1,0,0,1,364,141)" stroke-linejoin="round" stroke-width="2" fill="none" stroke-linecap="round" ed:parentid="102" ed:tosuperid="110" d="M-13.5,59.5C5.4,59.5,-13.5,-59.5,13.5,-59.5" stroke="#ff7575" id="111"/><path transform="matrix(1,0,0,1,364,157)" stroke-linejoin="round" stroke-width="2" fill="none" stroke-linecap="round" ed:parentid="102" ed:tosuperid="112" d="M-13.5,43.8C5,43.8,-12.7,-43.8,13.5,-43.8" stroke="#ff7575" id="113"/><path transform="matrix(1,0,0,1,364,172)" stroke-linejoin="round" stroke-width="2" fill="none" stroke-linecap="round" ed:parentid="102" ed:tosuperid="114" d="M-13.5,28.1C3.2,28.1,-8.4,-28.1,13.5,-28.1" stroke="#ff7575" id="115"/><path transform="matrix(1,0,0,1,364,188)" stroke-linejoin="round" stroke-width="2" fill="none" stroke-linecap="round" ed:parentid="102" ed:tosuperid="116" d="M-13.5,12.3C0.1,12.3,-1.2,-12.3,13.5,-12.3" stroke="#ff7575" id="117"/><path transform="matrix(1,0,0,1,364,462)" stroke-linejoin="round" stroke-width="2" fill="none" stroke-linecap="round" ed:parentid="104" ed:tosuperid="118" d="M-13.5,42.7C5,42.7,-12.5,-42.7,13.5,-42.7" stroke="#5fb7f1" id="119"/><path transform="matrix(1,0,0,1,364,505)" stroke-linejoin="round" stroke-width="2" fill="none" stroke-linecap="round" ed:parentid="104" ed:tosuperid="120" d="M-13.5,0.2C-2.7,0.2,5.4,-0.2,13.5,-0.2" stroke="#5fb7f1" id="121"/><path transform="matrix(1,0,0,1,464,488)" stroke-linejoin="round" stroke-width="2" fill="none" stroke-linecap="round" ed:parentid="120" ed:tosuperid="124" d="M-13.5,16.8C1.1,16.8,-3.5,-16.8,13.5,-16.8" stroke="#5fb7f1" id="125"/><path transform="matrix(1,0,0,1,464,503)" stroke-linejoin="round" stroke-width="2" fill="none" stroke-linecap="round" ed:parentid="120" ed:tosuperid="126" d="M-13.5,1.1C-2.7,1.1,5.4,-1.1,13.5,-1.1" stroke="#5fb7f1" id="127"/><path transform="matrix(1,0,0,1,464,520)" stroke-linejoin="round" stroke-width="2" fill="none" stroke-linecap="round" ed:parentid="120" ed:tosuperid="128" d="M-13.5,-15.7C0.9,-15.7,-2.9,15.7,13.5,15.7" stroke="#5fb7f1" id="129"/><path transform="matrix(1,0,0,1,477,410)" stroke-linejoin="round" stroke-width="2" fill="none" stroke-linecap="round" ed:parentid="118" ed:tosuperid="130" d="M-13.5,8.9C-0.6,8.9,0.5,-8.9,13.5,-8.9" stroke="#5fb7f1" id="131"/><path transform="matrix(1,0,0,1,477,428)" stroke-linejoin="round" stroke-width="2" fill="none" stroke-linecap="round" ed:parentid="118" ed:tosuperid="132" d="M-13.5,-8.9C-0.6,-8.9,0.5,8.9,13.5,8.9" stroke="#5fb7f1" id="133"/><path transform="matrix(1,0,0,1,364,204)" stroke-linejoin="round" stroke-width="2" fill="none" stroke-linecap="round" ed:parentid="102" ed:tosuperid="134" d="M-13.5,-3.4C-1.9,-3.4,3.5,3.4,13.5,3.4" stroke="#ff7575" id="135"/><path transform="matrix(1,0,0,1,364,237)" stroke-linejoin="round" stroke-width="2" fill="none" stroke-linecap="round" ed:parentid="102" ed:tosuperid="136" d="M-13.5,-37C4.4,-37,-11.2,37,13.5,37" stroke="#ff7575" id="137"/><path transform="matrix(1,0,0,1,364,221)" stroke-linejoin="round" stroke-width="2" fill="none" stroke-linecap="round" ed:parentid="102" ed:tosuperid="138" d="M-13.5,-20.2C1.8,-20.2,-5.1,20.2,13.5,20.2" stroke="#ff7575" id="139"/><path transform="matrix(1,0,0,1,364,270)" stroke-linejoin="round" stroke-width="2" fill="none" stroke-linecap="round" ed:parentid="102" ed:tosuperid="140" d="M-13.5,-69.5C5.4,-69.5,-13.5,69.5,13.5,69.5" stroke="#ff7575" id="141"/><path transform="matrix(1,0,0,1,364,545)" stroke-linejoin="round" stroke-width="2" fill="none" stroke-linecap="round" ed:parentid="104" ed:tosuperid="176" d="M-13.5,-40.1C4.8,-40.1,-12,40.1,13.5,40.1" stroke="#5fb7f1" id="177"/><path transform="matrix(1,0,0,1,504,577)" stroke-linejoin="round" stroke-width="2" fill="none" stroke-linecap="round" ed:parentid="176" ed:tosuperid="178" d="M-13.5,7.9C-0.9,7.9,1.1,-7.9,13.5,-7.9" stroke="#5fb7f1" id="179"/><path transform="matrix(1,0,0,1,504,593)" stroke-linejoin="round" stroke-width="2" fill="none" stroke-linecap="round" ed:parentid="176" ed:tosuperid="180" d="M-13.5,-7.9C-0.9,-7.9,1.1,7.9,13.5,7.9" stroke="#5fb7f1" id="181"/><path transform="matrix(1,0,0,1,364,253)" stroke-linejoin="round" stroke-width="2" fill="none" stroke-linecap="round" ed:parentid="102" ed:tosuperid="187" d="M-13.5,-52.7C5.4,-52.7,-13.5,52.7,13.5,52.7" stroke="#ff7575" id="188"/><g transform="matrix(1,0,0,1,24,318)" ed:height="57.8" ed:width="163.776" ed:layout="map" id="101" ed:topictype="mainidea"><path stroke-linejoin="round" stroke-width="4" fill="#ffffff" d="M28.9,0L134.9,0C150.8,0,163.8,12.9,163.8,28.9C163.8,44.9,150.8,57.8,134.9,57.8L28.9,57.8C12.9,57.8,0,44.9,0,28.9C0,12.9,12.9,0,28.9,0z" stroke="#ffffff"/><text class="st2"><tspan style="white-space:pre" y="35.6" x="25">图像融合方法</tspan></text></g><g transform="matrix(1,0,0,1,251,166)" ed:height="34.35" ed:width="100" ed:layout="rightmap" ed:parentid="101" id="102"><path stroke-linejoin="round" stroke-width="2" fill="none" d="M0,34.4L100,34.4" stroke="#ff7575"/><text class="st3"><tspan style="white-space:pre" y="22" x="17">空间域法</tspan></text></g><g transform="matrix(1,0,0,1,251,471)" ed:height="34.35" ed:width="100" ed:layout="rightmap" ed:parentid="101" id="104"><path stroke-linejoin="round" stroke-width="2" fill="none" d="M0,34.4L100,34.4" stroke="#5fb7f1"/><text class="st3"><tspan style="white-space:pre" y="22" x="17">变换域法</tspan></text></g><g transform="matrix(1,0,0,1,251,634)" ed:height="34.35" ed:width="100" ed:layout="rightmap" ed:parentid="101" id="106"><path stroke-linejoin="round" stroke-width="2" fill="none" d="M0,34.4L100,34.4" stroke="#ffcd55"/><text class="st3"><tspan style="white-space:pre" y="22" x="17" class="st4">深度学习</tspan></text></g><g transform="matrix(1,0,0,1,378,25)" ed:height="24.95" ed:width="86" ed:layout="rightmap" ed:parentid="102" id="108"><path stroke-linejoin="round" stroke-width="2" fill="none" d="M0,24.9L86,24.9" stroke="#ff7575"/><text class="st5"><tspan style="white-space:pre" y="16" x="8">平均灰度法</tspan></text></g><g transform="matrix(1,0,0,1,378,56)" ed:height="24.95" ed:width="86" ed:layout="rightmap" ed:parentid="102" id="110"><path stroke-linejoin="round" stroke-width="2" fill="none" d="M0,24.9L86,24.9" stroke="#ff7575"/><text class="st5"><tspan style="white-space:pre" y="16" x="8">最大灰度法</tspan></text></g><g transform="matrix(1,0,0,1,378,88)" ed:height="24.95" ed:width="86" ed:layout="rightmap" ed:parentid="102" id="112"><path stroke-linejoin="round" stroke-width="2" fill="none" d="M0,24.9L86,24.9" stroke="#ff7575"/><text class="st5"><tspan style="white-space:pre" y="16" x="8">最小灰度法</tspan></text></g><g transform="matrix(1,0,0,1,378,119)" ed:height="24.95" ed:width="140.4" ed:layout="rightmap" ed:parentid="102" id="114"><path stroke-linejoin="round" stroke-width="2" fill="none" d="M0,24.9L140.4,24.9" stroke="#ff7575"/><text class="st5"><tspan style="white-space:pre" y="16" x="8">最大最小平均灰度法</tspan></text></g><g transform="matrix(1,0,0,1,378,151)" ed:height="24.95" ed:width="140.4" ed:layout="rightmap" ed:parentid="102" id="116"><path stroke-linejoin="round" stroke-width="2" fill="none" d="M0,24.9L140.4,24.9" stroke="#ff7575"/><text class="st5"><tspan style="white-space:pre" y="16" x="8">简单邻域平均灰度法</tspan></text></g><g transform="matrix(1,0,0,1,378,394)" ed:height="24.95" ed:width="86" ed:layout="rightmap" ed:parentid="104" id="118"><path stroke-linejoin="round" stroke-width="2" fill="none" d="M0,24.9L86,24.9" stroke="#5fb7f1"/><text class="st6"><tspan style="white-space:pre" y="16" x="8">金字塔分解</tspan></text></g><g transform="matrix(1,0,0,1,378,479)" ed:height="24.95" ed:width="72.40000000000001" ed:layout="rightmap" ed:parentid="104" id="120"><path stroke-linejoin="round" stroke-width="2" fill="none" d="M0,24.9L72.4,24.9" stroke="#5fb7f1"/><text class="st6"><tspan style="white-space:pre" y="16" x="8">离散变换</tspan></text></g><g transform="matrix(1,0,0,1,477,446)" ed:height="24.95" ed:width="235.6" ed:layout="rightmap" ed:parentid="120" id="124"><path stroke-linejoin="round" stroke-width="2" fill="none" d="M0,24.9L235.6,24.9" stroke="#5fb7f1"/><text class="st5"><tspan style="white-space:pre" y="16" x="8">离散余弦变换（非多尺度分块融合）</tspan></text></g><g transform="matrix(1,0,0,1,477,477)" ed:height="24.95" ed:width="194.8" ed:layout="rightmap" ed:parentid="120" id="126"><path stroke-linejoin="round" stroke-width="2" fill="none" d="M0,24.9L194.8,24.9" stroke="#5fb7f1"/><text class="st5"><tspan style="white-space:pre" y="16" x="8">离散小波变换（多尺度融合）</tspan></text></g><g transform="matrix(1,0,0,1,477,511)" ed:height="24.95" ed:width="208.4" ed:layout="rightmap" ed:parentid="120" id="128"><path stroke-linejoin="round" stroke-width="2" fill="none" d="M0,24.9L208.4,24.9" stroke="#5fb7f1"/><text class="st6"><tspan style="white-space:pre" y="16" x="8" class="st4">平稳小波、曲小波、混合小波等</tspan></text></g><g transform="matrix(1,0,0,1,491,377)" ed:height="24.95" ed:width="113.2" ed:layout="rightmap" ed:parentid="118" id="130"><path stroke-linejoin="round" stroke-width="2" fill="none" d="M0,24.9L113.2,24.9" stroke="#5fb7f1"/><text class="st5"><tspan style="white-space:pre" y="16" x="8">拉普拉斯金字塔</tspan></text></g><g transform="matrix(1,0,0,1,491,412)" ed:height="24.95" ed:width="99.59999999999999" ed:layout="rightmap" ed:parentid="118" id="132"><path stroke-linejoin="round" stroke-width="2" fill="none" d="M0,24.9L99.6,24.9" stroke="#5fb7f1"/><text class="st6"><tspan style="white-space:pre" y="16" x="8" class="st4">梯度金字塔等</tspan></text></g><g transform="matrix(1,0,0,1,378,182)" ed:height="24.95" ed:width="113.2" ed:layout="rightmap" ed:parentid="102" id="134"><path stroke-linejoin="round" stroke-width="2" fill="none" d="M0,24.9L113.2,24.9" stroke="#ff7575"/><text class="st5"><tspan style="white-space:pre" y="16" x="8">加权平均灰度法</tspan></text></g><g transform="matrix(1,0,0,1,378,249)" ed:height="24.95" ed:width="42" ed:layout="rightmap" ed:parentid="102" id="136"><path stroke-linejoin="round" stroke-width="2" fill="none" d="M0,24.9L42,24.9" stroke="#ff7575"/><text class="st5"><tspan style="white-space:pre" y="16" x="8">IHS</tspan></text></g><g transform="matrix(1,0,0,1,378,216)" ed:height="24.95" ed:width="46" ed:layout="rightmap" ed:parentid="102" id="138"><path stroke-linejoin="round" stroke-width="2" fill="none" d="M0,24.9L46,24.9" stroke="#ff7575"/><text class="st5"><tspan style="white-space:pre" y="16" x="8">PCA</tspan></text></g><g transform="matrix(1,0,0,1,378,314)" ed:height="24.95" ed:width="72.40000000000001" ed:layout="rightmap" ed:parentid="102" id="140"><path stroke-linejoin="round" stroke-width="2" fill="none" d="M0,24.9L72.4,24.9" stroke="#ff7575"/><text class="st6"><tspan style="white-space:pre" y="16" x="8" class="st4">导向滤波</tspan></text></g><g transform="matrix(1,0,0,1,544,101)" ed:height="29.2" ed:width="123.384" ed:layout="rightmap" ed:parentid="142" id="143"><path stroke-linejoin="round" fill="#ffffff" d="M14.6,0L108.8,0C116.8,0,123.4,6.5,123.4,14.6C123.4,22.7,116.8,29.2,108.8,29.2L14.6,29.2C6.5,29.2,0,22.7,0,14.6C0,6.5,6.5,0,14.6,0z" stroke="#ff7575"/><text class="st6"><tspan style="white-space:pre" y="18.4" x="12">最为基本、简单</tspan></text></g><g transform="matrix(1,0,0,1,470,263)" ed:height="29.2" ed:width="256.184" ed:layout="rightmap" ed:parentid="144" id="145"><path stroke-linejoin="round" fill="#ffffff" d="M14.6,0L241.6,0C249.6,0,256.2,6.5,256.2,14.6C256.2,22.7,249.6,29.2,241.6,29.2L14.6,29.2C6.5,29.2,0,22.7,0,14.6C0,6.5,6.5,0,14.6,0z" stroke="#ff7575"/><text class="st6"><tspan style="white-space:pre" y="18.4" x="12">处理遥感图像：多光谱图像+全色图像</tspan></text></g><g transform="matrix(1,0,0,1,476,312)" ed:height="29.2" ed:width="272.984" ed:layout="rightmap" ed:parentid="146" id="147"><path stroke-linejoin="round" fill="#ffffff" d="M14.6,0L258.4,0C266.4,0,273,6.5,273,14.6C273,22.7,266.4,29.2,258.4,29.2L14.6,29.2C6.5,29.2,0,22.7,0,14.6C0,6.5,6.5,0,14.6,0z" stroke="#ff7575"/><text class="st6"><tspan style="white-space:pre" y="18.4" x="12">一种边缘保持的滤波方法，暂时不作了解</tspan></text></g><g transform="matrix(1,0,0,1,630,374)" ed:height="29.2" ed:width="82.58399999999999" ed:layout="rightmap" ed:parentid="148" id="149"><path stroke-linejoin="round" fill="#ffffff" d="M14.6,0L68,0C76,0,82.6,6.5,82.6,14.6C82.6,22.7,76,29.2,68,29.2L14.6,29.2C6.5,29.2,0,22.7,0,14.6C0,6.5,6.5,0,14.6,0z" stroke="#5fb7f1"/><text class="st6"><tspan style="white-space:pre" y="18.4" x="12">最为经典</tspan></text></g><g transform="matrix(1,0,0,1,616,410)" ed:height="29.2" ed:width="191.384" ed:layout="rightmap" ed:parentid="150" id="151"><path stroke-linejoin="round" fill="#ffffff" d="M14.6,0L176.8,0C184.8,0,191.4,6.5,191.4,14.6C191.4,22.7,184.8,29.2,176.8,29.2L14.6,29.2C6.5,29.2,0,22.7,0,14.6C0,6.5,6.5,0,14.6,0z" stroke="#5fb7f1"/><text class="st6"><tspan style="white-space:pre" y="18.4" x="12">原理与拉普拉斯金字塔类似</tspan></text></g><g transform="matrix(1,0,0,1,739,459)" ed:height="29.2" ed:width="82.58399999999999" ed:layout="rightmap" ed:parentid="152" id="153"><path stroke-linejoin="round" fill="#ffffff" d="M14.6,0L68,0C76,0,82.6,6.5,82.6,14.6C82.6,22.7,76,29.2,68,29.2L14.6,29.2C6.5,29.2,0,22.7,0,14.6C0,6.5,6.5,0,14.6,0z" stroke="#5fb7f1"/><text class="st6"><tspan style="white-space:pre" y="18.4" x="12">最为常见</tspan></text></g><g transform="matrix(1,0,0,1,712,509)" ed:height="29.2" ed:width="109.784" ed:layout="rightmap" ed:parentid="154" id="155"><path stroke-linejoin="round" fill="#ffffff" d="M14.6,0L95.2,0C103.2,0,109.8,6.5,109.8,14.6C109.8,22.7,103.2,29.2,95.2,29.2L14.6,29.2C6.5,29.2,0,22.7,0,14.6C0,6.5,6.5,0,14.6,0z" stroke="#5fb7f1"/><text class="st6"><tspan style="white-space:pre" y="18.4" x="12">暂时不作了解</tspan></text></g><g transform="matrix(1,0,0,1,377,636)" ed:height="29.2" ed:width="244.984" ed:layout="rightmap" ed:parentid="156" id="157"><path stroke-linejoin="round" fill="#ffffff" d="M14.6,0L230.4,0C238.4,0,245,6.5,245,14.6C245,22.7,238.4,29.2,230.4,29.2L14.6,29.2C6.5,29.2,0,22.7,0,14.6C0,6.5,6.5,0,14.6,0z" stroke="#ffcd55"/><text class="st6"><tspan style="white-space:pre" y="18.4" x="12">暂时不作了解，但可以看一看PCNN</tspan></text></g><g transform="matrix(1,0,0,1,378,560)" ed:height="24.95" ed:width="113.2" ed:layout="rightmap" ed:parentid="104" id="176"><path stroke-linejoin="round" stroke-width="2" fill="none" d="M0,24.9L113.2,24.9" stroke="#5fb7f1"/><text class="st6"><tspan style="white-space:pre" y="16" x="8" class="st4">多尺度几何分析</tspan></text></g><g transform="matrix(1,0,0,1,518,545)" ed:height="24.95" ed:width="151.6" ed:layout="rightmap" ed:parentid="176" id="178"><path stroke-linejoin="round" stroke-width="2" fill="none" d="M0,24.9L151.6,24.9" stroke="#5fb7f1"/><text class="st6"><tspan style="white-space:pre" y="16" x="8">(非下采样)轮廓波变换</tspan></text></g><g transform="matrix(1,0,0,1,518,576)" ed:height="24.95" ed:width="151.6" ed:layout="rightmap" ed:parentid="176" id="180"><path stroke-linejoin="round" stroke-width="2" fill="none" d="M0,24.9L151.6,24.9" stroke="#5fb7f1"/><text class="st6"><tspan style="white-space:pre" y="16" x="8">(非下采样)剪切波变换</tspan></text></g><g transform="matrix(1,0,0,1,696,558)" ed:height="29.2" ed:width="164.184" ed:layout="rightmap" ed:parentid="183" id="184"><path stroke-linejoin="round" fill="#ffffff" d="M14.6,0L149.6,0C157.6,0,164.2,6.5,164.2,14.6C164.2,22.7,157.6,29.2,149.6,29.2L14.6,29.2C6.5,29.2,0,22.7,0,14.6C0,6.5,6.5,0,14.6,0z" stroke="#5fb7f1"/><text class="st6"><tspan style="white-space:pre" y="18.4" x="12">暂时先知道有这个东西</tspan></text></g><g transform="matrix(1,0,0,1,378,281)" ed:height="24.95" ed:width="66" ed:layout="rightmap" ed:parentid="102" id="187"><path stroke-linejoin="round" stroke-width="2" fill="none" d="M0,24.9L66,24.9" stroke="#ff7575"/><text class="st5"><tspan style="white-space:pre" y="16" x="8">Brovey</tspan></text></g><g transform="matrix(1,0,0,1,450,214)" ed:height="29.2" ed:width="286.5839999999999" ed:layout="rightmap" ed:parentid="189" id="190"><path stroke-linejoin="round" fill="#ffffff" d="M14.6,0L272,0C280,0,286.6,6.5,286.6,14.6C286.6,22.7,280,29.2,272,29.2L14.6,29.2C6.5,29.2,0,22.7,0,14.6C0,6.5,6.5,0,14.6,0z" stroke="#ff7575"/><text class="st6"><tspan style="white-space:pre" y="18.4" x="12">既能确定加权融合系数、又能处理遥感图像</tspan></text></g><symbol id="plus"><path fill="url(#lg1)" d="M11,6C11,8.8,8.8,11,6,11C3.2,11,1,8.8,1,6C1,3.2,3.2,1,6,1C8.8,1,11,3.2,11,6z"/><path stroke-width="0.7" fill="none" d="M11,6C11,8.8,8.8,11,6,11C3.2,11,1,8.8,1,6C1,3.2,3.2,1,6,1C8.8,1,11,3.2,11,6zM3,6L9,6M6,3L6,9" stroke="#46a000"/></symbol><symbol id="minus"><path fill="url(#lg1)" d="M11,6C11,8.8,8.8,11,6,11C3.2,11,1,8.8,1,6C1,3.2,3.2,1,6,1C8.8,1,11,3.2,11,6z"/><path stroke-width="0.7" fill="none" d="M11,6C11,8.8,8.8,11,6,11C3.2,11,1,8.8,1,6C1,3.2,3.2,1,6,1C8.8,1,11,3.2,11,6zM3,6L9,6" stroke="#46a000"/></symbol><g transform="translate(189,341)" ed:togtopicid="101"><use xlink:href="#minus"/></g><g transform="translate(352,177)" ed:togtopicid="102"><use xlink:href="#minus"/></g><g transform="translate(352,482)" ed:togtopicid="104"><use xlink:href="#minus"/></g><g transform="translate(465,401)" ed:togtopicid="118"><use xlink:href="#minus"/></g><g transform="translate(451,486)" ed:togtopicid="120"><use xlink:href="#minus"/></g><g transform="translate(492,567)" ed:togtopicid="176"><use xlink:href="#minus"/></g></svg>