<svg xmlns="http://www.w3.org/2000/svg" xmlns:xlink="http://www.w3.org/1999/xlink" ed:hSpacing="30" ed:name="Page-1" id="page100" width="500" viewBox="0 0 500 898" xmlns:ed="https://www.edrawsoft.com/xml/2017/SVGExtensions/" height="898" xmlns:ev="http://www.w3.org/2001/xml-events" ed:vSpacing="30"><style type="text/css"><![CDATA[
g[ed\:togtopicid],g[ed\:hyperlink],g[ed\:comment],g[ed\:note] {cursor:pointer;}
g[id] {-moz-user-select: none;-ms-user-select: none;user-select: none;}
svg text::selection,svg tspan::selection{background-color: #4285f4;color: #ffffff;fill: #ffffff;}
.st1 {fill:#454545;font-family:微软雅黑;font-size:10pt;font-weight:bold}
.st2 {fill:#ff0000;font-family:微软雅黑;font-size:10pt;font-weight:bold}
]]></style><defs><linearGradient id="lg1" x1="0%" y2="100%" x2="0%" y1="0%"><stop offset="0" stop-color="#ffffff"/><stop offset="0.25" stop-color="#f0f5f0"/><stop offset="0.75" stop-color="#e1ebe1"/><stop offset="1" stop-color="#c8d7c8"/></linearGradient></defs><rect width="500" y="0" fill="#fbfcfb" height="898" x="0"/><path id="103" stroke-linecap="round" d="M-32.1,156.7C-32.7,158.4,-32.1,159.9,-30.8,160.4C-29.5,160.9,-28,160.2,-27.4,158.5C-26.6,156.2,-25.8,154,-25.1,151.7C-24.4,149.4,-23.8,147.1,-23.3,144.8C-22.7,142.5,-22.2,140.2,-21.7,137.9C-21.2,135.6,-20.7,133.3,-20.3,131C-19.9,128.7,-19.5,126.3,-19.2,124C-18.8,121.7,-18.5,119.4,-18.2,117C-17.9,114.7,-17.6,112.4,-17.3,110.1C-17,107.7,-16.8,105.4,-16.5,103.1C-16.3,100.7,-16.1,98.4,-15.8,96.1C-15.6,93.7,-15.4,91.4,-15.2,89.1C-15.1,86.7,-14.9,84.4,-14.7,82.1C-14.5,79.8,-14.4,77.4,-14.2,75.1C-14.1,72.8,-13.9,70.4,-13.8,68.1C-13.6,65.8,-13.5,63.4,-13.4,61.1C-13.2,58.8,-13.1,56.4,-13,54.1C-12.9,51.8,-12.7,49.4,-12.6,47.1C-12.5,44.8,-12.4,42.4,-12.3,40.1C-12.2,37.8,-12.1,35.4,-12,33.1C-11.9,30.8,-11.8,28.4,-11.6,26.1C-11.5,23.8,-11.4,21.5,-11.3,19.1C-11.2,16.8,-11.1,14.5,-11,12.1C-10.9,9.8,-10.8,7.5,-10.7,5.1C-10.6,2.8,-10.5,0.5,-10.3,-1.9C-10.2,-4.2,-10.1,-6.5,-10,-8.8C-9.9,-11.2,-9.7,-13.5,-9.6,-15.8C-9.5,-18.1,-9.3,-20.5,-9.2,-22.8C-9.1,-25.1,-8.9,-27.5,-8.8,-29.8C-8.6,-32.1,-8.4,-34.4,-8.3,-36.8C-8.1,-39.1,-7.9,-41.4,-7.8,-43.7C-7.6,-46.1,-7.4,-48.4,-7.2,-50.7C-7,-53,-6.8,-55.3,-6.6,-57.7C-6.4,-60,-6.1,-62.3,-5.9,-64.6C-5.7,-66.9,-5.4,-69.2,-5.2,-71.6C-4.9,-73.9,-4.6,-76.2,-4.3,-78.5C-4,-80.8,-3.7,-83.1,-3.4,-85.4C-3.1,-87.7,-2.7,-90,-2.4,-92.3C-2,-94.6,-1.6,-96.9,-1.2,-99.2C-0.8,-101.5,-0.4,-103.8,0,-106.1C0.5,-108.4,0.9,-110.6,1.4,-112.9C1.9,-115.2,2.5,-117.4,3,-119.7C3.6,-121.9,4.2,-124.2,4.8,-126.4C5.4,-128.7,6.1,-130.9,6.8,-133.1C7.5,-135.3,8.3,-137.5,9.1,-139.7C9.9,-141.9,10.8,-144,11.7,-146.1C12.6,-148.3,13.6,-150.4,14.6,-152.4C15.7,-154.5,16.8,-156.5,18,-158.5C19.2,-160.5,20.5,-162.4,21.9,-164.2C23.3,-166.1,24.8,-167.8,26.3,-169.5C27.9,-171.2,29.6,-172.7,31.4,-174.2C33.2,-175.6,35.1,-176.9,37.2,-178C39.2,-179.1,41.3,-180,43.4,-180.8C45.6,-181.6,47.8,-182.2,50.1,-182.5C52.5,-182.9,55,-183,57.4,-183.1C57.8,-183.1,58,-183.3,58,-183.6C58,-183.9,57.8,-184.1,57.4,-184.1C54.9,-184,52.4,-183.9,50,-183.6C47.6,-183.2,45.3,-182.7,43.1,-181.9C40.8,-181.1,38.7,-180.2,36.6,-179.1C34.5,-177.9,32.5,-176.6,30.6,-175.2C28.8,-173.7,27,-172.2,25.3,-170.5C23.7,-168.8,22.2,-167,20.7,-165.1C19.3,-163.2,17.9,-161.3,16.7,-159.3C15.4,-157.3,14.3,-155.2,13.2,-153.2C12.1,-151.1,11.1,-149,10.1,-146.8C9.2,-144.7,8.3,-142.5,7.4,-140.3C6.6,-138.1,5.8,-135.9,5.1,-133.7C4.3,-131.4,3.6,-129.2,3,-127C2.3,-124.7,1.7,-122.4,1.1,-120.2C0.5,-117.9,-0,-115.6,-0.6,-113.4C-1.1,-111.1,-1.6,-108.8,-2.1,-106.5C-2.5,-104.2,-3,-101.9,-3.4,-99.6C-3.8,-97.3,-4.2,-95,-4.6,-92.7C-5,-90.4,-5.4,-88.1,-5.7,-85.8C-6.1,-83.4,-6.4,-81.1,-6.7,-78.8C-7.1,-76.5,-7.4,-74.2,-7.6,-71.9C-7.9,-69.5,-8.2,-67.2,-8.5,-64.9C-8.7,-62.6,-9,-60.2,-9.2,-57.9C-9.5,-55.6,-9.7,-53.3,-9.9,-50.9C-10.2,-48.6,-10.4,-46.3,-10.6,-44C-10.8,-41.6,-11,-39.3,-11.2,-37C-11.4,-34.6,-11.5,-32.3,-11.7,-30C-11.9,-27.7,-12.1,-25.3,-12.2,-23C-12.4,-20.7,-12.6,-18.3,-12.7,-16C-12.9,-13.7,-13,-11.4,-13.2,-9C-13.3,-6.7,-13.5,-4.4,-13.6,-2C-13.7,0.3,-13.9,2.6,-14,5C-14.2,7.3,-14.3,9.6,-14.4,12C-14.6,14.3,-14.7,16.6,-14.8,18.9C-14.9,21.3,-15.1,23.6,-15.2,25.9C-15.3,28.3,-15.5,30.6,-15.6,32.9C-15.7,35.2,-15.9,37.6,-16,39.9C-16.1,42.2,-16.3,44.6,-16.4,46.9C-16.6,49.2,-16.7,51.5,-16.8,53.9C-17,56.2,-17.1,58.5,-17.3,60.8C-17.5,63.2,-17.6,65.5,-17.8,67.8C-17.9,70.1,-18.1,72.5,-18.3,74.8C-18.5,77.1,-18.7,79.4,-18.9,81.8C-19.1,84.1,-19.3,86.4,-19.5,88.7C-19.7,91,-19.9,93.3,-20.1,95.7C-20.4,98,-20.6,100.3,-20.9,102.6C-21.2,104.9,-21.4,107.2,-21.7,109.5C-22,111.8,-22.3,114.1,-22.7,116.4C-23,118.7,-23.4,121,-23.7,123.3C-24.1,125.6,-24.5,127.8,-24.9,130.1C-25.4,132.4,-25.8,134.7,-26.3,136.9C-26.8,139.2,-27.4,141.4,-27.9,143.6C-28.5,145.9,-29.1,148.1,-29.8,150.2C-30.5,152.4,-31.3,154.6,-32.1,156.7z" fill="#ff7575" stroke="#ff7575" stroke-linejoin="round" transform="matrix(1,0,0,1,133,266)" ed:parentid="101" ed:tosuperid="102"/><path id="105" stroke-linecap="round" d="M-28.8,88.8C-29.5,90.4,-29,92,-27.7,92.5C-26.5,93,-24.9,92.4,-24.2,90.7C-23.4,88.5,-22.5,86.3,-21.7,84C-20.9,81.8,-20.2,79.5,-19.5,77.3C-18.9,75,-18.3,72.7,-17.7,70.4C-17.1,68.1,-16.6,65.8,-16.1,63.5C-15.6,61.2,-15.1,58.9,-14.7,56.6C-14.2,54.3,-13.8,52,-13.4,49.7C-13,47.4,-12.6,45.1,-12.2,42.8C-11.9,40.4,-11.5,38.1,-11.2,35.8C-10.8,33.5,-10.5,31.2,-10.1,28.9C-9.8,26.6,-9.5,24.3,-9.2,21.9C-8.8,19.6,-8.5,17.3,-8.2,15C-7.9,12.7,-7.6,10.4,-7.3,8.1C-7,5.7,-6.7,3.4,-6.3,1.1C-6,-1.2,-5.7,-3.5,-5.4,-5.8C-5,-8.1,-4.7,-10.4,-4.4,-12.7C-4,-15,-3.7,-17.3,-3.3,-19.6C-2.9,-21.9,-2.6,-24.2,-2.2,-26.5C-1.8,-28.8,-1.4,-31.1,-0.9,-33.4C-0.5,-35.7,-0.1,-37.9,0.4,-40.2C0.9,-42.5,1.3,-44.8,1.9,-47C2.4,-49.3,2.9,-51.6,3.5,-53.8C4,-56.1,4.6,-58.3,5.3,-60.5C5.9,-62.8,6.6,-65,7.3,-67.2C8.1,-69.4,8.8,-71.6,9.6,-73.7C10.5,-75.9,11.3,-78,12.3,-80.2C13.2,-82.3,14.2,-84.3,15.3,-86.4C16.4,-88.4,17.6,-90.4,18.8,-92.4C20.1,-94.3,21.4,-96.2,22.9,-97.9C24.3,-99.7,25.9,-101.4,27.6,-103C29.2,-104.6,31,-106,32.9,-107.4C34.8,-108.7,36.8,-109.8,38.8,-110.8C40.9,-111.8,43,-112.6,45.3,-113.2C47.6,-113.8,50,-114.3,52.1,-114.5C54.1,-114.8,55.8,-114.8,57.4,-114.8C57.8,-114.8,58,-115.1,58,-115.3C58,-115.6,57.8,-115.8,57.4,-115.8C55.7,-115.8,54.1,-115.8,51.9,-115.6C49.8,-115.4,47.3,-115,45,-114.4C42.6,-113.8,40.4,-113,38.3,-112C36.1,-111,34,-109.9,32.1,-108.6C30.1,-107.2,28.2,-105.8,26.5,-104.2C24.7,-102.6,23.1,-100.8,21.6,-99C20.1,-97.2,18.6,-95.3,17.3,-93.3C16,-91.4,14.8,-89.4,13.6,-87.3C12.5,-85.2,11.4,-83.1,10.4,-81C9.4,-78.9,8.5,-76.7,7.6,-74.5C6.8,-72.3,5.9,-70.1,5.2,-67.9C4.4,-65.7,3.7,-63.5,3,-61.2C2.3,-59,1.7,-56.7,1,-54.5C0.4,-52.2,-0.2,-49.9,-0.7,-47.6C-1.3,-45.4,-1.8,-43.1,-2.3,-40.8C-2.8,-38.5,-3.3,-36.2,-3.8,-33.9C-4.2,-31.6,-4.7,-29.3,-5.1,-27C-5.5,-24.7,-6,-22.4,-6.4,-20.1C-6.8,-17.8,-7.2,-15.5,-7.5,-13.2C-7.9,-10.9,-8.3,-8.6,-8.7,-6.3C-9,-4,-9.4,-1.7,-9.8,0.6C-10.1,2.9,-10.5,5.2,-10.8,7.5C-11.2,9.9,-11.5,12.2,-11.9,14.5C-12.2,16.8,-12.6,19.1,-12.9,21.4C-13.3,23.7,-13.7,26,-14,28.3C-14.4,30.6,-14.8,32.9,-15.2,35.2C-15.5,37.5,-15.9,39.8,-16.3,42.1C-16.8,44.3,-17.2,46.6,-17.6,48.9C-18.1,51.2,-18.5,53.5,-19,55.7C-19.5,58,-20,60.3,-20.5,62.5C-21,64.8,-21.6,67,-22.2,69.2C-22.8,71.5,-23.4,73.7,-24.1,75.9C-24.8,78.1,-25.5,80.3,-26.3,82.4C-27.1,84.5,-28,86.7,-28.8,88.8z" fill="#5fb7f1" stroke="#5fb7f1" stroke-linejoin="round" transform="matrix(1,0,0,1,133,334)" ed:parentid="101" ed:tosuperid="104"/><path id="107" stroke-linecap="round" d="M-20.7,-52.9C-21.5,-54.5,-23.1,-55,-24.3,-54.3C-25.6,-53.7,-26,-52.1,-25.1,-50.5C-24.1,-48.5,-23,-46.5,-22,-44.4C-21,-42.3,-20.1,-40.2,-19.2,-38.1C-18.3,-36,-17.5,-33.8,-16.7,-31.7C-15.8,-29.5,-15.1,-27.3,-14.3,-25.1C-13.5,-22.9,-12.8,-20.7,-12.1,-18.5C-11.3,-16.3,-10.6,-14.1,-9.9,-11.9C-9.2,-9.7,-8.5,-7.5,-7.8,-5.2C-7.1,-3,-6.4,-0.8,-5.7,1.5C-5,3.7,-4.3,5.9,-3.6,8.1C-2.9,10.4,-2.1,12.6,-1.4,14.8C-0.6,17,0.1,19.2,0.9,21.4C1.7,23.6,2.6,25.8,3.4,28C4.3,30.2,5.2,32.4,6.1,34.5C7.1,36.7,8,38.8,9.1,41C10.1,43.1,11.2,45.2,12.4,47.2C13.6,49.3,14.8,51.3,16.1,53.2C17.4,55.2,18.8,57.1,20.4,58.9C21.9,60.8,23.5,62.5,25.2,64.2C26.9,65.8,28.7,67.3,30.7,68.7C32.6,70.1,34.7,71.3,36.8,72.3C38.9,73.4,41.1,74.2,43.4,74.9C45.7,75.6,48,76.1,50.4,76.4C52.7,76.7,55.1,76.7,57.4,76.8C57.8,76.8,58,76.5,58,76.3C58,76,57.8,75.8,57.4,75.8C55.1,75.7,52.8,75.5,50.5,75.2C48.2,74.9,46,74.3,43.8,73.6C41.6,72.9,39.5,72,37.5,71C35.4,69.9,33.5,68.7,31.7,67.3C29.8,66,28.1,64.4,26.5,62.8C24.9,61.2,23.4,59.5,21.9,57.7C20.5,55.8,19.2,54,18,52C16.7,50.1,15.6,48.1,14.5,46C13.4,44,12.4,41.9,11.4,39.8C10.4,37.7,9.5,35.6,8.7,33.5C7.8,31.3,7,29.2,6.2,27C5.4,24.8,4.6,22.6,3.9,20.4C3.1,18.2,2.4,16,1.7,13.8C1,11.6,0.4,9.3,-0.3,7.1C-1,4.9,-1.6,2.6,-2.3,0.4C-2.9,-1.8,-3.6,-4.1,-4.2,-6.3C-4.8,-8.6,-5.5,-10.8,-6.1,-13.1C-6.8,-15.3,-7.5,-17.5,-8.1,-19.8C-8.8,-22,-9.5,-24.3,-10.2,-26.5C-10.9,-28.7,-11.7,-31,-12.5,-33.2C-13.2,-35.4,-14,-37.6,-14.9,-39.8C-15.7,-42,-16.6,-44.2,-17.6,-46.4C-18.6,-48.6,-19.7,-50.7,-20.7,-52.9z" fill="#f1a3dc" stroke="#f1a3dc" stroke-linejoin="round" transform="matrix(1,0,0,1,133,525)" ed:parentid="101" ed:tosuperid="106"/><path id="109" stroke-linecap="round" d="M-13.5,17.5C1.2,17.5,-3.8,-17.5,13.5,-17.5" stroke-width="2" fill="none" stroke="#ff7575" stroke-linejoin="round" transform="matrix(1,0,0,1,295,64)" ed:parentid="102" ed:tosuperid="108"/><path id="111" stroke-linecap="round" d="M-13.5,1.8C-2.3,1.8,4.4,-1.8,13.5,-1.8" stroke-width="2" fill="none" stroke="#ff7575" stroke-linejoin="round" transform="matrix(1,0,0,1,295,80)" ed:parentid="102" ed:tosuperid="110"/><path id="113" stroke-linecap="round" d="M-13.5,-14C0.5,-14,-2.1,14,13.5,14" stroke-width="2" fill="none" stroke="#ff7575" stroke-linejoin="round" transform="matrix(1,0,0,1,295,96)" ed:parentid="102" ed:tosuperid="112"/><path id="115" stroke-linecap="round" d="M-13.5,48.9C5.3,48.9,-13.3,-48.9,13.5,-48.9" stroke-width="2" fill="none" stroke="#f1a3dc" stroke-linejoin="round" transform="matrix(1,0,0,1,295,553)" ed:parentid="106" ed:tosuperid="114"/><path id="117" stroke-linecap="round" d="M-13.5,1.7C-2.3,1.7,4.4,-1.8,13.5,-1.8" stroke-width="2" fill="none" stroke="#f1a3dc" stroke-linejoin="round" transform="matrix(1,0,0,1,295,600)" ed:parentid="106" ed:tosuperid="116"/><path id="119" stroke-linecap="round" d="M-13.5,-45.4C5.1,-45.4,-12.9,45.4,13.5,45.4" stroke-width="2" fill="none" stroke="#f1a3dc" stroke-linejoin="round" transform="matrix(1,0,0,1,295,647)" ed:parentid="106" ed:tosuperid="118"/><path id="121" stroke-linecap="round" d="M-13.5,9.6C-0.5,9.6,0.2,-9.6,13.5,-9.6" stroke-width="2" fill="none" stroke="#5fb7f1" stroke-linejoin="round" transform="matrix(1,0,0,1,295,209)" ed:parentid="104" ed:tosuperid="120"/><path id="123" stroke-linecap="round" d="M-13.5,25.3C2.7,25.3,-7.3,-25.3,13.5,-25.3" stroke-width="2" fill="none" stroke="#5fb7f1" stroke-linejoin="round" transform="matrix(1,0,0,1,295,193)" ed:parentid="104" ed:tosuperid="122"/><path id="125" stroke-linecap="round" d="M-13.5,-6.1C-1.3,-6.1,2.1,6.1,13.5,6.1" stroke-width="2" fill="none" stroke="#5fb7f1" stroke-linejoin="round" transform="matrix(1,0,0,1,295,225)" ed:parentid="104" ed:tosuperid="124"/><path id="127" stroke-linecap="round" d="M-13.5,-21.8C2.1,-21.8,-5.8,21.8,13.5,21.8" stroke-width="2" fill="none" stroke="#5fb7f1" stroke-linejoin="round" transform="matrix(1,0,0,1,295,240)" ed:parentid="104" ed:tosuperid="126"/><path id="135" stroke-linecap="round" d="M-13.5,31.5C3.7,31.5,-9.6,-31.4,13.5,-31.4" stroke-width="2" fill="none" stroke="#f1a3dc" stroke-linejoin="round" transform="matrix(1,0,0,1,365,567)" ed:parentid="116" ed:tosuperid="134"/><path id="137" stroke-linecap="round" d="M-13.5,15.7C0.9,15.7,-2.9,-15.7,13.5,-15.7" stroke-width="2" fill="none" stroke="#f1a3dc" stroke-linejoin="round" transform="matrix(1,0,0,1,365,582)" ed:parentid="116" ed:tosuperid="136"/><path id="139" stroke-linecap="round" d="M-13.5,0C-2.7,0,5.4,0,13.5,0" stroke-width="2" fill="none" stroke="#f1a3dc" stroke-linejoin="round" transform="matrix(1,0,0,1,365,598)" ed:parentid="116" ed:tosuperid="138"/><path id="141" stroke-linecap="round" d="M-13.5,-15.7C0.9,-15.7,-2.9,15.7,13.5,15.7" stroke-width="2" fill="none" stroke="#f1a3dc" stroke-linejoin="round" transform="matrix(1,0,0,1,365,614)" ed:parentid="116" ed:tosuperid="140"/><path id="143" stroke-linecap="round" d="M-13.5,-31.5C3.7,-31.5,-9.6,31.5,13.5,31.5" stroke-width="2" fill="none" stroke="#f1a3dc" stroke-linejoin="round" transform="matrix(1,0,0,1,365,630)" ed:parentid="116" ed:tosuperid="142"/><path id="145" stroke-linecap="round" d="M-14.7,11.2C-16,12.3,-16.2,14,-15.3,15C-14.4,16.1,-12.7,16.2,-11.4,14.9C-9.7,13.3,-7.9,11.7,-6.2,10C-4.6,8.4,-2.9,6.7,-1.3,5C0.3,3.3,1.9,1.6,3.5,-0.1C5.2,-1.7,6.8,-3.4,8.4,-5.1C10,-6.7,11.6,-8.4,13.3,-10C15,-11.6,16.7,-13.1,18.4,-14.6C20.2,-16.1,22,-17.6,23.8,-18.9C25.7,-20.3,27.6,-21.6,29.5,-22.8C31.5,-23.9,33.5,-25,35.6,-25.9C37.7,-26.9,39.9,-27.7,42,-28.4C44.2,-29.1,46.3,-29.6,48.8,-30C51.2,-30.4,54.1,-30.6,55.6,-30.8C57.2,-30.9,57.3,-30.8,57.4,-30.8C57.8,-30.8,58,-31,58,-31.3C58,-31.6,57.8,-31.7,57.4,-31.8C57.3,-31.9,57.2,-31.9,55.6,-31.8C54.1,-31.8,51.1,-31.7,48.5,-31.4C46,-31.1,43.8,-30.6,41.6,-30.1C39.3,-29.5,37,-28.7,34.8,-27.8C32.6,-27,30.4,-26,28.4,-24.8C26.3,-23.7,24.2,-22.5,22.3,-21.2C20.3,-19.8,18.4,-18.4,16.5,-17C14.6,-15.5,12.8,-14,11,-12.5C9.3,-10.9,7.5,-9.3,5.8,-7.7C4.1,-6.1,2.4,-4.5,0.7,-2.9C-1,-1.3,-2.7,0.3,-4.4,1.9C-6,3.5,-7.7,5.1,-9.5,6.6C-11.2,8.2,-12.9,9.7,-14.7,11.2z" fill="#ffcd55" stroke="#ffcd55" stroke-linejoin="round" transform="matrix(1,0,0,1,133,418)" ed:parentid="101" ed:tosuperid="144"/><path id="147" stroke-linecap="round" d="M-13.5,17.5C1.2,17.5,-3.8,-17.5,13.5,-17.5" stroke-width="2" fill="none" stroke="#ffcd55" stroke-linejoin="round" transform="matrix(1,0,0,1,295,369)" ed:parentid="144" ed:tosuperid="146"/><path id="149" stroke-linecap="round" d="M-13.5,1.7C-2.3,1.7,4.4,-1.8,13.5,-1.8" stroke-width="2" fill="none" stroke="#ffcd55" stroke-linejoin="round" transform="matrix(1,0,0,1,295,385)" ed:parentid="144" ed:tosuperid="148"/><path id="151" stroke-linecap="round" d="M-13.5,-21.8C2.1,-21.8,-5.8,21.8,13.5,21.8" stroke-width="2" fill="none" stroke="#ffcd55" stroke-linejoin="round" transform="matrix(1,0,0,1,295,408)" ed:parentid="144" ed:tosuperid="150"/><path id="157" stroke-linecap="round" d="M-13.5,7.9C-0.9,7.9,1.1,-7.9,13.5,-7.9" stroke-width="2" fill="none" stroke="#ffcd55" stroke-linejoin="round" transform="matrix(1,0,0,1,370,422)" ed:parentid="150" ed:tosuperid="156"/><path id="159" stroke-linecap="round" d="M-13.5,-7.9C-0.9,-7.9,1.1,7.9,13.5,7.9" stroke-width="2" fill="none" stroke="#ffcd55" stroke-linejoin="round" transform="matrix(1,0,0,1,370,438)" ed:parentid="150" ed:tosuperid="158"/><path id="161" stroke-linecap="round" d="M-27.4,-158.7C-28,-160.4,-29.5,-161.1,-30.8,-160.7C-32.1,-160.2,-32.7,-158.7,-32.1,-157C-31.3,-154.8,-30.5,-152.7,-29.8,-150.5C-29.2,-148.3,-28.5,-146.1,-28,-143.9C-27.4,-141.7,-26.8,-139.4,-26.3,-137.2C-25.8,-134.9,-25.4,-132.6,-25,-130.4C-24.5,-128.1,-24.1,-125.8,-23.7,-123.5C-23.4,-121.2,-23,-119,-22.7,-116.7C-22.4,-114.4,-22,-112.1,-21.7,-109.8C-21.5,-107.5,-21.2,-105.2,-20.9,-102.8C-20.6,-100.5,-20.4,-98.2,-20.2,-95.9C-19.9,-93.6,-19.7,-91.3,-19.5,-89C-19.3,-86.6,-19.1,-84.3,-18.9,-82C-18.7,-79.7,-18.5,-77.4,-18.3,-75C-18.1,-72.7,-18,-70.4,-17.8,-68.1C-17.6,-65.7,-17.5,-63.4,-17.3,-61.1C-17.2,-58.8,-17,-56.4,-16.9,-54.1C-16.7,-51.8,-16.6,-49.5,-16.4,-47.1C-16.3,-44.8,-16.2,-42.5,-16,-40.2C-15.9,-37.8,-15.8,-35.5,-15.6,-33.2C-15.5,-30.8,-15.4,-28.5,-15.2,-26.2C-15.1,-23.8,-15,-21.5,-14.8,-19.2C-14.7,-16.9,-14.6,-14.5,-14.4,-12.2C-14.3,-9.9,-14.2,-7.5,-14,-5.2C-13.9,-2.9,-13.8,-0.5,-13.6,1.8C-13.5,4.1,-13.3,6.4,-13.2,8.8C-13,11.1,-12.9,13.4,-12.7,15.8C-12.6,18.1,-12.4,20.4,-12.3,22.8C-12.1,25.1,-11.9,27.4,-11.7,29.7C-11.6,32.1,-11.4,34.4,-11.2,36.7C-11,39.1,-10.8,41.4,-10.6,43.7C-10.4,46,-10.2,48.4,-10,50.7C-9.8,53,-9.5,55.3,-9.3,57.7C-9,60,-8.8,62.3,-8.5,64.6C-8.3,67,-8,69.3,-7.7,71.6C-7.4,73.9,-7.1,76.2,-6.8,78.6C-6.5,80.9,-6.2,83.2,-5.8,85.5C-5.5,87.8,-5.1,90.1,-4.7,92.4C-4.3,94.8,-3.9,97.1,-3.5,99.4C-3.1,101.7,-2.6,104,-2.2,106.3C-1.7,108.5,-1.2,110.8,-0.7,113.1C-0.1,115.4,0.4,117.7,1,119.9C1.6,122.2,2.2,124.5,2.8,126.7C3.5,129,4.2,131.2,4.9,133.4C5.7,135.7,6.4,137.9,7.3,140.1C8.1,142.3,9,144.4,9.9,146.6C10.9,148.7,11.9,150.9,13,153C14.1,155.1,15.2,157.1,16.4,159.1C17.7,161.1,19,163.1,20.4,165C21.8,166.8,23.4,168.6,25,170.3C26.6,172.1,28.4,173.7,30.2,175.1C32.1,176.6,34,177.9,36.1,179.1C38.2,180.2,40.4,181.2,42.6,182C44.8,182.8,47,183.4,49.5,183.7C51.9,184.1,54.7,184.2,57.4,184.4C57.8,184.4,58,184.2,58,183.9C58,183.6,57.8,183.4,57.4,183.4C54.7,183.2,52.1,183.1,49.6,182.7C47.2,182.3,45.1,181.7,43,180.9C40.9,180.1,38.7,179.1,36.7,178C34.7,176.9,32.8,175.6,31.1,174.1C29.3,172.7,27.6,171.1,26,169.4C24.4,167.7,23,165.9,21.6,164.1C20.2,162.2,18.9,160.3,17.8,158.3C16.6,156.3,15.4,154.3,14.4,152.2C13.4,150.2,12.4,148.1,11.5,145.9C10.6,143.8,9.7,141.6,8.9,139.5C8.1,137.3,7.4,135.1,6.7,132.9C6,130.7,5.3,128.4,4.7,126.2C4.1,124,3.5,121.7,2.9,119.5C2.4,117.2,1.8,114.9,1.3,112.7C0.8,110.4,0.4,108.1,-0.1,105.8C-0.5,103.5,-0.9,101.3,-1.3,99C-1.7,96.7,-2.1,94.4,-2.4,92.1C-2.8,89.8,-3.1,87.5,-3.5,85.2C-3.8,82.9,-4.1,80.6,-4.4,78.2C-4.7,75.9,-4.9,73.6,-5.2,71.3C-5.5,69,-5.7,66.7,-6,64.4C-6.2,62.1,-6.4,59.7,-6.6,57.4C-6.8,55.1,-7,52.8,-7.2,50.5C-7.4,48.1,-7.6,45.8,-7.8,43.5C-8,41.2,-8.2,38.8,-8.3,36.5C-8.5,34.2,-8.6,31.9,-8.8,29.5C-8.9,27.2,-9.1,24.9,-9.2,22.6C-9.4,20.2,-9.5,17.9,-9.6,15.6C-9.8,13.2,-9.9,10.9,-10,8.6C-10.1,6.3,-10.2,3.9,-10.4,1.6C-10.5,-0.7,-10.6,-3.1,-10.7,-5.4C-10.8,-7.7,-10.9,-10,-11,-12.4C-11.1,-14.7,-11.2,-17,-11.3,-19.4C-11.5,-21.7,-11.6,-24,-11.7,-26.4C-11.8,-28.7,-11.9,-31,-12,-33.4C-12.1,-35.7,-12.2,-38,-12.3,-40.3C-12.4,-42.7,-12.5,-45,-12.6,-47.3C-12.8,-49.7,-12.9,-52,-13,-54.3C-13.1,-56.7,-13.2,-59,-13.4,-61.3C-13.5,-63.7,-13.6,-66,-13.8,-68.3C-13.9,-70.7,-14.1,-73,-14.2,-75.3C-14.4,-77.7,-14.5,-80,-14.7,-82.3C-14.9,-84.7,-15.1,-87,-15.3,-89.3C-15.4,-91.7,-15.6,-94,-15.9,-96.3C-16.1,-98.7,-16.3,-101,-16.5,-103.3C-16.8,-105.6,-17,-108,-17.3,-110.3C-17.6,-112.6,-17.9,-115,-18.2,-117.3C-18.5,-119.6,-18.8,-121.9,-19.2,-124.3C-19.5,-126.6,-19.9,-128.9,-20.3,-131.2C-20.8,-133.5,-21.2,-135.9,-21.7,-138.2C-22.2,-140.5,-22.7,-142.8,-23.3,-145.1C-23.8,-147.4,-24.4,-149.7,-25.1,-151.9C-25.8,-154.2,-26.6,-156.5,-27.4,-158.7z" fill="#6cc9e5" stroke="#6cc9e5" stroke-linejoin="round" transform="matrix(1,0,0,1,133,633)" ed:parentid="101" ed:tosuperid="160"/><path id="163" stroke-linecap="round" d="M-13.5,25.3C2.7,25.3,-7.3,-25.3,13.5,-25.3" stroke-width="2" fill="none" stroke="#6cc9e5" stroke-linejoin="round" transform="matrix(1,0,0,1,267,792)" ed:parentid="160" ed:tosuperid="162"/><path id="165" stroke-linecap="round" d="M-13.5,1.8C-2.3,1.8,4.4,-1.8,13.5,-1.8" stroke-width="2" fill="none" stroke="#6cc9e5" stroke-linejoin="round" transform="matrix(1,0,0,1,267,815)" ed:parentid="160" ed:tosuperid="164"/><path id="168" stroke-linecap="round" d="M-13.5,-14C0.5,-14,-2.1,14,13.5,14" stroke-width="2" fill="none" stroke="#6cc9e5" stroke-linejoin="round" transform="matrix(1,0,0,1,267,831)" ed:parentid="160" ed:tosuperid="167"/><path id="170" stroke-linecap="round" d="M-13.5,-29.7C3.5,-29.7,-9,29.7,13.5,29.7" stroke-width="2" fill="none" stroke="#6cc9e5" stroke-linejoin="round" transform="matrix(1,0,0,1,267,847)" ed:parentid="160" ed:tosuperid="169"/><path id="174" stroke-linecap="round" d="M-13.5,33.2C4,33.2,-10.1,-33.2,13.5,-33.2" stroke-width="2" fill="none" stroke="#ffcd55" stroke-linejoin="round" transform="matrix(1,0,0,1,295,353)" ed:parentid="144" ed:tosuperid="173"/><path id="176" stroke-linecap="round" d="M-13.5,7.9C-0.9,7.9,1.1,-7.9,13.5,-7.9" stroke-width="2" fill="none" stroke="#6cc9e5" stroke-linejoin="round" transform="matrix(1,0,0,1,359,758)" ed:parentid="162" ed:tosuperid="175"/><path id="178" stroke-linecap="round" d="M-13.5,-7.9C-0.9,-7.9,1.1,7.9,13.5,7.9" stroke-width="2" fill="none" stroke="#6cc9e5" stroke-linejoin="round" transform="matrix(1,0,0,1,359,774)" ed:parentid="162" ed:tosuperid="177"/><g id="101" ed:layout="rightmap" ed:topictype="mainidea" transform="matrix(1,0,0,1,24,423)" ed:width="103.744" ed:height="52.2"><path d="M26.1,0L77.6,0C92.1,0,103.7,11.7,103.7,26.1C103.7,40.5,92.1,52.2,77.6,52.2L26.1,52.2C11.7,52.2,0,40.5,0,26.1C0,11.7,11.7,0,26.1,0z" stroke-width="4" fill="#ffffff" stroke="#ffffff" stroke-linejoin="round"/><text class="st1"><tspan style="white-space:pre" y="30" x="23">图像特征</tspan></text></g><g id="102" transform="matrix(1,0,0,1,191,50)" ed:width="90.40000000000001" ed:parentid="101" ed:height="31.95"><path d="M0,32L90.4,32" stroke-width="2" fill="none" stroke="#ff7575" stroke-linejoin="round"/><text class="st1"><tspan style="white-space:pre" y="19.6" x="17">斑点检测</tspan></text></g><g id="104" transform="matrix(1,0,0,1,191,187)" ed:width="90.40000000000001" ed:parentid="101" ed:height="31.95"><path d="M0,32L90.4,32" stroke-width="2" fill="none" stroke="#5fb7f1" stroke-linejoin="round"/><text class="st1"><tspan style="white-space:pre" y="19.6" x="17">角点检测</tspan></text></g><g id="106" transform="matrix(1,0,0,1,191,570)" ed:width="90.40000000000001" ed:parentid="101" ed:height="31.95"><path d="M0,32L90.4,32" stroke-width="2" fill="none" stroke="#f1a3dc" stroke-linejoin="round"/><text class="st1"><tspan style="white-space:pre" y="19.6" x="17">人脸检测</tspan></text></g><g id="108" transform="matrix(1,0,0,1,308,22)" ed:width="44.4" ed:parentid="102" ed:height="24.95"><path d="M0,24.9L44.4,24.9" stroke-width="2" fill="none" stroke="#ff7575" stroke-linejoin="round"/><text class="st1"><tspan style="white-space:pre" y="16" x="8">LoG</tspan></text></g><g id="110" transform="matrix(1,0,0,1,308,53)" ed:width="47.6" ed:parentid="102" ed:height="24.95"><path d="M0,24.9L47.6,24.9" stroke-width="2" fill="none" stroke="#ff7575" stroke-linejoin="round"/><text class="st1"><tspan style="white-space:pre" y="16" x="8">DoG</tspan></text></g><g id="112" transform="matrix(1,0,0,1,308,85)" ed:width="48.4" ed:parentid="102" ed:height="24.95"><path d="M0,24.9L48.4,24.9" stroke-width="2" fill="none" stroke="#ff7575" stroke-linejoin="round"/><text class="st1"><tspan style="white-space:pre" y="16" x="8">DoH</tspan></text></g><g id="114" transform="matrix(1,0,0,1,308,479)" ed:width="50.8" ed:parentid="106" ed:height="24.95"><path d="M0,24.9L50.8,24.9" stroke-width="2" fill="none" stroke="#f1a3dc" stroke-linejoin="round"/><text class="st1"><tspan style="white-space:pre" y="16" x="8">HOG</tspan></text></g><g id="116" transform="matrix(1,0,0,1,308,573)" ed:width="43.6" ed:parentid="106" ed:height="24.95"><path d="M0,24.9L43.6,24.9" stroke-width="2" fill="none" stroke="#f1a3dc" stroke-linejoin="round"/><text class="st1"><tspan style="white-space:pre" y="16" x="8">LBP</tspan></text></g><g id="118" transform="matrix(1,0,0,1,308,668)" ed:width="50.8" ed:parentid="106" ed:height="24.95"><path d="M0,24.9L50.8,24.9" stroke-width="2" fill="none" stroke="#f1a3dc" stroke-linejoin="round"/><text class="st1"><tspan style="white-space:pre" y="16" x="8">Haar</tspan></text></g><g id="120" transform="matrix(1,0,0,1,308,174)" ed:width="58.8" ed:parentid="104" ed:height="24.95"><path d="M0,24.9L58.8,24.9" stroke-width="2" fill="none" stroke="#5fb7f1" stroke-linejoin="round"/><text class="st1"><tspan style="white-space:pre" y="16" x="8">Harris</tspan></text></g><g id="122" transform="matrix(1,0,0,1,308,143)" ed:width="77.2" ed:parentid="104" ed:height="24.95"><path d="M0,24.9L77.2,24.9" stroke-width="2" fill="none" stroke="#5fb7f1" stroke-linejoin="round"/><text class="st1"><tspan style="white-space:pre" y="16" x="8">Moravec</tspan></text></g><g id="124" transform="matrix(1,0,0,1,308,206)" ed:width="88.40000000000001" ed:parentid="104" ed:height="24.95"><path d="M0,24.9L88.4,24.9" stroke-width="2" fill="none" stroke="#5fb7f1" stroke-linejoin="round"/><text class="st1"><tspan style="white-space:pre" y="16" x="8">ShiTomasi</tspan></text></g><g id="126" transform="matrix(1,0,0,1,308,237)" ed:width="58" ed:parentid="104" ed:height="24.95"><path d="M0,24.9L58,24.9" stroke-width="2" fill="none" stroke="#5fb7f1" stroke-linejoin="round"/><text class="st1"><tspan style="white-space:pre" y="16" x="8">Susan</tspan></text></g><g id="134" transform="matrix(1,0,0,1,379,510)" ed:width="58.8" ed:parentid="116" ed:height="24.95"><path d="M0,24.9L58.8,24.9" stroke-width="2" fill="none" stroke="#f1a3dc" stroke-linejoin="round"/><text class="st1"><tspan style="white-space:pre" y="16" x="8">原始的</tspan></text></g><g id="136" transform="matrix(1,0,0,1,379,542)" ed:width="58.8" ed:parentid="116" ed:height="24.95"><path d="M0,24.9L58.8,24.9" stroke-width="2" fill="none" stroke="#f1a3dc" stroke-linejoin="round"/><text class="st1"><tspan style="white-space:pre" y="16" x="8">圆形的</tspan></text></g><g id="138" transform="matrix(1,0,0,1,379,573)" ed:width="86" ed:parentid="116" ed:height="24.95"><path d="M0,24.9L86,24.9" stroke-width="2" fill="none" stroke="#f1a3dc" stroke-linejoin="round"/><text class="st1"><tspan style="white-space:pre" y="16" x="8">旋转不变的</tspan></text></g><g id="140" transform="matrix(1,0,0,1,379,605)" ed:width="86" ed:parentid="116" ed:height="24.95"><path d="M0,24.9L86,24.9" stroke-width="2" fill="none" stroke="#f1a3dc" stroke-linejoin="round"/><text class="st1"><tspan style="white-space:pre" y="16" x="8">等价模式的</tspan></text></g><g id="142" transform="matrix(1,0,0,1,379,636)" ed:width="99.59999999999999" ed:parentid="116" ed:height="24.95"><path d="M0,24.9L99.6,24.9" stroke-width="2" fill="none" stroke="#f1a3dc" stroke-linejoin="round"/><text class="st1"><tspan style="white-space:pre" y="16" x="8">多尺度分块的</tspan></text></g><g id="144" transform="matrix(1,0,0,1,191,355)" ed:width="90.40000000000001" ed:parentid="101" ed:height="31.95"><path d="M0,32L90.4,32" stroke-width="2" fill="none" stroke="#ffcd55" stroke-linejoin="round"/><text class="st1"><tspan style="white-space:pre" y="19.6" x="17">特征检测</tspan></text></g><g id="146" transform="matrix(1,0,0,1,308,327)" ed:width="46.8" ed:parentid="144" ed:height="24.95"><path d="M0,24.9L46.8,24.9" stroke-width="2" fill="none" stroke="#ffcd55" stroke-linejoin="round"/><text class="st2"><tspan style="white-space:pre" y="16" x="8">SIFT</tspan></text></g><g id="148" transform="matrix(1,0,0,1,308,358)" ed:width="53.2" ed:parentid="144" ed:height="24.95"><path d="M0,24.9L53.2,24.9" stroke-width="2" fill="none" stroke="#ffcd55" stroke-linejoin="round"/><text class="st2"><tspan style="white-space:pre" y="16" x="8">SURF</tspan></text></g><g id="150" transform="matrix(1,0,0,1,308,405)" ed:width="48.4" ed:parentid="144" ed:height="24.95"><path d="M0,24.9L48.4,24.9" stroke-width="2" fill="none" stroke="#ffcd55" stroke-linejoin="round"/><text class="st2"><tspan style="white-space:pre" y="16" x="8">ORB</tspan></text></g><g id="156" transform="matrix(1,0,0,1,384,390)" ed:width="45.2" ed:parentid="150" ed:height="24.95"><path d="M0,24.9L45.2,24.9" stroke-width="2" fill="none" stroke="#ffcd55" stroke-linejoin="round"/><text class="st1"><tspan style="white-space:pre" y="16" x="8">Fast</tspan></text></g><g id="158" transform="matrix(1,0,0,1,384,421)" ed:width="50.8" ed:parentid="150" ed:height="24.95"><path d="M0,24.9L50.8,24.9" stroke-width="2" fill="none" stroke="#ffcd55" stroke-linejoin="round"/><text class="st1"><tspan style="white-space:pre" y="16" x="8">Brief</tspan></text></g><g id="160" transform="matrix(1,0,0,1,191,785)" ed:width="63.2" ed:parentid="101" ed:height="31.95"><path d="M0,32L63.2,32" stroke-width="2" fill="none" stroke="#6cc9e5" stroke-linejoin="round"/><text class="st1"><tspan style="white-space:pre" y="19.6" x="17">其它</tspan></text></g><g id="162" transform="matrix(1,0,0,1,281,741)" ed:width="64.40000000000001" ed:parentid="160" ed:height="24.95"><path d="M0,24.9L64.4,24.9" stroke-width="2" fill="none" stroke="#6cc9e5" stroke-linejoin="round"/><text class="st1"><tspan style="white-space:pre" y="16" x="8">Hough</tspan></text></g><g id="164" transform="matrix(1,0,0,1,281,788)" ed:width="38" ed:parentid="160" ed:height="24.95"><path d="M0,24.9L38,24.9" stroke-width="2" fill="none" stroke="#6cc9e5" stroke-linejoin="round"/><text class="st1"><tspan style="white-space:pre" y="16" x="8">Hu</tspan></text></g><g id="167" transform="matrix(1,0,0,1,281,820)" ed:width="94.8" ed:parentid="160" ed:height="24.95"><path d="M0,24.9L94.8,24.9" stroke-width="2" fill="none" stroke="#6cc9e5" stroke-linejoin="round"/><text class="st1"><tspan style="white-space:pre" y="16" x="8">GrayMatrix</tspan></text></g><g id="169" transform="matrix(1,0,0,1,281,851)" ed:width="76.40000000000001" ed:parentid="160" ed:height="24.95"><path d="M0,24.9L76.4,24.9" stroke-width="2" fill="none" stroke="#6cc9e5" stroke-linejoin="round"/><text class="st1"><tspan style="white-space:pre" y="16" x="8">RANSAC</tspan></text></g><g id="173" transform="matrix(1,0,0,1,308,295)" ed:width="57.2" ed:parentid="144" ed:height="24.95"><path d="M0,24.9L57.2,24.9" stroke-width="2" fill="none" stroke="#ffcd55" stroke-linejoin="round"/><text class="st1"><tspan style="white-space:pre" y="16" x="8">MSER</tspan></text></g><g id="175" transform="matrix(1,0,0,1,372,726)" ed:width="58.8" ed:parentid="162" ed:height="24.95"><path d="M0,24.9L58.8,24.9" stroke-width="2" fill="none" stroke="#6cc9e5" stroke-linejoin="round"/><text class="st1"><tspan style="white-space:pre" y="16" x="8">线变换</tspan></text></g><g id="177" transform="matrix(1,0,0,1,372,757)" ed:width="58.8" ed:parentid="162" ed:height="24.95"><path d="M0,24.9L58.8,24.9" stroke-width="2" fill="none" stroke="#6cc9e5" stroke-linejoin="round"/><text class="st1"><tspan style="white-space:pre" y="16" x="8">圆变换</tspan></text></g><symbol id="plus"><path d="M11,6C11,8.8,8.8,11,6,11C3.2,11,1,8.8,1,6C1,3.2,3.2,1,6,1C8.8,1,11,3.2,11,6z" fill="url(#lg1)"/><path d="M11,6C11,8.8,8.8,11,6,11C3.2,11,1,8.8,1,6C1,3.2,3.2,1,6,1C8.8,1,11,3.2,11,6zM3,6L9,6M6,3L6,9" stroke-width="0.7" fill="none" stroke="#46a000"/></symbol><symbol id="minus"><path d="M11,6C11,8.8,8.8,11,6,11C3.2,11,1,8.8,1,6C1,3.2,3.2,1,6,1C8.8,1,11,3.2,11,6z" fill="url(#lg1)"/><path d="M11,6C11,8.8,8.8,11,6,11C3.2,11,1,8.8,1,6C1,3.2,3.2,1,6,1C8.8,1,11,3.2,11,6zM3,6L9,6" stroke-width="0.7" fill="none" stroke="#46a000"/></symbol><g ed:togtopicid="101" transform="translate(129,443)"><use xlink:href="#minus"/></g><g ed:togtopicid="102" transform="translate(282,60)"><use xlink:href="#minus"/></g><g ed:togtopicid="104" transform="translate(282,197)"><use xlink:href="#minus"/></g><g ed:togtopicid="106" transform="translate(282,580)"><use xlink:href="#minus"/></g><g ed:togtopicid="116" transform="translate(353,580)"><use xlink:href="#minus"/></g><g ed:togtopicid="144" transform="translate(282,365)"><use xlink:href="#minus"/></g><g ed:togtopicid="150" transform="translate(358,412)"><use xlink:href="#minus"/></g><g ed:togtopicid="160" transform="translate(255,795)"><use xlink:href="#minus"/></g><g ed:togtopicid="162" transform="translate(346,748)"><use xlink:href="#minus"/></g></svg>