<svg ed:hSpacing="30" xmlns:xlink="http://www.w3.org/1999/xlink" xmlns="http://www.w3.org/2000/svg" xmlns:ed="https://www.edrawsoft.com/xml/2017/SVGExtensions/" ed:name="Page-1" ed:vSpacing="30" width="524" viewBox="0 0 524 898" id="page100" xmlns:ev="http://www.w3.org/2001/xml-events" height="898"><style type="text/css"><![CDATA[
g[ed\:togtopicid],g[ed\:hyperlink],g[ed\:comment],g[ed\:note] {cursor:pointer;}
g[id] {-moz-user-select: none;-ms-user-select: none;user-select: none;}
svg text::selection,svg tspan::selection{background-color: #4285f4;color: #ffffff;fill: #ffffff;}
.st2 {fill:#454545;font-family:微软雅黑;font-size:10pt;font-weight:bold}
.st1 {fill:#454545;font-family:微软雅黑;font-size:14pt;font-weight:bold}
.st3 {fill:#ff0000;font-family:微软雅黑;font-size:10pt;font-weight:bold}
]]></style><defs><linearGradient y1="0%" x1="0%" x2="0%" y2="100%" id="lg1"><stop offset="0" stop-color="#ffffff"/><stop offset="0.25" stop-color="#f0f5f0"/><stop offset="0.75" stop-color="#e1ebe1"/><stop offset="1" stop-color="#c8d7c8"/></linearGradient></defs><rect y="0" x="0" fill="#fbfcfb" width="524" height="898"/><path fill="#ff7575" ed:parentid="101" stroke="#ff7575" stroke-linecap="round" stroke-linejoin="round" ed:tosuperid="102" d="M-34.2,153.8C-34.8,155.5,-34.2,157,-33,157.5C-31.7,158,-30.2,157.3,-29.6,155.6C-28.8,153.4,-28,151.1,-27.3,148.9C-26.5,146.6,-25.9,144.3,-25.3,142C-24.7,139.7,-24.2,137.4,-23.7,135.1C-23.1,132.8,-22.7,130.5,-22.2,128.2C-21.8,125.9,-21.4,123.6,-21,121.3C-20.6,118.9,-20.2,116.6,-19.9,114.3C-19.5,112,-19.2,109.6,-18.9,107.3C-18.6,105,-18.3,102.7,-18.1,100.3C-17.8,98,-17.5,95.7,-17.3,93.4C-17.1,91,-16.8,88.7,-16.6,86.4C-16.4,84,-16.2,81.7,-16,79.4C-15.8,77.1,-15.6,74.7,-15.4,72.4C-15.2,70.1,-15,67.7,-14.9,65.4C-14.7,63.1,-14.5,60.7,-14.4,58.4C-14.2,56.1,-14.1,53.7,-13.9,51.4C-13.8,49.1,-13.6,46.8,-13.5,44.4C-13.3,42.1,-13.2,39.8,-13.1,37.4C-12.9,35.1,-12.8,32.8,-12.6,30.4C-12.5,28.1,-12.4,25.8,-12.2,23.5C-12.1,21.1,-12,18.8,-11.8,16.5C-11.7,14.1,-11.5,11.8,-11.4,9.5C-11.3,7.2,-11.1,4.8,-11,2.5C-10.8,0.2,-10.7,-2.2,-10.6,-4.5C-10.4,-6.8,-10.3,-9.1,-10.1,-11.5C-9.9,-13.8,-9.8,-16.1,-9.6,-18.4C-9.5,-20.8,-9.3,-23.1,-9.1,-25.4C-8.9,-27.7,-8.8,-30.1,-8.6,-32.4C-8.4,-34.7,-8.2,-37,-8,-39.4C-7.8,-41.7,-7.6,-44,-7.4,-46.3C-7.1,-48.6,-6.9,-51,-6.7,-53.3C-6.4,-55.6,-6.2,-57.9,-5.9,-60.2C-5.7,-62.5,-5.4,-64.8,-5.1,-67.2C-4.8,-69.5,-4.5,-71.8,-4.2,-74.1C-3.9,-76.4,-3.6,-78.7,-3.2,-81C-2.9,-83.3,-2.5,-85.6,-2.2,-87.9C-1.8,-90.2,-1.4,-92.5,-1,-94.8C-0.5,-97.1,-0.1,-99.3,0.4,-101.6C0.8,-103.9,1.3,-106.2,1.8,-108.4C2.3,-110.7,2.9,-113,3.4,-115.2C4,-117.5,4.6,-119.7,5.2,-122C5.9,-124.2,6.5,-126.4,7.3,-128.6C8,-130.8,8.7,-133,9.5,-135.2C10.3,-137.4,11.2,-139.5,12.1,-141.7C13,-143.8,13.9,-145.9,15,-148C16,-150.1,17.1,-152.1,18.2,-154.1C19.4,-156.1,20.6,-158.1,21.9,-160C23.3,-161.9,24.7,-163.7,26.2,-165.5C27.7,-167.2,29.2,-168.9,30.9,-170.5C32.6,-172,34.4,-173.5,36.3,-174.8C38.2,-176.1,40.2,-177.3,42.2,-178.3C44.3,-179.4,46.5,-180.2,48.6,-180.9C50.8,-181.6,52.9,-182.2,55.4,-182.5C57.8,-182.8,60.5,-183,63.2,-183.1C63.6,-183.1,63.8,-183.3,63.8,-183.6C63.8,-183.9,63.6,-184.1,63.2,-184.1C60.5,-184,57.7,-183.9,55.2,-183.6C52.7,-183.3,50.5,-182.7,48.3,-182C46.1,-181.3,43.8,-180.5,41.7,-179.5C39.5,-178.4,37.5,-177.2,35.6,-175.9C33.6,-174.6,31.8,-173.1,30,-171.5C28.3,-169.9,26.6,-168.2,25.1,-166.4C23.5,-164.7,22,-162.8,20.7,-160.9C19.3,-159,18,-157,16.8,-154.9C15.6,-152.9,14.5,-150.9,13.5,-148.8C12.4,-146.7,11.4,-144.5,10.5,-142.4C9.5,-140.2,8.6,-138,7.8,-135.9C7,-133.7,6.2,-131.4,5.4,-129.2C4.7,-127,4,-124.8,3.3,-122.5C2.7,-120.3,2,-118,1.4,-115.7C0.8,-113.5,0.3,-111.2,-0.3,-108.9C-0.8,-106.7,-1.3,-104.4,-1.8,-102.1C-2.3,-99.8,-2.8,-97.5,-3.2,-95.2C-3.7,-92.9,-4.1,-90.6,-4.5,-88.3C-4.9,-86,-5.3,-83.7,-5.6,-81.4C-6,-79.1,-6.4,-76.7,-6.7,-74.4C-7,-72.1,-7.4,-69.8,-7.7,-67.5C-8,-65.2,-8.3,-62.8,-8.6,-60.5C-8.9,-58.2,-9.1,-55.9,-9.4,-53.6C-9.7,-51.2,-9.9,-48.9,-10.2,-46.6C-10.4,-44.3,-10.6,-41.9,-10.9,-39.6C-11.1,-37.3,-11.3,-35,-11.5,-32.6C-11.7,-30.3,-11.9,-28,-12.1,-25.7C-12.3,-23.3,-12.5,-21,-12.7,-18.7C-12.9,-16.4,-13.1,-14,-13.3,-11.7C-13.5,-9.4,-13.6,-7,-13.8,-4.7C-14,-2.4,-14.2,-0.1,-14.3,2.3C-14.5,4.6,-14.7,6.9,-14.8,9.3C-15,11.6,-15.1,13.9,-15.3,16.2C-15.5,18.6,-15.6,20.9,-15.8,23.2C-16,25.6,-16.1,27.9,-16.3,30.2C-16.4,32.5,-16.6,34.9,-16.8,37.2C-16.9,39.5,-17.1,41.8,-17.3,44.2C-17.4,46.5,-17.6,48.8,-17.8,51.1C-18,53.5,-18.1,55.8,-18.3,58.1C-18.5,60.4,-18.7,62.8,-18.9,65.1C-19.1,67.4,-19.3,69.7,-19.5,72C-19.7,74.4,-19.9,76.7,-20.1,79C-20.4,81.3,-20.6,83.6,-20.8,86C-21.1,88.3,-21.3,90.6,-21.6,92.9C-21.9,95.2,-22.1,97.5,-22.4,99.8C-22.7,102.1,-23,104.4,-23.4,106.7C-23.7,109,-24,111.3,-24.4,113.6C-24.7,115.9,-25.1,118.2,-25.5,120.5C-25.9,122.7,-26.4,125,-26.8,127.3C-27.3,129.6,-27.8,131.8,-28.3,134.1C-28.8,136.3,-29.4,138.5,-30,140.8C-30.6,143,-31.2,145.2,-32,147.4C-32.7,149.5,-33.4,151.7,-34.2,153.8z" id="103" transform="matrix(1,0,0,1,151,266)"/><path fill="#5fb7f1" ed:parentid="101" stroke="#5fb7f1" stroke-linecap="round" stroke-linejoin="round" ed:tosuperid="104" d="M-30.3,85.4C-31,87.1,-30.5,88.6,-29.2,89.2C-27.9,89.7,-26.4,89.1,-25.7,87.5C-24.8,85.2,-23.9,83,-23.1,80.8C-22.3,78.6,-21.5,76.3,-20.8,74.1C-20.1,71.8,-19.5,69.5,-18.9,67.3C-18.2,65,-17.7,62.7,-17.1,60.4C-16.5,58.1,-16,55.8,-15.5,53.5C-15,51.3,-14.5,49,-14.1,46.7C-13.6,44.4,-13.2,42.1,-12.7,39.8C-12.3,37.5,-11.9,35.2,-11.5,32.9C-11.1,30.6,-10.7,28.2,-10.3,25.9C-9.9,23.6,-9.5,21.3,-9.1,19C-8.7,16.7,-8.3,14.4,-8,12.1C-7.6,9.8,-7.2,7.5,-6.8,5.2C-6.4,2.9,-6,0.6,-5.7,-1.7C-5.3,-4,-4.9,-6.3,-4.5,-8.6C-4.1,-10.9,-3.7,-13.2,-3.3,-15.4C-2.8,-17.7,-2.4,-20,-2,-22.3C-1.5,-24.6,-1.1,-26.9,-0.6,-29.2C-0.1,-31.4,0.3,-33.7,0.9,-36C1.4,-38.3,1.9,-40.5,2.4,-42.8C3,-45,3.6,-47.3,4.2,-49.5C4.8,-51.8,5.4,-54,6.1,-56.2C6.7,-58.4,7.4,-60.7,8.2,-62.9C8.9,-65.1,9.7,-67.2,10.5,-69.4C11.3,-71.6,12.2,-73.7,13.1,-75.8C14.1,-77.9,15.1,-80,16.1,-82.1C17.2,-84.1,18.3,-86.2,19.5,-88.1C20.7,-90.1,22,-92,23.4,-93.9C24.7,-95.7,26.2,-97.5,27.8,-99.2C29.3,-100.9,31,-102.5,32.7,-104C34.5,-105.4,36.4,-106.8,38.3,-108C40.3,-109.2,42.3,-110.3,44.4,-111.1C46.5,-112,48.7,-112.8,51,-113.3C53.3,-113.9,55.7,-114.3,57.8,-114.5C59.9,-114.8,61.6,-114.8,63.2,-114.8C63.6,-114.8,63.8,-115.1,63.8,-115.3C63.8,-115.6,63.6,-115.8,63.2,-115.8C61.5,-115.8,59.8,-115.8,57.7,-115.6C55.6,-115.4,53.1,-115,50.7,-114.5C48.3,-114,46.1,-113.3,43.9,-112.4C41.8,-111.5,39.6,-110.4,37.6,-109.2C35.5,-108,33.6,-106.7,31.7,-105.2C29.9,-103.7,28.2,-102.1,26.5,-100.3C24.9,-98.6,23.4,-96.8,21.9,-95C20.5,-93.1,19.1,-91.1,17.9,-89.2C16.6,-87.2,15.4,-85.1,14.3,-83C13.2,-81,12.2,-78.9,11.2,-76.7C10.2,-74.6,9.3,-72.4,8.4,-70.2C7.5,-68.1,6.7,-65.9,5.9,-63.6C5.1,-61.4,4.4,-59.2,3.7,-57C2.9,-54.7,2.3,-52.5,1.6,-50.2C1,-48,0.4,-45.7,-0.2,-43.4C-0.8,-41.2,-1.4,-38.9,-1.9,-36.6C-2.5,-34.4,-3,-32.1,-3.5,-29.8C-4,-27.5,-4.5,-25.2,-5,-22.9C-5.5,-20.6,-6,-18.3,-6.4,-16.1C-6.9,-13.8,-7.3,-11.5,-7.8,-9.2C-8.2,-6.9,-8.6,-4.6,-9.1,-2.3C-9.5,0,-9.9,2.3,-10.3,4.6C-10.8,6.9,-11.2,9.2,-11.6,11.5C-12,13.8,-12.4,16.1,-12.9,18.4C-13.3,20.7,-13.7,23,-14.1,25.3C-14.6,27.5,-15,29.8,-15.5,32.1C-15.9,34.4,-16.4,36.7,-16.8,39C-17.3,41.2,-17.8,43.5,-18.3,45.8C-18.8,48,-19.3,50.3,-19.8,52.6C-20.4,54.8,-20.9,57.1,-21.5,59.3C-22.1,61.6,-22.7,63.8,-23.3,66C-24,68.2,-24.7,70.4,-25.4,72.6C-26.1,74.8,-26.8,77,-27.7,79.1C-28.5,81.2,-29.4,83.3,-30.3,85.4z" id="105" transform="matrix(1,0,0,1,151,334)"/><path fill="#f1a3dc" ed:parentid="101" stroke="#f1a3dc" stroke-linecap="round" stroke-linejoin="round" ed:tosuperid="106" d="M-21,-49.1C-21.8,-50.7,-23.4,-51.2,-24.6,-50.5C-25.8,-49.9,-26.2,-48.3,-25.4,-46.7C-24.3,-44.7,-23.2,-42.7,-22.1,-40.6C-21.1,-38.6,-20.1,-36.5,-19.2,-34.4C-18.2,-32.3,-17.3,-30.2,-16.4,-28C-15.6,-25.9,-14.7,-23.7,-13.9,-21.6C-13,-19.4,-12.2,-17.2,-11.4,-15C-10.6,-12.9,-9.8,-10.7,-9,-8.5C-8.2,-6.3,-7.4,-4.1,-6.6,-1.9C-5.8,0.3,-5,2.5,-4.2,4.7C-3.4,6.9,-2.6,9.1,-1.7,11.2C-0.9,13.4,-0.1,15.6,0.8,17.8C1.7,20,2.6,22.1,3.5,24.3C4.4,26.5,5.3,28.6,6.3,30.8C7.3,32.9,8.3,35,9.4,37.1C10.5,39.2,11.6,41.3,12.7,43.3C13.9,45.4,15.1,47.4,16.5,49.4C17.8,51.3,19.1,53.3,20.6,55.1C22,57,23.6,58.8,25.2,60.5C26.8,62.2,28.6,63.9,30.4,65.4C32.2,66.9,34.2,68.3,36.2,69.5C38.2,70.8,40.3,71.9,42.5,72.8C44.7,73.8,46.9,74.5,49.2,75.1C51.5,75.7,53.8,76.2,56.2,76.4C58.5,76.7,60.9,76.7,63.2,76.8C63.6,76.8,63.8,76.5,63.8,76.3C63.8,76,63.6,75.8,63.2,75.8C60.9,75.7,58.6,75.6,56.3,75.3C54,75,51.8,74.5,49.6,73.8C47.3,73.2,45.2,72.4,43.1,71.4C41,70.5,39,69.4,37.1,68.1C35.2,66.8,33.3,65.4,31.6,63.9C29.9,62.4,28.3,60.8,26.7,59.1C25.2,57.4,23.7,55.6,22.3,53.8C21,51.9,19.7,50,18.5,48.1C17.2,46.1,16.1,44.1,15,42.1C13.9,40,12.8,38,11.8,35.9C10.8,33.8,9.9,31.7,9,29.6C8.1,27.4,7.2,25.3,6.3,23.1C5.5,21,4.7,18.8,3.9,16.6C3,14.5,2.3,12.3,1.5,10.1C0.7,7.9,-0,5.7,-0.8,3.5C-1.5,1.3,-2.3,-0.9,-3,-3.2C-3.8,-5.4,-4.5,-7.6,-5.2,-9.8C-6,-12,-6.7,-14.2,-7.5,-16.4C-8.3,-18.7,-9,-20.9,-9.8,-23.1C-10.6,-25.3,-11.4,-27.5,-12.3,-29.7C-13.1,-31.9,-14,-34.1,-14.9,-36.2C-15.8,-38.4,-16.8,-40.6,-17.8,-42.7C-18.8,-44.9,-19.9,-47,-21,-49.1z" id="107" transform="matrix(1,0,0,1,151,525)"/><path fill="none" ed:parentid="102" stroke="#ff7575" stroke-linecap="round" stroke-linejoin="round" ed:tosuperid="108" stroke-width="2" d="M-13.5,17.5C1.2,17.5,-3.8,-17.5,13.5,-17.5" id="109" transform="matrix(1,0,0,1,318,64)"/><path fill="none" ed:parentid="102" stroke="#ff7575" stroke-linecap="round" stroke-linejoin="round" ed:tosuperid="110" stroke-width="2" d="M-13.5,1.8C-2.3,1.8,4.4,-1.8,13.5,-1.8" id="111" transform="matrix(1,0,0,1,318,80)"/><path fill="none" ed:parentid="102" stroke="#ff7575" stroke-linecap="round" stroke-linejoin="round" ed:tosuperid="112" stroke-width="2" d="M-13.5,-14C0.5,-14,-2.1,14,13.5,14" id="113" transform="matrix(1,0,0,1,318,96)"/><path fill="none" ed:parentid="106" stroke="#f1a3dc" stroke-linecap="round" stroke-linejoin="round" ed:tosuperid="114" stroke-width="2" d="M-13.5,48.9C5.3,48.9,-13.3,-48.9,13.5,-48.9" id="115" transform="matrix(1,0,0,1,318,553)"/><path fill="none" ed:parentid="106" stroke="#f1a3dc" stroke-linecap="round" stroke-linejoin="round" ed:tosuperid="116" stroke-width="2" d="M-13.5,1.8C-2.3,1.8,4.4,-1.8,13.5,-1.8" id="117" transform="matrix(1,0,0,1,318,600)"/><path fill="none" ed:parentid="106" stroke="#f1a3dc" stroke-linecap="round" stroke-linejoin="round" ed:tosuperid="118" stroke-width="2" d="M-13.5,-45.4C5.1,-45.4,-12.9,45.4,13.5,45.4" id="119" transform="matrix(1,0,0,1,318,647)"/><path fill="none" ed:parentid="104" stroke="#5fb7f1" stroke-linecap="round" stroke-linejoin="round" ed:tosuperid="120" stroke-width="2" d="M-13.5,9.6C-0.5,9.6,0.2,-9.6,13.5,-9.6" id="121" transform="matrix(1,0,0,1,318,209)"/><path fill="none" ed:parentid="104" stroke="#5fb7f1" stroke-linecap="round" stroke-linejoin="round" ed:tosuperid="122" stroke-width="2" d="M-13.5,25.3C2.7,25.3,-7.3,-25.3,13.5,-25.3" id="123" transform="matrix(1,0,0,1,318,193)"/><path fill="none" ed:parentid="104" stroke="#5fb7f1" stroke-linecap="round" stroke-linejoin="round" ed:tosuperid="124" stroke-width="2" d="M-13.5,-6.1C-1.3,-6.1,2.1,6.1,13.5,6.1" id="125" transform="matrix(1,0,0,1,318,225)"/><path fill="none" ed:parentid="104" stroke="#5fb7f1" stroke-linecap="round" stroke-linejoin="round" ed:tosuperid="126" stroke-width="2" d="M-13.5,-21.8C2.1,-21.8,-5.8,21.8,13.5,21.8" id="127" transform="matrix(1,0,0,1,318,240)"/><path fill="none" ed:parentid="116" stroke="#f1a3dc" stroke-linecap="round" stroke-linejoin="round" ed:tosuperid="134" stroke-width="2" d="M-13.5,31.4C3.7,31.4,-9.6,-31.5,13.5,-31.5" id="135" transform="matrix(1,0,0,1,388,567)"/><path fill="none" ed:parentid="116" stroke="#f1a3dc" stroke-linecap="round" stroke-linejoin="round" ed:tosuperid="136" stroke-width="2" d="M-13.5,15.7C0.9,15.7,-2.9,-15.7,13.5,-15.7" id="137" transform="matrix(1,0,0,1,388,582)"/><path fill="none" ed:parentid="116" stroke="#f1a3dc" stroke-linecap="round" stroke-linejoin="round" ed:tosuperid="138" stroke-width="2" d="M-13.5,-0C-2.7,-0,5.4,0,13.5,0" id="139" transform="matrix(1,0,0,1,388,598)"/><path fill="none" ed:parentid="116" stroke="#f1a3dc" stroke-linecap="round" stroke-linejoin="round" ed:tosuperid="140" stroke-width="2" d="M-13.5,-15.7C0.9,-15.7,-2.9,15.7,13.5,15.7" id="141" transform="matrix(1,0,0,1,388,614)"/><path fill="none" ed:parentid="116" stroke="#f1a3dc" stroke-linecap="round" stroke-linejoin="round" ed:tosuperid="142" stroke-width="2" d="M-13.5,-31.5C3.7,-31.5,-9.6,31.5,13.5,31.5" id="143" transform="matrix(1,0,0,1,388,630)"/><path fill="#ffcd55" ed:parentid="101" stroke="#ffcd55" stroke-linecap="round" stroke-linejoin="round" ed:tosuperid="144" d="M-11.4,7.5C-12.8,8.7,-13,10.3,-12.1,11.4C-11.2,12.4,-9.5,12.6,-8.2,11.4C-6.4,9.8,-4.6,8.2,-2.9,6.7C-1.2,5.1,0.5,3.5,2.2,1.9C3.9,0.3,5.6,-1.3,7.3,-2.9C9,-4.5,10.8,-6,12.5,-7.6C14.2,-9.1,16,-10.6,17.8,-12.1C19.5,-13.6,21.3,-15,23.2,-16.4C25.1,-17.7,26.9,-19,28.9,-20.2C30.8,-21.5,32.8,-22.6,34.9,-23.7C36.9,-24.7,39,-25.7,41.2,-26.5C43.3,-27.3,45.5,-28,47.7,-28.6C49.9,-29.2,52,-29.7,54.5,-30.1C57,-30.4,59.8,-30.6,61.4,-30.8C62.9,-30.9,63.1,-30.8,63.2,-30.8C63.6,-30.8,63.8,-31,63.8,-31.3C63.8,-31.6,63.6,-31.8,63.2,-31.8C63.1,-31.9,62.9,-31.9,61.3,-31.8C59.8,-31.8,56.8,-31.7,54.3,-31.5C51.7,-31.2,49.6,-30.8,47.3,-30.3C45,-29.8,42.7,-29.2,40.5,-28.4C38.2,-27.7,36,-26.8,33.8,-25.8C31.7,-24.8,29.6,-23.8,27.5,-22.6C25.4,-21.4,23.4,-20.2,21.5,-18.9C19.5,-17.5,17.6,-16.2,15.7,-14.8C13.8,-13.3,11.9,-11.9,10.1,-10.4C8.3,-8.9,6.5,-7.4,4.7,-5.9C2.9,-4.4,1.1,-2.9,-0.7,-1.4C-2.4,0.2,-4.2,1.7,-6,3.1C-7.8,4.6,-9.6,6.1,-11.4,7.5z" id="145" transform="matrix(1,0,0,1,151,418)"/><path fill="none" ed:parentid="144" stroke="#ffcd55" stroke-linecap="round" stroke-linejoin="round" ed:tosuperid="146" stroke-width="2" d="M-13.5,17.5C1.2,17.5,-3.8,-17.5,13.5,-17.5" id="147" transform="matrix(1,0,0,1,318,369)"/><path fill="none" ed:parentid="144" stroke="#ffcd55" stroke-linecap="round" stroke-linejoin="round" ed:tosuperid="148" stroke-width="2" d="M-13.5,1.7C-2.3,1.7,4.4,-1.8,13.5,-1.8" id="149" transform="matrix(1,0,0,1,318,385)"/><path fill="none" ed:parentid="144" stroke="#ffcd55" stroke-linecap="round" stroke-linejoin="round" ed:tosuperid="150" stroke-width="2" d="M-13.5,-21.8C2.1,-21.8,-5.8,21.8,13.5,21.8" id="151" transform="matrix(1,0,0,1,318,408)"/><path fill="none" ed:parentid="150" stroke="#ffcd55" stroke-linecap="round" stroke-linejoin="round" ed:tosuperid="156" stroke-width="2" d="M-13.5,7.9C-0.9,7.9,1.1,-7.9,13.5,-7.9" id="157" transform="matrix(1,0,0,1,393,422)"/><path fill="none" ed:parentid="150" stroke="#ffcd55" stroke-linecap="round" stroke-linejoin="round" ed:tosuperid="158" stroke-width="2" d="M-13.5,-7.9C-0.9,-7.9,1.1,7.9,13.5,7.9" id="159" transform="matrix(1,0,0,1,393,438)"/><path fill="#6cc9e5" ed:parentid="101" stroke="#6cc9e5" stroke-linecap="round" stroke-linejoin="round" ed:tosuperid="160" d="M-29.6,-155.9C-30.2,-157.6,-31.7,-158.3,-33,-157.8C-34.3,-157.3,-34.9,-155.8,-34.2,-154.1C-33.5,-151.9,-32.7,-149.8,-32,-147.6C-31.3,-145.4,-30.6,-143.2,-30,-141C-29.4,-138.8,-28.8,-136.6,-28.3,-134.3C-27.8,-132.1,-27.3,-129.8,-26.8,-127.5C-26.4,-125.3,-26,-123,-25.6,-120.7C-25.1,-118.4,-24.8,-116.1,-24.4,-113.9C-24,-111.6,-23.7,-109.3,-23.4,-107C-23,-104.7,-22.7,-102.4,-22.4,-100.1C-22.2,-97.8,-21.9,-95.4,-21.6,-93.1C-21.3,-90.8,-21.1,-88.5,-20.9,-86.2C-20.6,-83.9,-20.4,-81.6,-20.2,-79.3C-19.9,-76.9,-19.7,-74.6,-19.5,-72.3C-19.3,-70,-19.1,-67.7,-18.9,-65.3C-18.7,-63,-18.5,-60.7,-18.3,-58.4C-18.2,-56,-18,-53.7,-17.8,-51.4C-17.6,-49.1,-17.5,-46.7,-17.3,-44.4C-17.1,-42.1,-17,-39.8,-16.8,-37.4C-16.6,-35.1,-16.5,-32.8,-16.3,-30.5C-16.1,-28.1,-16,-25.8,-15.8,-23.5C-15.7,-21.2,-15.5,-18.8,-15.3,-16.5C-15.2,-14.2,-15,-11.8,-14.9,-9.5C-14.7,-7.2,-14.5,-4.9,-14.4,-2.5C-14.2,-0.2,-14,2.1,-13.8,4.5C-13.7,6.8,-13.5,9.1,-13.3,11.4C-13.1,13.8,-13,16.1,-12.8,18.4C-12.6,20.8,-12.4,23.1,-12.2,25.4C-12,27.7,-11.8,30.1,-11.6,32.4C-11.4,34.7,-11.1,37,-10.9,39.4C-10.7,41.7,-10.4,44,-10.2,46.3C-10,48.7,-9.7,51,-9.4,53.3C-9.2,55.6,-8.9,58,-8.6,60.3C-8.3,62.6,-8,64.9,-7.7,67.2C-7.4,69.6,-7.1,71.9,-6.8,74.2C-6.4,76.5,-6.1,78.8,-5.7,81.1C-5.4,83.4,-5,85.7,-4.6,88C-4.2,90.4,-3.7,92.7,-3.3,95C-2.9,97.3,-2.4,99.5,-1.9,101.8C-1.4,104.1,-0.9,106.4,-0.4,108.7C0.2,111,0.7,113.2,1.3,115.5C1.9,117.8,2.5,120,3.2,122.3C3.9,124.5,4.6,126.8,5.3,129C6,131.2,6.8,133.4,7.6,135.6C8.5,137.8,9.3,140,10.3,142.2C11.2,144.3,12.2,146.5,13.2,148.6C14.3,150.7,15.4,152.7,16.6,154.8C17.8,156.8,19,158.8,20.4,160.7C21.8,162.6,23.2,164.5,24.7,166.3C26.3,168.1,27.9,169.8,29.6,171.4C31.4,173,33.2,174.5,35.1,175.9C37.1,177.2,39.1,178.4,41.2,179.5C43.4,180.5,45.6,181.4,47.8,182.1C50,182.8,52.1,183.4,54.7,183.7C57.3,184.1,60.2,184.3,61.7,184.4C63.2,184.4,63.2,184.4,63.2,184.4C63.3,184,63.8,184.2,63.8,183.9C63.8,183.6,63.3,183,63.2,183.4C63.2,183.4,63.2,183.4,61.8,183.3C60.3,183.3,57.4,183,54.9,182.7C52.4,182.3,50.3,181.7,48.2,181C46,180.3,43.9,179.4,41.8,178.4C39.7,177.3,37.8,176.1,35.9,174.8C34,173.4,32.3,172,30.6,170.4C28.9,168.8,27.3,167.1,25.8,165.3C24.4,163.6,23,161.7,21.7,159.8C20.4,157.9,19.1,156,18,154C16.8,151.9,15.8,149.9,14.7,147.8C13.7,145.7,12.8,143.6,11.9,141.5C11,139.3,10.2,137.2,9.4,135C8.6,132.8,7.8,130.6,7.1,128.4C6.4,126.2,5.7,124,5.1,121.7C4.5,119.5,3.9,117.3,3.3,115C2.7,112.7,2.2,110.5,1.7,108.2C1.2,105.9,0.7,103.7,0.3,101.4C-0.2,99.1,-0.6,96.8,-1.1,94.5C-1.5,92.2,-1.9,90,-2.2,87.7C-2.6,85.4,-3,83.1,-3.3,80.8C-3.6,78.5,-4,76.1,-4.3,73.8C-4.6,71.5,-4.9,69.2,-5.2,66.9C-5.4,64.6,-5.7,62.3,-6,60C-6.2,57.7,-6.5,55.3,-6.7,53C-7,50.7,-7.2,48.4,-7.4,46.1C-7.6,43.7,-7.8,41.4,-8,39.1C-8.2,36.8,-8.4,34.5,-8.6,32.1C-8.8,29.8,-9,27.5,-9.1,25.2C-9.3,22.8,-9.5,20.5,-9.7,18.2C-9.8,15.9,-10,13.5,-10.1,11.2C-10.3,8.9,-10.4,6.6,-10.6,4.2C-10.7,1.9,-10.9,-0.4,-11,-2.7C-11.2,-5.1,-11.3,-7.4,-11.4,-9.7C-11.6,-12.1,-11.7,-14.4,-11.8,-16.7C-12,-19,-12.1,-21.4,-12.3,-23.7C-12.4,-26,-12.5,-28.4,-12.7,-30.7C-12.8,-33,-12.9,-35.4,-13.1,-37.7C-13.2,-40,-13.4,-42.3,-13.5,-44.7C-13.6,-47,-13.8,-49.3,-13.9,-51.7C-14.1,-54,-14.2,-56.3,-14.4,-58.7C-14.6,-61,-14.7,-63.3,-14.9,-65.7C-15.1,-68,-15.2,-70.3,-15.4,-72.6C-15.6,-75,-15.8,-77.3,-16,-79.6C-16.2,-82,-16.4,-84.3,-16.6,-86.6C-16.8,-89,-17.1,-91.3,-17.3,-93.6C-17.6,-95.9,-17.8,-98.3,-18.1,-100.6C-18.4,-102.9,-18.6,-105.2,-18.9,-107.6C-19.2,-109.9,-19.6,-112.2,-19.9,-114.5C-20.2,-116.9,-20.6,-119.2,-21,-121.5C-21.4,-123.8,-21.8,-126.1,-22.2,-128.4C-22.7,-130.8,-23.2,-133.1,-23.7,-135.4C-24.2,-137.7,-24.7,-140,-25.3,-142.3C-25.9,-144.6,-26.6,-146.8,-27.3,-149.1C-28,-151.4,-28.8,-153.6,-29.6,-155.9z" id="161" transform="matrix(1,0,0,1,151,633)"/><path fill="none" ed:parentid="160" stroke="#6cc9e5" stroke-linecap="round" stroke-linejoin="round" ed:tosuperid="162" stroke-width="2" d="M-13.5,25.3C2.7,25.3,-7.3,-25.3,13.5,-25.3" id="163" transform="matrix(1,0,0,1,291,792)"/><path fill="none" ed:parentid="160" stroke="#6cc9e5" stroke-linecap="round" stroke-linejoin="round" ed:tosuperid="164" stroke-width="2" d="M-13.5,1.8C-2.3,1.8,4.4,-1.8,13.5,-1.8" id="165" transform="matrix(1,0,0,1,291,815)"/><path fill="none" ed:parentid="160" stroke="#6cc9e5" stroke-linecap="round" stroke-linejoin="round" ed:tosuperid="167" stroke-width="2" d="M-13.5,-14C0.5,-14,-2.1,14,13.5,14" id="168" transform="matrix(1,0,0,1,291,831)"/><path fill="none" ed:parentid="160" stroke="#6cc9e5" stroke-linecap="round" stroke-linejoin="round" ed:tosuperid="169" stroke-width="2" d="M-13.5,-29.7C3.5,-29.7,-9,29.7,13.5,29.7" id="170" transform="matrix(1,0,0,1,291,847)"/><path fill="none" ed:parentid="144" stroke="#ffcd55" stroke-linecap="round" stroke-linejoin="round" ed:tosuperid="173" stroke-width="2" d="M-13.5,33.2C4,33.2,-10.1,-33.2,13.5,-33.2" id="174" transform="matrix(1,0,0,1,318,353)"/><path fill="none" ed:parentid="162" stroke="#6cc9e5" stroke-linecap="round" stroke-linejoin="round" ed:tosuperid="175" stroke-width="2" d="M-13.5,7.9C-0.9,7.9,1.1,-7.9,13.5,-7.9" id="176" transform="matrix(1,0,0,1,382,758)"/><path fill="none" ed:parentid="162" stroke="#6cc9e5" stroke-linecap="round" stroke-linejoin="round" ed:tosuperid="177" stroke-width="2" d="M-13.5,-7.9C-0.9,-7.9,1.1,7.9,13.5,7.9" id="178" transform="matrix(1,0,0,1,382,774)"/><g ed:height="57.8" ed:layout="rightmap" id="101" ed:topictype="mainidea" ed:width="126.976" transform="matrix(1,0,0,1,24,420)"><path fill="#ffffff" stroke="#ffffff" stroke-linejoin="round" stroke-width="4" d="M28.9,0L98.1,0C114,0,127,12.9,127,28.9C127,44.9,114,57.8,98.1,57.8L28.9,57.8C12.9,57.8,0,44.9,0,28.9C0,12.9,12.9,0,28.9,0z"/><text class="st1"><tspan y="35.6" style="white-space:pre" x="25">图像特征</tspan></text></g><g ed:parentid="101" ed:height="31.95" id="102" ed:width="90.40000000000001" transform="matrix(1,0,0,1,214,50)"><path fill="none" stroke="#ff7575" stroke-linejoin="round" stroke-width="2" d="M0,31.9L90.4,31.9"/><text class="st2"><tspan y="19.6" style="white-space:pre" x="17">斑点检测</tspan></text></g><g ed:parentid="101" ed:height="31.95" id="104" ed:width="90.40000000000001" transform="matrix(1,0,0,1,214,187)"><path fill="none" stroke="#5fb7f1" stroke-linejoin="round" stroke-width="2" d="M0,31.9L90.4,31.9"/><text class="st2"><tspan y="19.6" style="white-space:pre" x="17">角点检测</tspan></text></g><g ed:parentid="101" ed:height="31.95" id="106" ed:width="90.40000000000001" transform="matrix(1,0,0,1,214,570)"><path fill="none" stroke="#f1a3dc" stroke-linejoin="round" stroke-width="2" d="M0,31.9L90.4,31.9"/><text class="st2"><tspan y="19.6" style="white-space:pre" x="17">人脸检测</tspan></text></g><g ed:parentid="102" ed:height="24.95" id="108" ed:width="44.4" transform="matrix(1,0,0,1,331,22)"><path fill="none" stroke="#ff7575" stroke-linejoin="round" stroke-width="2" d="M0,24.9L44.4,24.9"/><text class="st2"><tspan y="16" style="white-space:pre" x="8">LoG</tspan></text></g><g ed:parentid="102" ed:height="24.95" id="110" ed:width="47.6" transform="matrix(1,0,0,1,331,53)"><path fill="none" stroke="#ff7575" stroke-linejoin="round" stroke-width="2" d="M0,24.9L47.6,24.9"/><text class="st2"><tspan y="16" style="white-space:pre" x="8">DoG</tspan></text></g><g ed:parentid="102" ed:height="24.95" id="112" ed:width="48.4" transform="matrix(1,0,0,1,331,85)"><path fill="none" stroke="#ff7575" stroke-linejoin="round" stroke-width="2" d="M0,24.9L48.4,24.9"/><text class="st2"><tspan y="16" style="white-space:pre" x="8">DoH</tspan></text></g><g ed:parentid="106" ed:height="24.95" id="114" ed:width="50.8" transform="matrix(1,0,0,1,331,479)"><path fill="none" stroke="#f1a3dc" stroke-linejoin="round" stroke-width="2" d="M0,24.9L50.8,24.9"/><text class="st2"><tspan y="16" style="white-space:pre" x="8">HOG</tspan></text></g><g ed:parentid="106" ed:height="24.95" id="116" ed:width="43.6" transform="matrix(1,0,0,1,331,573)"><path fill="none" stroke="#f1a3dc" stroke-linejoin="round" stroke-width="2" d="M0,24.9L43.6,24.9"/><text class="st2"><tspan y="16" style="white-space:pre" x="8">LBP</tspan></text></g><g ed:parentid="106" ed:height="24.95" id="118" ed:width="50.8" transform="matrix(1,0,0,1,331,668)"><path fill="none" stroke="#f1a3dc" stroke-linejoin="round" stroke-width="2" d="M0,24.9L50.8,24.9"/><text class="st2"><tspan y="16" style="white-space:pre" x="8">Haar</tspan></text></g><g ed:parentid="104" ed:height="24.95" id="120" ed:width="58.8" transform="matrix(1,0,0,1,331,174)"><path fill="none" stroke="#5fb7f1" stroke-linejoin="round" stroke-width="2" d="M0,24.9L58.8,24.9"/><text class="st2"><tspan y="16" style="white-space:pre" x="8">Harris</tspan></text></g><g ed:parentid="104" ed:height="24.95" id="122" ed:width="77.2" transform="matrix(1,0,0,1,331,143)"><path fill="none" stroke="#5fb7f1" stroke-linejoin="round" stroke-width="2" d="M0,24.9L77.2,24.9"/><text class="st2"><tspan y="16" style="white-space:pre" x="8">Moravec</tspan></text></g><g ed:parentid="104" ed:height="24.95" id="124" ed:width="88.40000000000001" transform="matrix(1,0,0,1,331,206)"><path fill="none" stroke="#5fb7f1" stroke-linejoin="round" stroke-width="2" d="M0,24.9L88.4,24.9"/><text class="st2"><tspan y="16" style="white-space:pre" x="8">ShiTomasi</tspan></text></g><g ed:parentid="104" ed:height="24.95" id="126" ed:width="58" transform="matrix(1,0,0,1,331,237)"><path fill="none" stroke="#5fb7f1" stroke-linejoin="round" stroke-width="2" d="M0,24.9L58,24.9"/><text class="st2"><tspan y="16" style="white-space:pre" x="8">Susan</tspan></text></g><g ed:parentid="116" ed:height="24.95" id="134" ed:width="58.8" transform="matrix(1,0,0,1,402,510)"><path fill="none" stroke="#f1a3dc" stroke-linejoin="round" stroke-width="2" d="M0,24.9L58.8,24.9"/><text class="st2"><tspan y="16" style="white-space:pre" x="8">原始的</tspan></text></g><g ed:parentid="116" ed:height="24.95" id="136" ed:width="58.8" transform="matrix(1,0,0,1,402,542)"><path fill="none" stroke="#f1a3dc" stroke-linejoin="round" stroke-width="2" d="M0,24.9L58.8,24.9"/><text class="st2"><tspan y="16" style="white-space:pre" x="8">圆形的</tspan></text></g><g ed:parentid="116" ed:height="24.95" id="138" ed:width="86" transform="matrix(1,0,0,1,402,573)"><path fill="none" stroke="#f1a3dc" stroke-linejoin="round" stroke-width="2" d="M0,24.9L86,24.9"/><text class="st2"><tspan y="16" style="white-space:pre" x="8">旋转不变的</tspan></text></g><g ed:parentid="116" ed:height="24.95" id="140" ed:width="86" transform="matrix(1,0,0,1,402,605)"><path fill="none" stroke="#f1a3dc" stroke-linejoin="round" stroke-width="2" d="M0,24.9L86,24.9"/><text class="st2"><tspan y="16" style="white-space:pre" x="8">等价模式的</tspan></text></g><g ed:parentid="116" ed:height="24.95" id="142" ed:width="99.59999999999999" transform="matrix(1,0,0,1,402,636)"><path fill="none" stroke="#f1a3dc" stroke-linejoin="round" stroke-width="2" d="M0,24.9L99.6,24.9"/><text class="st2"><tspan y="16" style="white-space:pre" x="8">多尺度分块的</tspan></text></g><g ed:parentid="101" ed:height="31.95" id="144" ed:width="90.40000000000001" transform="matrix(1,0,0,1,214,355)"><path fill="none" stroke="#ffcd55" stroke-linejoin="round" stroke-width="2" d="M0,31.9L90.4,31.9"/><text class="st2"><tspan y="19.6" style="white-space:pre" x="17">特征检测</tspan></text></g><g ed:parentid="144" ed:height="24.95" id="146" ed:width="46.8" transform="matrix(1,0,0,1,331,327)"><path fill="none" stroke="#ffcd55" stroke-linejoin="round" stroke-width="2" d="M0,24.9L46.8,24.9"/><text class="st3"><tspan y="16" style="white-space:pre" x="8">SIFT</tspan></text></g><g ed:parentid="144" ed:height="24.95" id="148" ed:width="53.2" transform="matrix(1,0,0,1,331,358)"><path fill="none" stroke="#ffcd55" stroke-linejoin="round" stroke-width="2" d="M0,24.9L53.2,24.9"/><text class="st3"><tspan y="16" style="white-space:pre" x="8">SURF</tspan></text></g><g ed:parentid="144" ed:height="24.95" id="150" ed:width="48.4" transform="matrix(1,0,0,1,331,405)"><path fill="none" stroke="#ffcd55" stroke-linejoin="round" stroke-width="2" d="M0,24.9L48.4,24.9"/><text class="st3"><tspan y="16" style="white-space:pre" x="8">ORB</tspan></text></g><g ed:parentid="150" ed:height="24.95" id="156" ed:width="45.2" transform="matrix(1,0,0,1,407,390)"><path fill="none" stroke="#ffcd55" stroke-linejoin="round" stroke-width="2" d="M0,24.9L45.2,24.9"/><text class="st2"><tspan y="16" style="white-space:pre" x="8">Fast</tspan></text></g><g ed:parentid="150" ed:height="24.95" id="158" ed:width="50.8" transform="matrix(1,0,0,1,407,421)"><path fill="none" stroke="#ffcd55" stroke-linejoin="round" stroke-width="2" d="M0,24.9L50.8,24.9"/><text class="st2"><tspan y="16" style="white-space:pre" x="8">Brief</tspan></text></g><g ed:parentid="101" ed:height="31.95" id="160" ed:width="63.2" transform="matrix(1,0,0,1,214,785)"><path fill="none" stroke="#6cc9e5" stroke-linejoin="round" stroke-width="2" d="M0,31.9L63.2,31.9"/><text class="st2"><tspan y="19.6" style="white-space:pre" x="17">其它</tspan></text></g><g ed:parentid="160" ed:height="24.95" id="162" ed:width="64.40000000000001" transform="matrix(1,0,0,1,304,741)"><path fill="none" stroke="#6cc9e5" stroke-linejoin="round" stroke-width="2" d="M0,24.9L64.4,24.9"/><text class="st2"><tspan y="16" style="white-space:pre" x="8">Hough</tspan></text></g><g ed:parentid="160" ed:height="24.95" id="164" ed:width="38" transform="matrix(1,0,0,1,304,788)"><path fill="none" stroke="#6cc9e5" stroke-linejoin="round" stroke-width="2" d="M0,24.9L38,24.9"/><text class="st2"><tspan y="16" style="white-space:pre" x="8">Hu</tspan></text></g><g ed:parentid="160" ed:height="24.95" id="167" ed:width="94.8" transform="matrix(1,0,0,1,304,820)"><path fill="none" stroke="#6cc9e5" stroke-linejoin="round" stroke-width="2" d="M0,24.9L94.8,24.9"/><text class="st2"><tspan y="16" style="white-space:pre" x="8">GrayMatrix</tspan></text></g><g ed:parentid="160" ed:height="24.95" id="169" ed:width="76.40000000000001" transform="matrix(1,0,0,1,304,851)"><path fill="none" stroke="#6cc9e5" stroke-linejoin="round" stroke-width="2" d="M0,24.9L76.4,24.9"/><text class="st2"><tspan y="16" style="white-space:pre" x="8">RANSAC</tspan></text></g><g ed:parentid="144" ed:height="24.95" id="173" ed:width="57.2" transform="matrix(1,0,0,1,331,295)"><path fill="none" stroke="#ffcd55" stroke-linejoin="round" stroke-width="2" d="M0,24.9L57.2,24.9"/><text class="st2"><tspan y="16" style="white-space:pre" x="8">MSER</tspan></text></g><g ed:parentid="162" ed:height="24.95" id="175" ed:width="58.8" transform="matrix(1,0,0,1,396,726)"><path fill="none" stroke="#6cc9e5" stroke-linejoin="round" stroke-width="2" d="M0,24.9L58.8,24.9"/><text class="st2"><tspan y="16" style="white-space:pre" x="8">线变换</tspan></text></g><g ed:parentid="162" ed:height="24.95" id="177" ed:width="58.8" transform="matrix(1,0,0,1,396,757)"><path fill="none" stroke="#6cc9e5" stroke-linejoin="round" stroke-width="2" d="M0,24.9L58.8,24.9"/><text class="st2"><tspan y="16" style="white-space:pre" x="8">圆变换</tspan></text></g><symbol id="plus"><path fill="url(#lg1)" d="M11,6C11,8.8,8.8,11,6,11C3.2,11,1,8.8,1,6C1,3.2,3.2,1,6,1C8.8,1,11,3.2,11,6z"/><path fill="none" stroke="#46a000" stroke-width="0.7" d="M11,6C11,8.8,8.8,11,6,11C3.2,11,1,8.8,1,6C1,3.2,3.2,1,6,1C8.8,1,11,3.2,11,6zM3,6L9,6M6,3L6,9"/></symbol><symbol id="minus"><path fill="url(#lg1)" d="M11,6C11,8.8,8.8,11,6,11C3.2,11,1,8.8,1,6C1,3.2,3.2,1,6,1C8.8,1,11,3.2,11,6z"/><path fill="none" stroke="#46a000" stroke-width="0.7" d="M11,6C11,8.8,8.8,11,6,11C3.2,11,1,8.8,1,6C1,3.2,3.2,1,6,1C8.8,1,11,3.2,11,6zM3,6L9,6"/></symbol><g ed:togtopicid="101" transform="translate(152,443)"><use xlink:href="#minus"/></g><g ed:togtopicid="102" transform="translate(305,60)"><use xlink:href="#minus"/></g><g ed:togtopicid="104" transform="translate(305,197)"><use xlink:href="#minus"/></g><g ed:togtopicid="106" transform="translate(305,580)"><use xlink:href="#minus"/></g><g ed:togtopicid="116" transform="translate(376,580)"><use xlink:href="#minus"/></g><g ed:togtopicid="144" transform="translate(305,365)"><use xlink:href="#minus"/></g><g ed:togtopicid="150" transform="translate(381,412)"><use xlink:href="#minus"/></g><g ed:togtopicid="160" transform="translate(278,795)"><use xlink:href="#minus"/></g><g ed:togtopicid="162" transform="translate(370,748)"><use xlink:href="#minus"/></g></svg>